<svg width="1600" height="720" viewBox="0 0 1600 720" fill="none" xmlns="http://www.w3.org/2000/svg">
<path d="M0 475.307H1600V711.219L0 527.539V475.307Z" fill="#FF7514"/>
<path d="M0 0H1600V694.68L0 510.999V0Z" fill="#172755"/>
<mask id="mask0_66_1653" style="mask-type:alpha" maskUnits="userSpaceOnUse" x="0" y="0" width="1600" height="695">
<path d="M0 0H1600V694.68L0 510.999V0Z" fill="#172755"/>
</mask>
<g mask="url(#mask0_66_1653)">
<g opacity="0.07">
<path d="M209.375 230.465C199.531 234.206 198.438 237.706 198.438 265.342V289.84H185.781C166.094 289.84 160 293.944 158.281 308.425L157.344 316.27L120.469 316.631C85.9375 316.994 83.125 317.114 77.1875 319.648C66.7188 323.993 61.4062 328.096 56.7188 335.458C52.5 342.216 52.3438 342.819 52.3438 363.577C52.3438 386.265 52.8125 387.834 60.4688 390.127C63.75 391.093 64.0625 391.816 64.0625 401.35C64.0625 411.125 63.9062 411.487 60.1562 412.211C58.125 412.573 55.625 414.022 54.6875 415.35C52.6562 418.245 53.2812 673.125 55.3125 676.263C56.4062 678.194 55.4688 678.435 42.9688 678.435C35.4688 678.435 26.4062 679.159 22.8125 679.883C14.5312 681.815 4.375 689.658 1.875 696.055C-0.625 702.572 -0.625 732.741 1.875 739.258C4.375 745.655 14.5312 753.499 22.8125 755.43C27.8125 756.516 83.2812 756.878 265.938 756.878H502.656L506.875 754.344C512.188 751.086 512.5 745.052 507.344 741.431L503.75 738.776H267.031H30.1562L26.875 736C23.75 733.466 23.4375 731.897 23.4375 717.536C23.4375 702.692 23.5938 701.606 27.0312 699.192L30.625 696.538H175.312H319.844L320.938 703.295C322.5 714.036 327.969 719.949 339.375 723.691C347.969 726.466 452.031 726.466 460.625 723.691C472.031 719.949 477.5 714.036 479.062 703.295L480.156 696.538H624.531H768.906L772.656 699.555C776.406 702.33 776.562 703.175 776.562 717.657C776.562 732.138 776.406 732.983 772.656 735.758L768.906 738.776H658.125C548.438 738.776 547.188 738.776 543.125 741.31C537.812 744.569 537.656 749.878 542.969 753.861L546.719 756.878H658.75C742.812 756.878 772.344 756.516 777.188 755.43C785.469 753.499 795.625 745.655 798.125 739.258C800.625 732.741 800.625 702.572 798.125 696.055C795.625 689.658 785.469 681.815 777.188 679.883C773.594 679.159 764.688 678.435 757.188 678.435C749.844 678.435 743.75 678.194 743.75 677.952C743.75 677.59 744.531 675.901 745.469 673.97C746.562 671.677 747.031 619.06 746.875 505.981C746.875 349.699 746.719 341.13 743.906 336.424C739.844 329.182 733.438 323.993 724.375 320.253C716.406 316.994 716.094 316.994 679.531 316.631L642.656 316.27L641.719 308.425C640 293.944 633.906 289.84 614.219 289.84H601.562V265.704C601.562 239.396 600.469 235.051 593.281 231.31C585.312 227.327 579.688 227.689 556.875 233.844C545 237.102 534.062 240.602 532.5 241.809C528.75 244.705 528.906 250.619 532.812 253.636C537.188 257.015 543.906 256.653 558.75 252.55C565.469 250.619 572.656 248.688 574.688 248.326L578.125 247.481L577.812 356.336L577.344 465.19L523.438 479.552C493.75 487.516 456.719 497.413 441.094 501.636L412.5 509.239V400.505V291.651L455.625 280.185C479.531 273.91 500.312 267.876 502.031 266.79C506.719 263.894 506.562 256.533 501.719 253.516C499.688 252.188 496.719 251.222 495 251.222C493.281 251.222 471.25 256.774 445.938 263.411L400 275.721L381.719 270.773C371.562 268.118 331.562 257.498 292.812 247.119C254.062 236.74 220.625 228.293 218.594 228.293C216.562 228.293 212.344 229.259 209.375 230.465ZM306.719 269.928L387.5 291.53V400.385V509.239L374.688 505.739C367.5 503.809 330.469 493.913 292.188 483.655L222.656 465.19L222.188 356.216C221.875 269.325 222.188 247.481 223.75 247.843C224.844 248.205 262.188 258.101 306.719 269.928ZM158.125 445.278C158.594 528.187 157.969 523.601 169.219 528.79C174.062 531.204 178.906 531.204 400 531.204C621.094 531.204 625.938 531.204 630.781 528.79C642.031 523.601 641.406 528.187 641.875 445.278L642.344 370.697H659.375H676.562V506.464V642.23H400H123.438V506.464V370.697H140.625H157.656L158.125 445.278ZM454.688 700.52C454.688 702.692 453.906 705.106 452.812 705.95C450.156 708.002 349.844 708.002 347.188 705.95C346.094 705.106 345.312 702.692 345.312 700.52V696.538H400H454.688V700.52Z" fill="#8794BA"/>
<path d="M241.407 557.995C233.594 561.253 232.032 567.649 237.969 571.993L241.563 574.649H400.157H558.907L562.188 571.873C567.813 567.287 566.563 561.253 559.219 558.356C555.469 556.787 532.813 556.546 399.688 556.546C290.469 556.667 243.594 557.029 241.407 557.995Z" fill="#8794BA"/>
<path d="M238.28 598.182C233.593 601.802 233.28 605.906 237.655 610.13L240.78 613.267H345.468H450.155L453.905 610.25C456.093 608.681 457.812 606.509 457.812 605.544C457.812 602.164 454.374 597.82 450.468 596.493C447.812 595.527 416.093 595.165 344.374 595.165H242.03L238.28 598.182Z" fill="#8794BA"/>
</g>
<g opacity="0.07">
<path d="M1196.48 -123.792C1190.73 -122.257 1190.09 -120.82 1190.09 -109.481V-99.4303H1182.68C1171.16 -99.4303 1167.6 -97.7462 1166.59 -91.8044L1166.05 -88.5864L1144.47 -88.438C1124.27 -88.2887 1122.63 -88.2396 1119.15 -87.1997C1113.03 -85.4172 1109.92 -83.7336 1107.18 -80.7132C1104.71 -77.9403 1104.62 -77.6927 1104.62 -69.1761C1104.62 -59.8672 1104.9 -59.2235 1109.37 -58.2827C1111.29 -57.8866 1111.48 -57.5894 1111.48 -53.6777C1111.48 -49.667 1111.39 -49.5184 1109.19 -49.2213C1108 -49.0728 1106.54 -48.4785 1105.99 -47.9339C1104.8 -46.7455 1105.17 57.8313 1106.36 59.1187C1107 59.911 1106.45 60.0099 1099.14 60.0099C1094.75 60.0099 1089.45 60.3071 1087.35 60.6042C1082.5 61.3964 1076.56 64.6149 1075.1 67.2392C1073.63 69.9131 1073.63 82.292 1075.1 84.9658C1076.56 87.5901 1082.5 90.8086 1087.35 91.6006C1090.27 92.0467 1122.72 92.1951 1229.57 92.1951H1368.05L1370.52 91.1555C1373.63 89.8182 1373.81 87.3425 1370.8 85.8571L1368.69 84.7677H1230.21H1091.64L1089.72 83.6289C1087.89 82.589 1087.71 81.9453 1087.71 76.053C1087.71 69.9626 1087.8 69.5169 1089.81 68.5266L1091.92 67.4373H1176.56H1261.11L1261.75 70.2101C1262.66 74.6171 1265.86 77.0433 1272.53 78.5783C1277.56 79.7171 1338.44 79.7171 1343.47 78.5783C1350.14 77.0433 1353.34 74.6171 1354.25 70.2101L1354.89 67.4373H1439.35H1523.81L1526 68.6752C1528.2 69.814 1528.29 70.1607 1528.29 76.1025C1528.29 82.0444 1528.2 82.3909 1526 83.5299L1523.81 84.7677H1459C1394.84 84.7677 1394.1 84.7677 1391.73 85.8075C1388.62 87.1445 1388.53 89.323 1391.64 90.957L1393.83 92.1951H1459.37C1508.55 92.1951 1525.82 92.0467 1528.65 91.6006C1533.5 90.8086 1539.44 87.5901 1540.9 84.9658C1542.37 82.292 1542.37 69.9131 1540.9 67.2392C1539.44 64.6149 1533.5 61.3964 1528.65 60.6042C1526.55 60.3071 1521.34 60.0099 1516.95 60.0099C1512.66 60.0099 1509.09 59.911 1509.09 59.8119C1509.09 59.6634 1509.55 58.9701 1510.1 58.1779C1510.74 57.2371 1511.01 35.6483 1510.92 -10.7477C1510.92 -74.8704 1510.83 -78.3859 1509.19 -80.3171C1506.81 -83.288 1503.06 -85.4172 1497.76 -86.9522C1493.1 -88.2887 1492.91 -88.2887 1471.53 -88.438L1449.95 -88.5864L1449.41 -91.8044C1448.4 -97.7462 1444.84 -99.4303 1433.32 -99.4303H1425.91V-109.333C1425.91 -120.128 1425.27 -121.91 1421.07 -123.445C1416.41 -125.079 1413.12 -124.931 1399.77 -122.405C1392.82 -121.068 1386.43 -119.632 1385.51 -119.137C1383.32 -117.949 1383.41 -115.522 1385.7 -114.285C1388.25 -112.899 1392.19 -113.047 1400.87 -114.73C1404.8 -115.522 1409 -116.315 1410.19 -116.464L1412.2 -116.81L1412.02 -72.147L1411.75 -27.484L1380.21 -21.5916C1362.84 -18.3236 1341.18 -14.2633 1332.04 -12.5303L1315.31 -9.41081V-54.0243V-98.6875L1340.54 -103.391C1354.53 -105.966 1366.68 -108.442 1367.69 -108.888C1370.43 -110.076 1370.34 -113.096 1367.51 -114.334C1366.32 -114.879 1364.58 -115.275 1363.57 -115.275C1362.57 -115.275 1349.68 -112.997 1334.87 -110.274L1308 -105.224L1297.31 -107.254C1291.36 -108.342 1267.96 -112.7 1245.3 -116.959C1222.63 -121.217 1203.07 -124.683 1201.88 -124.683C1200.69 -124.683 1198.22 -124.287 1196.48 -123.792ZM1253.43 -107.601L1300.69 -98.7366V-54.0738V-9.41081L1293.19 -10.8468C1288.99 -11.639 1267.32 -15.6993 1244.93 -19.9081L1204.25 -27.484L1203.98 -72.1965C1203.8 -107.847 1203.98 -116.81 1204.89 -116.661C1205.53 -116.513 1227.38 -112.453 1253.43 -107.601ZM1166.5 -35.654C1166.78 -1.63688 1166.41 -3.51846 1172.99 -1.38929C1175.83 -0.398985 1178.66 -0.398995 1308 -0.398995C1437.34 -0.398995 1440.17 -0.398985 1443.01 -1.38929C1449.59 -3.51846 1449.22 -1.63688 1449.5 -35.654L1449.77 -66.2546H1459.73H1469.79V-10.5496V45.1553H1308H1146.21V-10.5496V-66.2546H1156.27H1166.23L1166.5 -35.654ZM1339.99 69.0713C1339.99 69.9626 1339.54 70.9529 1338.9 71.2995C1337.34 72.1413 1278.66 72.1413 1277.1 71.2995C1276.46 70.9529 1276.01 69.9626 1276.01 69.0713V67.4373H1308H1339.99V69.0713Z" fill="#8794BA"/>
<path d="M1215.22 10.5935C1210.65 11.9304 1209.74 14.5548 1213.21 16.3373L1215.31 17.4266H1308.09H1400.96L1402.88 16.2878C1406.17 14.4062 1405.44 11.9304 1401.14 10.742C1398.95 10.0983 1385.7 9.99927 1307.82 9.99927C1243.92 10.0488 1216.5 10.1974 1215.22 10.5935Z" fill="#8794BA"/>
<path d="M1213.39 27.0821C1210.65 28.5676 1210.47 30.2511 1213.03 31.9842L1214.86 33.2716H1276.1H1337.34L1339.53 32.0337C1340.81 31.3899 1341.82 30.4987 1341.82 30.1025C1341.82 28.7161 1339.81 26.9335 1337.52 26.3889C1335.97 25.9927 1317.41 25.8442 1275.46 25.8442H1215.59L1213.39 27.0821Z" fill="#8794BA"/>
</g>
</g>
</svg>
