<svg width="1300" height="620" viewBox="0 0 1300 620" fill="none" xmlns="http://www.w3.org/2000/svg">
<path d="M0 409.292H1300V612.439L0 454.27V409.292Z" fill="#FF7514"/>
<path d="M0 0H1300V598.197L0 440.027V0Z" fill="#172755"/>
<mask id="mask0_122_1499" style="mask-type:alpha" maskUnits="userSpaceOnUse" x="0" y="0" width="1300" height="599">
<path d="M0 0H1300V598.197L0 440.027V0Z" fill="#172755"/>
</mask>
<g mask="url(#mask0_122_1499)">
<g opacity="0.07">
<path d="M170.117 198.456C162.119 201.677 161.231 204.691 161.231 228.489V249.584H150.947C134.951 249.584 130 253.118 128.603 265.588L127.842 272.344L97.8811 272.654C69.8242 272.967 67.5391 273.07 62.7148 275.252C54.209 278.994 49.8925 282.527 46.084 288.867C42.6562 294.686 42.5293 295.205 42.5293 313.08C42.5293 332.617 42.9102 333.968 49.1309 335.943C51.7969 336.774 52.0508 337.397 52.0508 345.607C52.0508 354.024 51.9238 354.336 48.8769 354.959C47.2266 355.271 45.1953 356.519 44.4336 357.662C42.7832 360.155 43.291 579.635 44.9414 582.338C45.83 584 45.0684 584.208 34.9121 584.208C28.8184 584.208 21.455 584.831 18.5352 585.455C11.8066 587.118 3.55469 593.872 1.52344 599.381C-0.507812 604.992 -0.507812 630.971 1.52344 636.583C3.55469 642.092 11.8066 648.846 18.5352 650.509C22.5977 651.444 67.666 651.756 216.075 651.756H408.408L411.836 649.574C416.153 646.768 416.406 641.573 412.217 638.454L409.297 636.168H216.963H24.5019L21.8359 633.778C19.2969 631.596 19.043 630.245 19.043 617.878C19.043 605.096 19.17 604.161 21.9629 602.082L24.8828 599.797H142.441H259.873L260.762 605.615C262.031 614.864 266.475 619.956 275.742 623.178C282.725 625.568 367.275 625.568 374.258 623.178C383.525 619.956 387.969 614.864 389.238 605.615L390.127 599.797H507.431H624.736L627.783 602.395C630.83 604.784 630.957 605.512 630.957 617.982C630.957 630.452 630.83 631.18 627.783 633.569L624.736 636.168H534.727C445.606 636.168 444.59 636.168 441.289 638.35C436.972 641.157 436.845 645.728 441.162 649.158L444.209 651.756H535.234C603.535 651.756 627.529 651.444 631.465 650.509C638.194 648.846 646.445 642.092 648.477 636.583C650.508 630.971 650.508 604.992 648.477 599.381C646.445 593.872 638.194 587.118 631.465 585.455C628.545 584.831 621.309 584.208 615.215 584.208C609.248 584.208 604.297 584 604.297 583.792C604.297 583.48 604.931 582.026 605.694 580.363C606.582 578.388 606.963 533.079 606.836 435.706C606.836 301.13 606.709 293.751 604.424 289.698C601.123 283.462 595.918 278.994 588.555 275.773C582.08 272.967 581.826 272.967 552.119 272.654L522.158 272.344L521.397 265.588C520 253.118 515.049 249.584 499.053 249.584H488.769V228.801C488.769 206.146 487.881 202.405 482.041 199.184C475.566 195.754 470.996 196.065 452.461 201.366C442.812 204.171 433.925 207.185 432.656 208.224C429.609 210.718 429.736 215.811 432.91 218.409C436.465 221.318 441.924 221.007 453.984 217.474C459.444 215.811 465.283 214.148 466.934 213.836L469.727 213.109L469.472 306.845L469.092 400.58L425.293 412.947C401.172 419.805 371.084 428.328 358.389 431.964L335.156 438.511V344.879V251.144L370.195 241.27C389.619 235.867 406.504 230.671 407.9 229.736C411.709 227.242 411.582 220.903 407.647 218.305C405.996 217.162 403.584 216.33 402.188 216.33C400.791 216.33 382.891 221.111 362.325 226.826L325 237.426L310.147 233.166C301.894 230.879 269.394 221.734 237.91 212.797C206.425 203.859 179.258 196.586 177.608 196.586C175.957 196.586 172.53 197.417 170.117 198.456ZM249.209 232.438L314.844 251.04V344.776V438.511L304.434 435.497C298.594 433.835 268.506 425.314 237.403 416.481L180.908 400.58L180.528 306.741C180.273 231.919 180.528 213.109 181.797 213.42C182.686 213.732 213.028 222.254 249.209 232.438ZM128.477 383.434C128.858 454.828 128.35 450.879 137.49 455.347C141.425 457.426 145.361 457.426 325 457.426C504.639 457.426 508.575 457.426 512.51 455.347C521.65 450.879 521.142 454.828 521.523 383.434L521.904 319.211H535.742H549.707V436.122V553.031H325H100.293V436.122V319.211H114.258H128.096L128.477 383.434ZM369.434 603.226C369.434 605.096 368.799 607.175 367.91 607.901C365.752 609.668 284.248 609.668 282.09 607.901C281.201 607.175 280.566 605.096 280.566 603.226V599.797H325H369.434V603.226Z" fill="#8794BA"/>
<path d="M196.143 480.496C189.795 483.301 188.526 488.809 193.35 492.549L196.27 494.837H325.128H454.112L456.778 492.446C461.348 488.497 460.332 483.301 454.365 480.807C451.319 479.455 432.911 479.248 324.746 479.248C236.006 479.352 197.92 479.664 196.143 480.496Z" fill="#8794BA"/>
<path d="M193.602 515.101C189.794 518.218 189.54 521.752 193.095 525.39L195.634 528.091H280.693H365.751L368.798 525.493C370.576 524.142 371.972 522.272 371.972 521.441C371.972 518.53 369.179 514.789 366.005 513.647C363.847 512.815 338.076 512.503 279.804 512.503H196.649L193.602 515.101Z" fill="#8794BA"/>
</g>
<g opacity="0.07">
<path d="M972.14 -106.599C967.468 -105.277 966.948 -104.039 966.948 -94.2754V-85.6206H960.928C951.568 -85.6206 948.675 -84.1704 947.854 -79.0538L947.416 -76.2828L929.882 -76.155C913.469 -76.0264 912.137 -75.9841 909.309 -75.0887C904.337 -73.5537 901.81 -72.104 899.584 -69.5031C897.577 -67.1153 897.504 -66.9021 897.504 -59.5684C897.504 -51.5524 897.731 -50.9981 901.363 -50.1879C902.923 -49.8468 903.077 -49.5909 903.077 -46.2225C903.077 -42.7689 903.004 -42.6409 901.217 -42.3851C900.25 -42.2572 899.064 -41.7454 898.617 -41.2765C897.65 -40.2531 897.951 49.7991 898.917 50.9077C899.437 51.59 898.991 51.6752 893.051 51.6752C889.484 51.6752 885.178 51.9311 883.472 52.1869C879.531 52.8691 874.705 55.6406 873.519 57.9004C872.324 60.2029 872.324 70.8625 873.519 73.165C874.705 75.4248 879.531 78.1963 883.472 78.8783C885.844 79.2624 912.21 79.3902 999.026 79.3902H1111.54L1113.55 78.495C1116.07 77.3434 1116.22 75.2116 1113.78 73.9325L1112.06 72.9944H999.546H886.957L885.397 72.0137C883.911 71.1183 883.764 70.564 883.764 65.49C883.764 60.2455 883.838 59.8617 885.471 59.009L887.185 58.071H955.955H1024.65L1025.17 60.4587C1025.91 64.2536 1028.51 66.3428 1033.93 67.6646C1038.02 68.6452 1087.48 68.6452 1091.57 67.6646C1096.99 66.3428 1099.59 64.2536 1100.33 60.4587L1100.85 58.071H1169.47H1238.1L1239.87 59.1369C1241.66 60.1176 1241.74 60.4161 1241.74 65.5327C1241.74 70.6493 1241.66 70.9477 1239.87 71.9285L1238.1 72.9944H1185.44C1133.31 72.9944 1132.71 72.9944 1130.78 73.8898C1128.25 75.0411 1128.18 76.917 1130.71 78.324L1132.49 79.3902H1185.74C1225.7 79.3902 1239.73 79.2624 1242.03 78.8783C1245.97 78.1963 1250.8 75.4248 1251.98 73.165C1253.18 70.8625 1253.18 60.2029 1251.98 57.9004C1250.8 55.6406 1245.97 52.8691 1242.03 52.1869C1240.32 51.9311 1236.09 51.6752 1232.52 51.6752C1229.04 51.6752 1226.14 51.59 1226.14 51.5047C1226.14 51.3768 1226.51 50.7798 1226.96 50.0976C1227.48 49.2875 1227.7 30.6971 1227.62 -9.25501C1227.62 -64.4718 1227.55 -67.499 1226.22 -69.162C1224.28 -71.7203 1221.24 -73.5538 1216.93 -74.8756C1213.14 -76.0264 1212.99 -76.0264 1195.62 -76.155L1178.08 -76.2828L1177.65 -79.0538C1176.83 -84.1704 1173.93 -85.6206 1164.57 -85.6206H1158.55V-94.1479C1158.55 -103.444 1158.03 -104.978 1154.62 -106.3C1150.83 -107.707 1148.16 -107.58 1137.31 -105.404C1131.67 -104.253 1126.47 -103.016 1125.73 -102.59C1123.95 -101.567 1124.02 -99.4773 1125.88 -98.4121C1127.95 -97.2186 1131.15 -97.3461 1138.21 -98.7953C1141.4 -99.4773 1144.81 -100.16 1145.78 -100.288L1147.41 -100.586L1147.27 -62.1266L1147.05 -23.6668L1121.42 -18.5928C1107.31 -15.7787 1089.71 -12.2823 1082.28 -10.79L1068.69 -8.1038V-46.521V-84.981L1089.19 -89.0312C1100.56 -91.2485 1110.43 -93.3807 1111.25 -93.7647C1113.47 -94.7877 1113.4 -97.3883 1111.1 -98.4543C1110.13 -98.9236 1108.72 -99.2646 1107.9 -99.2646C1107.09 -99.2646 1096.61 -97.303 1084.58 -94.9582L1062.75 -90.6096L1054.06 -92.3577C1049.23 -93.2945 1030.22 -97.0473 1011.81 -100.715C993.387 -104.381 977.494 -107.366 976.527 -107.366C975.561 -107.366 973.554 -107.025 972.14 -106.599ZM1018.41 -92.6565L1056.81 -85.0232V-46.5636V-8.1038L1050.72 -9.34035C1047.3 -10.0225 1029.7 -13.5189 1011.51 -17.1431L978.453 -23.6668L978.234 -62.1693C978.087 -92.8683 978.234 -100.586 978.973 -100.458C979.493 -100.331 997.246 -96.8346 1018.41 -92.6565ZM947.781 -30.7021C948.009 -1.40958 947.708 -3.02983 953.054 -1.19638C955.362 -0.343615 957.661 -0.343623 1062.75 -0.343623C1167.84 -0.343623 1170.14 -0.343615 1172.45 -1.19638C1177.79 -3.02983 1177.49 -1.40958 1177.72 -30.7021L1177.94 -57.0526H1186.03H1194.2V-9.08442V38.8837H1062.75H931.296V-9.08442V-57.0526H939.469H947.562L947.781 -30.7021ZM1088.74 59.478C1088.74 60.2455 1088.38 61.0983 1087.86 61.3968C1086.59 62.1216 1038.91 62.1216 1037.64 61.3968C1037.12 61.0983 1036.76 60.2455 1036.76 59.478V58.071H1062.75H1088.74V59.478Z" fill="#8794BA"/>
<path d="M987.366 9.12217C983.653 10.2734 982.914 12.5333 985.733 14.0682L987.439 15.0062H1062.82H1138.28L1139.84 14.0256C1142.51 12.4053 1141.92 10.2734 1138.43 9.25005C1136.65 8.69575 1125.88 8.61047 1062.6 8.61047C1010.68 8.65312 988.406 8.78109 987.366 9.12217Z" fill="#8794BA"/>
<path d="M985.879 23.3206C983.653 24.5998 983.507 26.0495 985.587 27.5419L987.074 28.6505H1036.83H1086.59L1088.37 27.5845C1089.41 27.0301 1090.23 26.2627 1090.23 25.9215C1090.23 24.7277 1088.6 23.1926 1086.74 22.7237C1085.48 22.3825 1070.4 22.2546 1036.31 22.2546H987.667L985.879 23.3206Z" fill="#8794BA"/>
</g>
</g>
</svg>
