<svg width="800" height="500" viewBox="0 0 800 500" fill="none" xmlns="http://www.w3.org/2000/svg">
<g clip-path="url(#clip0_195_2436)">
<path d="M800 0H0V500H800V0Z" fill="white"/>
<path d="M0 73.7695H114.285V159.016H0V73.7695Z" fill="white"/>
<path d="M114.285 73.7695H228.57V159.016H114.285V73.7695Z" fill="white"/>
<path d="M171.621 108.887V122.949H169.742V111.105L165.957 112.414V110.809L171.328 108.887H171.621Z" fill="#172755"/>
<path d="M228.57 73.7695H342.855V159.016H228.57V73.7695Z" fill="white"/>
<path d="M289.418 121.492V122.949H279.746V121.672L284.586 116.574C285.184 115.945 285.641 115.414 285.969 114.977C286.297 114.535 286.527 114.145 286.656 113.797C286.793 113.445 286.859 113.086 286.859 112.723C286.859 112.262 286.758 111.844 286.555 111.473C286.359 111.094 286.07 110.793 285.684 110.57C285.297 110.344 284.832 110.234 284.281 110.234C283.625 110.234 283.078 110.355 282.641 110.598C282.207 110.836 281.883 111.168 281.664 111.598C281.449 112.027 281.34 112.52 281.34 113.078H279.465C279.465 112.289 279.648 111.566 280.012 110.914C280.375 110.262 280.918 109.742 281.633 109.359C282.352 108.969 283.234 108.773 284.281 108.773C285.215 108.773 286.016 108.93 286.676 109.242C287.34 109.551 287.848 109.988 288.199 110.551C288.559 111.105 288.738 111.762 288.738 112.508C288.738 112.918 288.664 113.336 288.516 113.758C288.371 114.176 288.172 114.59 287.914 115.008C287.664 115.422 287.371 115.832 287.031 116.238C286.703 116.641 286.348 117.035 285.969 117.426L282.012 121.492H289.418Z" fill="#172755"/>
<path d="M342.855 73.7695H457.145V159.016H342.855V73.7695Z" fill="white"/>
<path d="M396.762 115.082H398.102C398.758 115.082 399.297 114.98 399.727 114.777C400.156 114.566 400.48 114.281 400.688 113.922C400.906 113.555 401.012 113.148 401.012 112.691C401.012 112.152 400.918 111.703 400.73 111.336C400.539 110.973 400.258 110.699 399.879 110.512C399.496 110.324 399.02 110.234 398.438 110.234C397.91 110.234 397.441 110.332 397.039 110.531C396.637 110.723 396.32 111 396.094 111.355C395.871 111.715 395.758 112.137 395.758 112.625H393.879C393.879 111.914 394.07 111.266 394.449 110.684C394.828 110.102 395.359 109.637 396.043 109.293C396.734 108.945 397.531 108.773 398.438 108.773C399.328 108.773 400.109 108.922 400.781 109.223C401.449 109.52 401.969 109.961 402.344 110.551C402.715 111.133 402.902 111.859 402.902 112.73C402.902 113.082 402.812 113.461 402.637 113.863C402.469 114.262 402.199 114.633 401.836 114.977C401.477 115.324 401.008 115.609 400.434 115.832C399.859 116.051 399.172 116.16 398.367 116.16H396.762V115.082ZM396.762 116.543V115.477H398.367C399.305 115.477 400.082 115.582 400.699 115.793C401.312 116.008 401.801 116.289 402.152 116.641C402.508 116.992 402.758 117.379 402.902 117.801C403.051 118.219 403.125 118.633 403.125 119.051C403.125 119.703 403.008 120.285 402.77 120.789C402.539 121.297 402.211 121.723 401.785 122.078C401.367 122.43 400.871 122.695 400.305 122.875C399.734 123.055 399.117 123.145 398.445 123.145C397.805 123.145 397.199 123.055 396.629 122.883C396.07 122.711 395.574 122.461 395.141 122.133C394.707 121.801 394.367 121.395 394.125 120.914C393.879 120.426 393.758 119.875 393.758 119.254H395.637C395.637 119.738 395.746 120.164 395.969 120.531C396.199 120.895 396.527 121.18 396.945 121.387C397.371 121.582 397.871 121.684 398.445 121.684C399.023 121.684 399.516 121.59 399.926 121.402C400.348 121.211 400.668 120.926 400.891 120.539C401.121 120.156 401.238 119.672 401.238 119.09C401.238 118.508 401.109 118.031 400.852 117.656C400.594 117.281 400.23 117 399.754 116.824C399.289 116.637 398.738 116.543 398.102 116.543H396.762Z" fill="#172755"/>
<path d="M457.145 73.7695H571.43V159.016H457.145V73.7695Z" fill="white"/>
<path d="M518.293 118.242V119.703H507.617V118.656L514.234 108.965H515.766L514.121 111.77L509.75 118.242H518.293ZM516.23 108.965V122.949H514.355V108.965H516.23Z" fill="#172755"/>
<path d="M571.43 73.7695H685.715V159.016H571.43V73.7695Z" fill="white"/>
<path d="M624.969 116.293L623.465 115.93L624.207 108.965H631.785V110.609H625.801L625.355 114.41C625.625 114.266 625.969 114.125 626.379 114C626.797 113.871 627.277 113.805 627.82 113.805C628.504 113.805 629.113 113.918 629.656 114.145C630.199 114.359 630.656 114.676 631.035 115.082C631.422 115.492 631.715 115.988 631.918 116.562C632.121 117.141 632.223 117.781 632.223 118.492C632.223 119.168 632.125 119.785 631.93 120.348C631.742 120.91 631.453 121.402 631.066 121.828C630.68 122.242 630.195 122.566 629.605 122.797C629.023 123.027 628.336 123.145 627.547 123.145C626.949 123.145 626.387 123.066 625.852 122.914C625.324 122.754 624.852 122.512 624.43 122.191C624.02 121.867 623.68 121.461 623.418 120.98C623.16 120.496 622.996 119.926 622.93 119.273H624.715C624.797 119.797 624.961 120.238 625.203 120.598C625.445 120.957 625.762 121.227 626.156 121.414C626.555 121.594 627.02 121.684 627.547 121.684C627.992 121.684 628.387 121.609 628.734 121.461C629.078 121.316 629.367 121.102 629.605 120.828C629.844 120.551 630.02 120.219 630.145 119.828C630.273 119.438 630.336 119 630.336 118.512C630.336 118.07 630.273 117.66 630.145 117.285C630.016 116.906 629.82 116.574 629.566 116.293C629.313 116.012 629.008 115.793 628.641 115.641C628.277 115.48 627.855 115.402 627.383 115.402C626.754 115.402 626.277 115.48 625.953 115.641C625.633 115.801 625.309 116.02 624.969 116.293Z" fill="#172755"/>
<path d="M685.715 73.7695H800V159.016H685.715V73.7695Z" fill="white"/>
<path d="M744.082 108.945H744.246V110.453H744.082C743.09 110.453 742.258 110.609 741.586 110.914C740.918 111.215 740.387 111.621 739.996 112.137C739.602 112.641 739.316 113.211 739.145 113.844C738.973 114.48 738.887 115.121 738.887 115.777V117.832C738.887 118.453 738.965 119.004 739.121 119.484C739.277 119.957 739.492 120.355 739.762 120.684C740.031 121.012 740.336 121.258 740.676 121.422C741.02 121.59 741.379 121.672 741.75 121.672C742.184 121.672 742.566 121.598 742.906 121.441C743.246 121.281 743.527 121.062 743.758 120.781C743.996 120.492 744.176 120.152 744.297 119.762C744.418 119.371 744.48 118.941 744.48 118.473C744.48 118.059 744.426 117.656 744.316 117.273C744.211 116.883 744.043 116.539 743.82 116.238C743.598 115.93 743.316 115.688 742.977 115.516C742.645 115.336 742.25 115.246 741.789 115.246C741.27 115.246 740.781 115.367 740.328 115.613C739.883 115.848 739.516 116.164 739.223 116.555C738.941 116.937 738.777 117.355 738.734 117.812L737.742 117.801C737.836 117.086 738.016 116.473 738.27 115.969C738.535 115.457 738.859 115.039 739.242 114.719C739.637 114.391 740.074 114.156 740.551 114.008C741.039 113.855 741.555 113.777 742.094 113.777C742.832 113.777 743.469 113.91 744 114.172C744.535 114.434 744.977 114.785 745.32 115.227C745.664 115.664 745.922 116.156 746.082 116.707C746.25 117.25 746.336 117.812 746.336 118.387C746.336 119.047 746.238 119.664 746.043 120.242C745.848 120.82 745.551 121.324 745.16 121.758C744.773 122.195 744.297 122.535 743.727 122.777C743.16 123.02 742.5 123.145 741.75 123.145C740.953 123.145 740.254 122.988 739.66 122.684C739.066 122.367 738.57 121.953 738.18 121.434C737.785 120.914 737.492 120.34 737.297 119.703C737.098 119.07 737.004 118.426 737.004 117.773V116.938C737.004 115.953 737.105 114.984 737.316 114.035C737.527 113.09 737.887 112.23 738.402 111.461C738.922 110.695 739.645 110.082 740.562 109.629C741.48 109.172 742.656 108.945 744.082 108.945Z" fill="#172755"/>
<path d="M0 159.016H114.285V244.262H0V159.016Z" fill="white"/>
<path d="M60.7148 194.211V195.211L54.5938 208.195H52.6172L58.7266 195.672H50.7305V194.211H60.7148Z" fill="#172755"/>
<path d="M114.285 159.016H228.57V244.262H114.285V159.016Z" fill="white"/>
<path d="M204.328 200.82C204.328 218.477 189.211 232.785 170.562 232.785C151.914 232.785 136.797 218.477 136.797 200.82C136.797 183.164 151.914 168.852 170.562 168.852C189.211 168.852 204.328 183.164 204.328 200.82Z" fill="#0088F0"/>
<path d="M174.766 204.41C174.766 205.266 174.555 205.988 174.137 206.582C173.727 207.172 173.16 207.621 172.453 207.93C171.75 208.234 170.953 208.387 170.066 208.387C169.184 208.387 168.383 208.234 167.672 207.93C166.965 207.621 166.402 207.172 165.988 206.582C165.578 205.988 165.371 205.266 165.371 204.41C165.371 203.855 165.48 203.348 165.707 202.887C165.934 202.418 166.258 202.012 166.668 201.664C167.09 201.32 167.582 201.055 168.152 200.867C168.727 200.676 169.359 200.582 170.047 200.582C170.953 200.582 171.762 200.746 172.473 201.078C173.184 201.406 173.742 201.855 174.148 202.434C174.559 203.012 174.766 203.668 174.766 204.41ZM172.879 204.375C172.879 203.855 172.762 203.398 172.523 203C172.285 202.598 171.957 202.285 171.527 202.059C171.102 201.836 170.609 201.723 170.047 201.723C169.473 201.723 168.977 201.836 168.555 202.059C168.145 202.285 167.824 202.598 167.594 203C167.363 203.398 167.246 203.855 167.246 204.375C167.246 204.91 167.359 205.371 167.582 205.758C167.813 206.133 168.137 206.426 168.555 206.633C168.98 206.828 169.488 206.93 170.066 206.93C170.648 206.93 171.148 206.828 171.57 206.633C171.988 206.426 172.309 206.133 172.535 205.758C172.762 205.371 172.879 204.91 172.879 204.375ZM174.422 197.852C174.422 198.531 174.23 199.145 173.852 199.688C173.473 200.23 172.957 200.66 172.301 200.973C171.645 201.285 170.898 201.445 170.066 201.445C169.223 201.445 168.469 201.285 167.805 200.973C167.148 200.66 166.637 200.23 166.262 199.688C165.891 199.145 165.707 198.531 165.707 197.852C165.707 197.039 165.891 196.348 166.262 195.777C166.641 195.207 167.16 194.773 167.816 194.469C168.473 194.168 169.219 194.02 170.059 194.02C170.902 194.02 171.652 194.168 172.309 194.469C172.965 194.773 173.48 195.207 173.852 195.777C174.23 196.348 174.422 197.039 174.422 197.852ZM172.543 197.879C172.543 197.414 172.437 197 172.23 196.641C172.02 196.281 171.73 196 171.355 195.797C170.984 195.586 170.551 195.48 170.059 195.48C169.562 195.48 169.133 195.578 168.758 195.777C168.395 195.969 168.105 196.246 167.898 196.602C167.695 196.961 167.594 197.387 167.594 197.879C167.594 198.359 167.695 198.781 167.898 199.141C168.105 199.496 168.398 199.777 168.77 199.973C169.141 200.172 169.574 200.273 170.066 200.273C170.563 200.273 170.992 200.172 171.355 199.973C171.73 199.777 172.02 199.496 172.23 199.141C172.437 198.781 172.543 198.359 172.543 197.879Z" fill="#EEEEF7"/>
<path d="M228.57 159.016H342.855V244.262H228.57V159.016Z" fill="white"/>
<path d="M318.613 200.82C318.613 218.477 303.496 232.785 284.848 232.785C266.199 232.785 251.082 218.477 251.082 200.82C251.082 183.164 266.199 168.852 284.848 168.852C303.496 168.852 318.613 183.164 318.613 200.82Z" fill="#0088F0"/>
<path d="M281.602 206.707H281.797C282.879 206.707 283.758 206.562 284.434 206.277C285.113 205.988 285.633 205.602 286 205.113C286.363 204.625 286.613 204.078 286.75 203.469C286.883 202.855 286.949 202.223 286.949 201.578V199.438C286.949 198.805 286.871 198.238 286.719 197.746C286.57 197.254 286.359 196.84 286.09 196.508C285.824 196.172 285.523 195.922 285.188 195.746C284.848 195.574 284.488 195.488 284.109 195.488C283.68 195.488 283.289 195.57 282.945 195.738C282.605 195.898 282.32 196.125 282.082 196.418C281.852 196.715 281.676 197.063 281.555 197.457C281.434 197.855 281.371 198.285 281.371 198.754C281.371 199.172 281.426 199.574 281.531 199.965C281.641 200.355 281.809 200.707 282.031 201.02C282.254 201.336 282.531 201.586 282.863 201.77C283.199 201.949 283.598 202.039 284.051 202.039C284.469 202.039 284.859 201.961 285.227 201.809C285.598 201.648 285.926 201.434 286.211 201.164C286.504 200.891 286.73 200.582 286.902 200.234C287.078 199.887 287.176 199.527 287.207 199.148H288.098C288.098 199.68 287.984 200.203 287.762 200.723C287.547 201.234 287.242 201.703 286.852 202.125C286.457 202.551 286 202.887 285.469 203.145C284.941 203.395 284.367 203.52 283.746 203.52C283.016 203.52 282.383 203.383 281.848 203.113C281.313 202.848 280.875 202.488 280.527 202.039C280.191 201.594 279.938 201.094 279.77 200.539C279.605 199.984 279.523 199.418 279.523 198.852C279.523 198.184 279.621 197.563 279.816 196.977C280.016 196.395 280.305 195.883 280.691 195.441C281.078 194.992 281.555 194.645 282.121 194.395C282.695 194.145 283.359 194.02 284.109 194.02C284.957 194.02 285.676 194.18 286.273 194.5C286.867 194.82 287.352 195.25 287.723 195.785C288.102 196.324 288.379 196.93 288.555 197.602C288.73 198.273 288.816 198.965 288.816 199.676V200.32C288.816 201.043 288.766 201.781 288.668 202.531C288.57 203.273 288.383 203.984 288.105 204.664C287.836 205.34 287.441 205.949 286.922 206.488C286.398 207.02 285.719 207.441 284.883 207.754C284.051 208.063 283.023 208.215 281.797 208.215H281.602V206.707Z" fill="#EEEEF7"/>
<path d="M342.855 159.016H457.145V244.262H342.855V159.016Z" fill="white"/>
<path d="M432.902 200.82C432.902 218.477 417.781 232.785 399.133 232.785C380.484 232.785 365.367 218.477 365.367 200.82C365.367 183.164 380.484 168.852 399.133 168.852C417.781 168.852 432.902 183.164 432.902 200.82Z" fill="#0088F0"/>
<path d="M393.48 194.133V208.195H391.605V196.352L387.82 197.66V196.055L393.188 194.133H393.48ZM408.273 200.09V202.223C408.273 203.367 408.168 204.336 407.949 205.121C407.734 205.91 407.422 206.543 407.016 207.023C406.609 207.504 406.121 207.855 405.547 208.07C404.977 208.285 404.336 208.387 403.617 208.387C403.051 208.387 402.523 208.32 402.047 208.188C401.566 208.051 401.133 207.836 400.746 207.543C400.367 207.242 400.043 206.852 399.773 206.371C399.5 205.891 399.297 205.309 399.152 204.621C399.012 203.937 398.941 203.137 398.941 202.223V200.09C398.941 198.941 399.051 197.984 399.266 197.207C399.488 196.434 399.801 195.812 400.211 195.344C400.613 194.871 401.102 194.531 401.668 194.328C402.246 194.121 402.887 194.02 403.598 194.02C404.172 194.02 404.699 194.086 405.18 194.223C405.668 194.348 406.102 194.559 406.48 194.844C406.855 195.125 407.18 195.504 407.441 195.98C407.715 196.445 407.922 197.02 408.062 197.699C408.203 198.379 408.273 199.172 408.273 200.09ZM406.387 202.512V199.793C406.387 199.164 406.348 198.613 406.266 198.141C406.191 197.66 406.078 197.25 405.93 196.91C405.781 196.57 405.594 196.297 405.363 196.082C405.141 195.871 404.879 195.719 404.582 195.621C404.289 195.52 403.965 195.469 403.598 195.469C403.152 195.469 402.754 195.551 402.41 195.711C402.066 195.863 401.773 196.109 401.539 196.449C401.309 196.789 401.133 197.234 401.008 197.785C400.887 198.336 400.828 199.004 400.828 199.793V202.512C400.828 203.137 400.863 203.691 400.938 204.172C401.02 204.652 401.141 205.07 401.293 205.422C401.449 205.766 401.641 206.051 401.863 206.277C402.086 206.5 402.344 206.664 402.633 206.777C402.93 206.879 403.258 206.93 403.617 206.93C404.078 206.93 404.48 206.848 404.824 206.68C405.172 206.512 405.457 206.254 405.688 205.902C405.922 205.543 406.102 205.086 406.215 204.527C406.332 203.965 406.387 203.293 406.387 202.512Z" fill="#EEEEF7"/>
<path d="M457.145 159.016H571.43V244.262H457.145V159.016Z" fill="white"/>
<path d="M507.77 194.133V208.195H505.891V196.352L502.105 197.66V196.055L507.473 194.133H507.77ZM519.457 194.133V208.195H517.578V196.352L513.793 197.66V196.055L519.16 194.133H519.457Z" fill="#172755"/>
<path d="M571.43 159.016H685.715V244.262H571.43V159.016Z" fill="white"/>
<path d="M622.055 194.133V208.195H620.176V196.352L616.391 197.66V196.055L621.758 194.133H622.055ZM637.25 206.734V208.195H627.582V206.918L632.422 201.816C633.02 201.191 633.477 200.66 633.801 200.223C634.133 199.781 634.363 199.387 634.492 199.043C634.625 198.691 634.695 198.332 634.695 197.969C634.695 197.508 634.594 197.09 634.391 196.719C634.195 196.34 633.906 196.039 633.52 195.816C633.133 195.594 632.668 195.48 632.117 195.48C631.461 195.48 630.914 195.602 630.473 195.844C630.043 196.082 629.719 196.414 629.5 196.844C629.285 197.273 629.176 197.766 629.176 198.324H627.297C627.297 197.535 627.48 196.816 627.848 196.16C628.211 195.508 628.754 194.988 629.469 194.605C630.188 194.215 631.07 194.02 632.117 194.02C633.051 194.02 633.848 194.176 634.512 194.488C635.176 194.797 635.684 195.234 636.035 195.797C636.395 196.352 636.574 197.008 636.574 197.754C636.574 198.164 636.5 198.582 636.352 199.004C636.207 199.418 636.008 199.836 635.75 200.254C635.5 200.668 635.207 201.078 634.867 201.48C634.535 201.887 634.184 202.285 633.801 202.672L629.848 206.734H637.25Z" fill="#172755"/>
<path d="M685.715 159.016H800V244.262H685.715V159.016Z" fill="white"/>
<path d="M736.34 194.133V208.195H734.461V196.352L730.676 197.66V196.055L736.047 194.133H736.34ZM744.598 200.328H745.938C746.594 200.328 747.133 200.227 747.559 200.023C747.992 199.812 748.316 199.527 748.523 199.168C748.742 198.805 748.848 198.395 748.848 197.938C748.848 197.398 748.754 196.949 748.566 196.582C748.375 196.219 748.09 195.941 747.711 195.758C747.332 195.57 746.855 195.48 746.273 195.48C745.742 195.48 745.277 195.578 744.871 195.777C744.473 195.969 744.156 196.246 743.93 196.602C743.707 196.961 743.594 197.383 743.594 197.871H741.715C741.715 197.16 741.906 196.512 742.285 195.93C742.664 195.348 743.195 194.883 743.879 194.539C744.566 194.191 745.367 194.02 746.273 194.02C747.164 194.02 747.945 194.168 748.617 194.469C749.285 194.766 749.805 195.207 750.18 195.797C750.551 196.379 750.734 197.105 750.734 197.977C750.734 198.328 750.648 198.707 750.473 199.109C750.305 199.508 750.035 199.879 749.672 200.223C749.312 200.57 748.844 200.855 748.27 201.078C747.695 201.297 747.008 201.406 746.199 201.406H744.598V200.328ZM744.598 201.789V200.723H746.199C747.141 200.723 747.918 200.828 748.535 201.039C749.148 201.254 749.633 201.535 749.984 201.887C750.344 202.238 750.594 202.625 750.734 203.047C750.887 203.465 750.961 203.879 750.961 204.297C750.961 204.949 750.84 205.531 750.605 206.035C750.375 206.539 750.047 206.969 749.621 207.324C749.199 207.676 748.707 207.941 748.137 208.121C747.57 208.297 746.953 208.387 746.281 208.387C745.641 208.387 745.035 208.301 744.465 208.129C743.906 207.957 743.406 207.707 742.977 207.379C742.543 207.047 742.203 206.641 741.961 206.16C741.715 205.672 741.594 205.121 741.594 204.5H743.473C743.473 204.984 743.582 205.41 743.805 205.777C744.035 206.141 744.363 206.426 744.781 206.633C745.207 206.828 745.707 206.93 746.281 206.93C746.855 206.93 747.352 206.836 747.762 206.652C748.184 206.457 748.504 206.172 748.727 205.785C748.957 205.402 749.07 204.918 749.07 204.336C749.07 203.754 748.945 203.277 748.688 202.902C748.43 202.527 748.062 202.246 747.59 202.07C747.125 201.883 746.574 201.789 745.938 201.789H744.598Z" fill="#172755"/>
<path d="M0 244.262H114.285V329.508H0V244.262Z" fill="white"/>
<path d="M50.625 279.379V293.441H48.7461V281.598L44.9648 282.906V281.301L50.332 279.379H50.625ZM66.1289 288.734V290.195H55.4531V289.148L62.0703 279.457H63.6016L61.957 282.262L57.5859 288.734H66.1289ZM64.0703 279.457V293.441H62.1914V279.457H64.0703Z" fill="#172755"/>
<path d="M114.285 244.262H228.57V329.508H114.285V244.262Z" fill="white"/>
<path d="M164.91 279.379V293.441H163.035V281.598L159.25 282.906V281.301L164.617 279.379H164.91ZM172.805 286.785L171.301 286.422L172.043 279.457H179.621V281.102H173.637L173.191 284.902C173.461 284.754 173.801 284.617 174.215 284.488C174.633 284.363 175.113 284.297 175.656 284.297C176.336 284.297 176.949 284.41 177.492 284.633C178.031 284.852 178.492 285.164 178.871 285.574C179.258 285.984 179.551 286.48 179.754 287.055C179.957 287.633 180.059 288.277 180.059 288.984C180.059 289.656 179.961 290.277 179.766 290.84C179.574 291.402 179.289 291.898 178.902 292.316C178.516 292.734 178.031 293.059 177.441 293.289C176.859 293.52 176.172 293.633 175.383 293.633C174.785 293.633 174.223 293.559 173.688 293.406C173.16 293.246 172.688 293.004 172.266 292.684C171.855 292.355 171.516 291.953 171.25 291.473C170.996 290.988 170.832 290.418 170.766 289.766H172.551C172.633 290.289 172.793 290.73 173.039 291.09C173.281 291.449 173.598 291.719 173.992 291.906C174.391 292.086 174.855 292.176 175.383 292.176C175.828 292.176 176.223 292.102 176.566 291.953C176.914 291.805 177.203 291.594 177.441 291.32C177.68 291.043 177.855 290.711 177.98 290.32C178.105 289.93 178.172 289.492 178.172 289.004C178.172 288.563 178.105 288.152 177.98 287.777C177.848 287.398 177.656 287.066 177.402 286.785C177.148 286.504 176.84 286.285 176.477 286.133C176.113 285.973 175.691 285.895 175.219 285.895C174.59 285.895 174.113 285.973 173.789 286.133C173.469 286.293 173.141 286.512 172.805 286.785Z" fill="#172755"/>
<path d="M228.57 244.262H342.855V329.508H228.57V244.262Z" fill="white"/>
<path d="M279.195 279.379V293.441H277.32V281.598L273.535 282.906V281.301L278.902 279.379H279.195ZM291.918 279.438H292.082V280.945H291.918C290.926 280.945 290.094 281.102 289.422 281.406C288.754 281.707 288.223 282.113 287.832 282.625C287.438 283.133 287.152 283.703 286.977 284.336C286.809 284.969 286.723 285.613 286.723 286.266V288.324C286.723 288.945 286.801 289.496 286.957 289.977C287.113 290.449 287.328 290.848 287.598 291.176C287.867 291.5 288.172 291.75 288.512 291.914C288.855 292.082 289.215 292.164 289.586 292.164C290.02 292.164 290.402 292.09 290.742 291.934C291.082 291.773 291.363 291.555 291.594 291.273C291.832 290.984 292.012 290.645 292.133 290.254C292.254 289.863 292.316 289.434 292.316 288.969C292.316 288.551 292.262 288.148 292.152 287.766C292.047 287.375 291.879 287.031 291.656 286.727C291.434 286.422 291.152 286.18 290.812 286.008C290.48 285.828 290.086 285.738 289.625 285.738C289.105 285.738 288.617 285.859 288.164 286.102C287.719 286.34 287.352 286.652 287.059 287.047C286.777 287.43 286.613 287.848 286.574 288.305L285.578 288.293C285.672 287.578 285.848 286.965 286.105 286.461C286.367 285.949 286.695 285.531 287.082 285.211C287.473 284.883 287.91 284.648 288.387 284.5C288.875 284.348 289.391 284.27 289.93 284.27C290.668 284.27 291.305 284.398 291.84 284.664C292.371 284.926 292.812 285.277 293.156 285.719C293.5 286.156 293.754 286.648 293.918 287.199C294.086 287.742 294.172 288.305 294.172 288.879C294.172 289.539 294.074 290.156 293.879 290.734C293.68 291.309 293.387 291.816 292.996 292.25C292.609 292.688 292.133 293.027 291.562 293.27C290.996 293.512 290.336 293.633 289.586 293.633C288.789 293.633 288.09 293.48 287.496 293.172C286.902 292.859 286.406 292.445 286.016 291.926C285.621 291.406 285.328 290.828 285.133 290.195C284.934 289.563 284.84 288.918 284.84 288.266V287.43C284.84 286.441 284.941 285.477 285.152 284.527C285.359 283.582 285.723 282.723 286.238 281.953C286.758 281.184 287.48 280.574 288.398 280.121C289.316 279.664 290.492 279.438 291.918 279.438Z" fill="#172755"/>
<path d="M342.855 244.262H457.145V329.508H342.855V244.262Z" fill="white"/>
<path d="M393.48 279.379V293.441H391.605V281.598L387.82 282.906V281.301L393.188 279.379H393.48ZM408.551 279.457V280.457L402.43 293.441H400.453L406.562 280.918H398.566V279.457H408.551Z" fill="#172755"/>
<path d="M457.145 244.262H571.43V329.508H457.145V244.262Z" fill="white"/>
<path d="M547.188 286.066C547.188 303.719 532.07 318.031 513.418 318.031C494.77 318.031 479.652 303.719 479.652 286.066C479.652 268.41 494.77 254.098 513.418 254.098C532.07 254.098 547.188 268.41 547.188 286.066Z" fill="#FF7514"/>
<path d="M507.77 279.379V293.441H505.891V281.598L502.105 282.906V281.301L507.473 279.379H507.77ZM522.602 289.656C522.602 290.512 522.391 291.234 521.973 291.828C521.559 292.418 520.996 292.867 520.289 293.172C519.586 293.48 518.789 293.633 517.902 293.633C517.02 293.633 516.219 293.48 515.508 293.172C514.797 292.867 514.238 292.418 513.824 291.828C513.414 291.234 513.207 290.512 513.207 289.656C513.207 289.102 513.316 288.594 513.543 288.133C513.77 287.664 514.09 287.258 514.504 286.91C514.926 286.566 515.418 286.301 515.984 286.113C516.562 285.922 517.191 285.828 517.883 285.828C518.789 285.828 519.598 285.992 520.309 286.324C521.02 286.652 521.574 287.102 521.984 287.68C522.395 288.254 522.602 288.914 522.602 289.656ZM520.715 289.621C520.715 289.102 520.594 288.645 520.359 288.246C520.121 287.844 519.789 287.531 519.363 287.305C518.938 287.082 518.445 286.969 517.883 286.969C517.309 286.969 516.809 287.082 516.391 287.305C515.98 287.531 515.656 287.844 515.43 288.246C515.199 288.645 515.082 289.102 515.082 289.621C515.082 290.156 515.195 290.617 515.418 291.004C515.648 291.379 515.973 291.672 516.391 291.879C516.816 292.074 517.32 292.176 517.902 292.176C518.484 292.176 518.984 292.074 519.406 291.879C519.824 291.672 520.145 291.379 520.367 291.004C520.598 290.617 520.715 290.156 520.715 289.621ZM522.258 283.098C522.258 283.777 522.066 284.387 521.688 284.934C521.309 285.477 520.793 285.906 520.137 286.219C519.48 286.531 518.734 286.691 517.902 286.691C517.059 286.691 516.305 286.531 515.641 286.219C514.984 285.906 514.473 285.477 514.098 284.934C513.727 284.387 513.543 283.777 513.543 283.098C513.543 282.285 513.727 281.594 514.098 281.023C514.477 280.453 514.996 280.02 515.652 279.715C516.305 279.414 517.055 279.266 517.895 279.266C518.738 279.266 519.488 279.414 520.145 279.715C520.801 280.02 521.316 280.453 521.688 281.023C522.066 281.594 522.258 282.285 522.258 283.098ZM520.379 283.125C520.379 282.66 520.273 282.246 520.062 281.887C519.855 281.527 519.563 281.246 519.191 281.043C518.82 280.832 518.387 280.723 517.895 280.723C517.398 280.723 516.965 280.824 516.594 281.023C516.23 281.215 515.941 281.488 515.73 281.848C515.527 282.207 515.43 282.633 515.43 283.125C515.43 283.605 515.527 284.027 515.73 284.387C515.941 284.742 516.23 285.02 516.605 285.219C516.977 285.418 517.41 285.52 517.902 285.52C518.398 285.52 518.824 285.418 519.191 285.219C519.563 285.02 519.855 284.742 520.062 284.387C520.273 284.027 520.379 283.605 520.379 283.125Z" fill="#EEEEF7"/>
<path d="M571.43 244.262H685.715V329.508H571.43V244.262Z" fill="white"/>
<path d="M622.055 279.379V293.441H620.176V281.598L616.391 282.906V281.301L621.758 279.379H622.055ZM629.438 291.953H629.633C630.715 291.953 631.594 291.809 632.27 291.52C632.945 291.234 633.469 290.848 633.832 290.359C634.199 289.871 634.449 289.324 634.582 288.715C634.719 288.102 634.785 287.469 634.785 286.824V284.684C634.785 284.051 634.707 283.484 634.555 282.992C634.406 282.5 634.195 282.086 633.922 281.754C633.66 281.418 633.359 281.168 633.023 280.992C632.684 280.82 632.324 280.734 631.945 280.734C631.512 280.734 631.125 280.816 630.777 280.984C630.441 281.145 630.152 281.371 629.918 281.664C629.687 281.961 629.512 282.305 629.391 282.703C629.266 283.102 629.207 283.531 629.207 284C629.207 284.418 629.262 284.82 629.367 285.211C629.477 285.602 629.645 285.953 629.863 286.266C630.09 286.582 630.367 286.832 630.699 287.016C631.035 287.195 631.434 287.285 631.887 287.285C632.305 287.285 632.695 287.207 633.062 287.055C633.434 286.895 633.762 286.68 634.047 286.41C634.336 286.137 634.566 285.828 634.734 285.48C634.914 285.133 635.012 284.773 635.039 284.395H635.934C635.934 284.926 635.82 285.449 635.598 285.969C635.383 286.48 635.078 286.949 634.688 287.371C634.293 287.797 633.832 288.133 633.305 288.391C632.777 288.641 632.203 288.766 631.582 288.766C630.852 288.766 630.219 288.629 629.684 288.359C629.148 288.094 628.711 287.734 628.363 287.285C628.027 286.836 627.773 286.336 627.602 285.785C627.441 285.23 627.359 284.664 627.359 284.098C627.359 283.43 627.457 282.805 627.652 282.223C627.848 281.641 628.141 281.129 628.527 280.688C628.914 280.238 629.391 279.887 629.957 279.641C630.531 279.391 631.195 279.266 631.945 279.266C632.793 279.266 633.512 279.426 634.105 279.746C634.703 280.066 635.187 280.496 635.559 281.031C635.937 281.57 636.215 282.176 636.391 282.848C636.566 283.52 636.652 284.211 636.652 284.922V285.566C636.652 286.289 636.602 287.027 636.504 287.777C636.406 288.52 636.219 289.23 635.941 289.906C635.672 290.586 635.277 291.195 634.758 291.734C634.234 292.266 633.555 292.688 632.719 293C631.887 293.309 630.855 293.461 629.633 293.461H629.438V291.953Z" fill="#172755"/>
<path d="M685.715 244.262H800V329.508H685.715V244.262Z" fill="white"/>
<path d="M739.848 291.98V293.441H730.18V292.164L735.02 287.062C735.617 286.438 736.074 285.906 736.398 285.469C736.73 285.027 736.961 284.633 737.09 284.289C737.223 283.938 737.293 283.578 737.293 283.215C737.293 282.754 737.191 282.336 736.988 281.965C736.793 281.586 736.5 281.285 736.117 281.062C735.73 280.836 735.266 280.723 734.715 280.723C734.059 280.723 733.512 280.848 733.07 281.09C732.641 281.328 732.313 281.66 732.098 282.09C731.879 282.52 731.773 283.012 731.773 283.57H729.895C729.895 282.781 730.078 282.062 730.441 281.406C730.809 280.754 731.352 280.234 732.066 279.852C732.785 279.461 733.668 279.266 734.715 279.266C735.648 279.266 736.445 279.422 737.109 279.734C737.773 280.043 738.281 280.48 738.633 281.043C738.992 281.598 739.168 282.254 739.168 283C739.168 283.41 739.098 283.828 738.945 284.25C738.805 284.664 738.605 285.082 738.348 285.5C738.098 285.914 737.801 286.324 737.465 286.727C737.133 287.133 736.777 287.531 736.398 287.918L732.441 291.98H739.848ZM751.133 285.336V287.469C751.133 288.613 751.023 289.582 750.809 290.367C750.59 291.156 750.277 291.789 749.875 292.27C749.469 292.75 748.977 293.102 748.402 293.316C747.832 293.531 747.191 293.633 746.473 293.633C745.906 293.633 745.383 293.566 744.902 293.434C744.422 293.297 743.988 293.082 743.602 292.789C743.223 292.488 742.902 292.098 742.629 291.617C742.359 291.137 742.152 290.555 742.012 289.867C741.867 289.184 741.797 288.383 741.797 287.469V285.336C741.797 284.187 741.906 283.23 742.121 282.453C742.344 281.68 742.66 281.059 743.066 280.59C743.473 280.117 743.957 279.777 744.527 279.57C745.102 279.367 745.742 279.266 746.457 279.266C747.031 279.266 747.559 279.332 748.039 279.469C748.523 279.594 748.957 279.805 749.336 280.09C749.715 280.371 750.035 280.75 750.301 281.223C750.57 281.691 750.777 282.266 750.918 282.945C751.062 283.621 751.133 284.418 751.133 285.336ZM749.246 287.754V285.039C749.246 284.41 749.203 283.859 749.125 283.387C749.051 282.906 748.938 282.496 748.789 282.156C748.641 281.816 748.449 281.539 748.219 281.328C747.996 281.117 747.738 280.965 747.438 280.867C747.148 280.766 746.82 280.715 746.457 280.715C746.008 280.715 745.613 280.797 745.266 280.957C744.922 281.109 744.633 281.355 744.395 281.695C744.164 282.035 743.988 282.48 743.867 283.031C743.746 283.582 743.684 284.25 743.684 285.039V287.754C743.684 288.383 743.723 288.937 743.797 289.418C743.879 289.898 743.996 290.316 744.152 290.668C744.305 291.012 744.496 291.297 744.719 291.52C744.941 291.746 745.199 291.91 745.492 292.02C745.789 292.121 746.117 292.176 746.473 292.176C746.934 292.176 747.336 292.094 747.68 291.926C748.027 291.758 748.316 291.5 748.547 291.148C748.781 290.789 748.957 290.332 749.07 289.773C749.188 289.211 749.246 288.539 749.246 287.754Z" fill="#172755"/>
<path d="M0 329.508H114.285V414.754H0V329.508Z" fill="white"/>
<path d="M54.1367 377.227V378.688H44.4648V377.41L49.3047 372.309C49.9023 371.684 50.3594 371.152 50.6836 370.715C51.0156 370.273 51.2461 369.879 51.375 369.535C51.5117 369.184 51.5781 368.824 51.5781 368.461C51.5781 368 51.4766 367.582 51.2734 367.211C51.0781 366.832 50.7852 366.531 50.4023 366.305C50.0156 366.082 49.5508 365.969 49 365.969C48.3438 365.969 47.7969 366.094 47.3594 366.336C46.9258 366.57 46.6016 366.906 46.3828 367.336C46.168 367.766 46.0586 368.258 46.0586 368.816H44.1836C44.1836 368.027 44.3633 367.305 44.7305 366.652C45.0937 366 45.6367 365.48 46.3516 365.098C47.0703 364.707 47.9531 364.512 49 364.512C49.9336 364.512 50.7344 364.668 51.3945 364.98C52.0586 365.289 52.5664 365.723 52.918 366.289C53.2773 366.844 53.457 367.5 53.457 368.246C53.457 368.656 53.3828 369.074 53.2305 369.496C53.0898 369.91 52.8906 370.328 52.6328 370.746C52.3828 371.16 52.0898 371.57 51.75 371.973C51.418 372.379 51.0625 372.777 50.6836 373.164L46.7305 377.227H54.1367ZM62.3125 364.625V378.688H60.4375V366.844L56.6523 368.152V366.547L62.0195 364.625H62.3125Z" fill="#172755"/>
<path d="M114.285 329.508H228.57V414.754H114.285V329.508Z" fill="white"/>
<path d="M168.422 377.227V378.688H158.75V377.41L163.59 372.309C164.187 371.684 164.648 371.152 164.973 370.715C165.301 370.273 165.531 369.879 165.66 369.535C165.797 369.184 165.863 368.824 165.863 368.461C165.863 368 165.762 367.582 165.559 367.211C165.363 366.832 165.074 366.531 164.688 366.305C164.301 366.082 163.836 365.969 163.285 365.969C162.633 365.969 162.082 366.094 161.645 366.336C161.211 366.57 160.887 366.906 160.668 367.336C160.453 367.766 160.344 368.258 160.344 368.816H158.469C158.469 368.027 158.648 367.305 159.016 366.652C159.379 366 159.922 365.48 160.641 365.098C161.355 364.707 162.238 364.512 163.285 364.512C164.219 364.512 165.02 364.668 165.68 364.98C166.344 365.289 166.852 365.723 167.203 366.289C167.562 366.844 167.742 367.5 167.742 368.246C167.742 368.656 167.668 369.074 167.52 369.496C167.375 369.91 167.176 370.328 166.918 370.746C166.668 371.16 166.375 371.57 166.035 371.973C165.707 372.379 165.352 372.777 164.973 373.164L161.016 377.227H168.422ZM180.109 377.227V378.688H170.441V377.41L175.281 372.309C175.875 371.684 176.336 371.152 176.66 370.715C176.992 370.273 177.223 369.879 177.348 369.535C177.484 369.184 177.555 368.824 177.555 368.461C177.555 368 177.449 367.582 177.25 367.211C177.051 366.832 176.762 366.531 176.375 366.305C175.988 366.082 175.523 365.969 174.977 365.969C174.32 365.969 173.77 366.094 173.332 366.336C172.898 366.57 172.574 366.906 172.359 367.336C172.141 367.766 172.031 368.258 172.031 368.816H170.156C170.156 368.027 170.34 367.305 170.703 366.652C171.07 366 171.609 365.48 172.328 365.098C173.043 364.707 173.926 364.512 174.977 364.512C175.91 364.512 176.707 364.668 177.371 364.98C178.031 365.289 178.539 365.723 178.891 366.289C179.25 366.844 179.43 367.5 179.43 368.246C179.43 368.656 179.355 369.074 179.207 369.496C179.066 369.91 178.863 370.328 178.609 370.746C178.355 371.16 178.063 371.57 177.727 371.973C177.395 372.379 177.039 372.777 176.66 373.164L172.703 377.227H180.109Z" fill="#172755"/>
<path d="M228.57 329.508H342.855V414.754H228.57V329.508Z" fill="white"/>
<path d="M282.707 377.227V378.688H273.039V377.41L277.879 372.309C278.473 371.684 278.93 371.152 279.258 370.715C279.586 370.273 279.816 369.879 279.945 369.535C280.082 369.184 280.152 368.824 280.152 368.461C280.152 368 280.047 367.582 279.848 367.211C279.648 366.832 279.359 366.531 278.973 366.305C278.586 366.082 278.121 365.969 277.574 365.969C276.918 365.969 276.367 366.094 275.93 366.336C275.496 366.57 275.172 366.906 274.957 367.336C274.738 367.766 274.629 368.258 274.629 368.816H272.754C272.754 368.027 272.938 367.305 273.301 366.652C273.664 366 274.207 365.48 274.926 365.098C275.641 364.707 276.523 364.512 277.574 364.512C278.504 364.512 279.305 364.668 279.969 364.98C280.629 365.289 281.137 365.723 281.488 366.289C281.848 366.844 282.027 367.5 282.027 368.246C282.027 368.656 281.953 369.074 281.805 369.496C281.664 369.91 281.461 370.328 281.207 370.746C280.953 371.16 280.66 371.57 280.32 371.973C279.992 372.379 279.637 372.777 279.258 373.164L275.301 377.227H282.707ZM287.453 370.82H288.793C289.449 370.82 289.992 370.719 290.418 370.516C290.852 370.305 291.172 370.02 291.383 369.66C291.598 369.297 291.707 368.887 291.707 368.43C291.707 367.891 291.613 367.441 291.422 367.074C291.234 366.711 290.949 366.434 290.57 366.25C290.191 366.062 289.711 365.969 289.129 365.969C288.602 365.969 288.137 366.07 287.73 366.27C287.328 366.461 287.016 366.734 286.785 367.094C286.563 367.453 286.449 367.875 286.449 368.363H284.574C284.574 367.652 284.762 367.004 285.141 366.422C285.52 365.84 286.051 365.375 286.734 365.031C287.426 364.684 288.223 364.512 289.129 364.512C290.023 364.512 290.805 364.66 291.473 364.961C292.141 365.258 292.664 365.699 293.035 366.289C293.406 366.871 293.594 367.598 293.594 368.469C293.594 368.82 293.504 369.199 293.328 369.602C293.16 370 292.895 370.371 292.527 370.715C292.168 371.062 291.703 371.348 291.129 371.57C290.551 371.789 289.863 371.898 289.059 371.898H287.453V370.82ZM287.453 372.281V371.215H289.059C290 371.215 290.777 371.32 291.391 371.531C292.008 371.746 292.492 372.027 292.844 372.379C293.203 372.73 293.449 373.117 293.594 373.539C293.742 373.957 293.816 374.371 293.816 374.789C293.816 375.441 293.699 376.02 293.461 376.527C293.23 377.031 292.902 377.461 292.477 377.816C292.059 378.168 291.562 378.434 290.996 378.613C290.426 378.789 289.809 378.879 289.141 378.879C288.496 378.879 287.891 378.793 287.324 378.621C286.762 378.449 286.266 378.199 285.832 377.871C285.398 377.539 285.059 377.133 284.816 376.652C284.574 376.164 284.453 375.613 284.453 374.988H286.328C286.328 375.477 286.441 375.902 286.664 376.266C286.895 376.633 287.219 376.918 287.637 377.121C288.062 377.32 288.566 377.422 289.141 377.422C289.715 377.422 290.207 377.328 290.621 377.145C291.039 376.949 291.359 376.664 291.586 376.277C291.816 375.895 291.93 375.41 291.93 374.828C291.93 374.246 291.801 373.766 291.543 373.395C291.285 373.02 290.922 372.738 290.449 372.562C289.98 372.375 289.43 372.281 288.793 372.281H287.453Z" fill="#172755"/>
<path d="M342.855 329.508H457.145V414.754H342.855V329.508Z" fill="white"/>
<path d="M396.992 377.227V378.688H387.324V377.41L392.164 372.309C392.758 371.684 393.219 371.152 393.543 370.715C393.875 370.273 394.105 369.879 394.23 369.535C394.367 369.184 394.438 368.824 394.438 368.461C394.438 368 394.336 367.582 394.133 367.211C393.934 366.832 393.645 366.531 393.258 366.305C392.871 366.082 392.406 365.969 391.859 365.969C391.203 365.969 390.656 366.094 390.215 366.336C389.781 366.57 389.457 366.906 389.242 367.336C389.023 367.766 388.918 368.258 388.918 368.816H387.039C387.039 368.027 387.223 367.305 387.586 366.652C387.953 366 388.492 365.48 389.211 365.098C389.926 364.707 390.809 364.512 391.859 364.512C392.793 364.512 393.59 364.668 394.254 364.98C394.918 365.289 395.422 365.723 395.773 366.289C396.133 366.844 396.312 367.5 396.312 368.246C396.312 368.656 396.238 369.074 396.09 369.496C395.949 369.91 395.746 370.328 395.492 370.746C395.238 371.16 394.945 371.57 394.609 371.973C394.277 372.379 393.922 372.777 393.543 373.164L389.586 377.227H396.992ZM408.984 373.98V375.441H398.312V374.395L404.926 364.703H406.457L404.816 367.508L400.441 373.98H408.984ZM406.926 364.703V378.688H405.047V364.703H406.926Z" fill="#172755"/>
<path d="M457.145 329.508H571.43V414.754H457.145V329.508Z" fill="white"/>
<path d="M511.277 377.227V378.688H501.609V377.41L506.449 372.309C507.043 371.684 507.504 371.152 507.828 370.715C508.16 370.273 508.391 369.879 508.52 369.535C508.652 369.184 508.723 368.824 508.723 368.461C508.723 368 508.621 367.582 508.418 367.211C508.219 366.832 507.93 366.531 507.543 366.305C507.16 366.082 506.691 365.969 506.145 365.969C505.488 365.969 504.941 366.094 504.5 366.336C504.066 366.57 503.742 366.906 503.527 367.336C503.312 367.766 503.203 368.258 503.203 368.816H501.324C501.324 368.027 501.508 367.305 501.871 366.652C502.238 366 502.777 365.48 503.496 365.098C504.215 364.707 505.098 364.512 506.145 364.512C507.078 364.512 507.875 364.668 508.539 364.98C509.203 365.289 509.711 365.723 510.062 366.289C510.418 366.844 510.598 367.5 510.598 368.246C510.598 368.656 510.523 369.074 510.375 369.496C510.234 369.91 510.031 370.328 509.777 370.746C509.527 371.16 509.23 371.57 508.895 371.973C508.563 372.379 508.207 372.777 507.828 373.164L503.871 377.227H511.277ZM515.66 372.031L514.16 371.668L514.902 364.703H522.48V366.348H516.492L516.047 370.148C516.316 370 516.66 369.863 517.07 369.734C517.492 369.609 517.969 369.543 518.512 369.543C519.195 369.543 519.809 369.656 520.348 369.879C520.891 370.098 521.352 370.41 521.727 370.82C522.113 371.23 522.41 371.723 522.609 372.301C522.812 372.879 522.918 373.52 522.918 374.23C522.918 374.902 522.816 375.52 522.621 376.086C522.434 376.648 522.145 377.145 521.758 377.562C521.375 377.98 520.887 378.305 520.297 378.535C519.715 378.766 519.031 378.879 518.238 378.879C517.645 378.879 517.078 378.805 516.543 378.652C516.016 378.488 515.543 378.25 515.125 377.93C514.711 377.602 514.371 377.199 514.109 376.719C513.852 376.234 513.691 375.664 513.621 375.012H515.406C515.488 375.535 515.652 375.977 515.895 376.336C516.137 376.695 516.457 376.965 516.848 377.152C517.246 377.332 517.711 377.422 518.238 377.422C518.684 377.422 519.082 377.348 519.426 377.199C519.77 377.051 520.062 376.84 520.297 376.566C520.535 376.289 520.715 375.957 520.836 375.566C520.965 375.176 521.027 374.738 521.027 374.25C521.027 373.809 520.965 373.398 520.836 373.02C520.707 372.645 520.516 372.312 520.258 372.031C520.008 371.75 519.699 371.531 519.332 371.379C518.969 371.219 518.551 371.141 518.078 371.141C517.449 371.141 516.969 371.219 516.645 371.379C516.328 371.539 516 371.754 515.66 372.031Z" fill="#172755"/>
<path d="M571.43 329.508H685.715V414.754H571.43V329.508Z" fill="white"/>
<path d="M625.562 377.227V378.688H615.895V377.41L620.734 372.309C621.328 371.684 621.789 371.152 622.113 370.715C622.445 370.273 622.676 369.879 622.805 369.535C622.937 369.184 623.008 368.824 623.008 368.461C623.008 368 622.906 367.582 622.703 367.211C622.504 366.832 622.215 366.531 621.832 366.305C621.445 366.082 620.977 365.969 620.43 365.969C619.773 365.969 619.227 366.094 618.785 366.336C618.352 366.57 618.031 366.906 617.812 367.336C617.598 367.766 617.488 368.258 617.488 368.816H615.609C615.609 368.027 615.793 367.305 616.156 366.652C616.523 366 617.066 365.48 617.781 365.098C618.5 364.707 619.383 364.512 620.43 364.512C621.363 364.512 622.16 364.668 622.824 364.98C623.488 365.289 623.996 365.723 624.348 366.289C624.703 366.844 624.887 367.5 624.887 368.246C624.887 368.656 624.809 369.074 624.66 369.496C624.52 369.91 624.32 370.328 624.062 370.746C623.812 371.16 623.516 371.57 623.18 371.973C622.848 372.379 622.492 372.777 622.113 373.164L618.156 377.227H625.562ZM634.777 364.684H634.938V366.191H634.777C633.781 366.191 632.949 366.348 632.281 366.652C631.609 366.953 631.082 367.359 630.688 367.871C630.297 368.379 630.012 368.949 629.836 369.582C629.664 370.215 629.582 370.859 629.582 371.512V373.57C629.582 374.191 629.66 374.742 629.816 375.223C629.969 375.695 630.184 376.094 630.453 376.422C630.727 376.746 631.027 376.996 631.367 377.16C631.711 377.328 632.07 377.41 632.441 377.41C632.875 377.41 633.262 377.336 633.602 377.18C633.938 377.02 634.223 376.801 634.453 376.52C634.688 376.23 634.867 375.891 634.988 375.5C635.113 375.109 635.172 374.68 635.172 374.215C635.172 373.797 635.117 373.395 635.008 373.012C634.902 372.621 634.734 372.277 634.512 371.973C634.289 371.668 634.008 371.426 633.672 371.254C633.34 371.074 632.945 370.984 632.484 370.984C631.961 370.984 631.477 371.105 631.023 371.348C630.578 371.586 630.207 371.898 629.918 372.293C629.633 372.676 629.469 373.094 629.43 373.551L628.434 373.539C628.531 372.824 628.707 372.211 628.961 371.703C629.227 371.195 629.551 370.777 629.938 370.457C630.328 370.129 630.766 369.895 631.246 369.746C631.734 369.594 632.246 369.516 632.789 369.516C633.527 369.516 634.16 369.645 634.695 369.91C635.23 370.172 635.668 370.523 636.016 370.965C636.359 371.402 636.613 371.895 636.777 372.445C636.945 372.988 637.027 373.551 637.027 374.125C637.027 374.785 636.93 375.402 636.734 375.98C636.539 376.555 636.246 377.062 635.852 377.496C635.465 377.934 634.988 378.273 634.422 378.516C633.852 378.758 633.191 378.879 632.441 378.879C631.645 378.879 630.945 378.727 630.352 378.418C629.758 378.105 629.266 377.691 628.871 377.172C628.48 376.652 628.184 376.074 627.988 375.441C627.793 374.809 627.695 374.164 627.695 373.512V372.676C627.695 371.688 627.801 370.723 628.008 369.773C628.219 368.828 628.582 367.969 629.094 367.199C629.617 366.43 630.336 365.82 631.254 365.367C632.176 364.91 633.348 364.684 634.777 364.684Z" fill="#172755"/>
<path d="M685.715 329.508H800V414.754H685.715V329.508Z" fill="white"/>
<path d="M739.848 377.227V378.688H730.18V377.41L735.02 372.309C735.617 371.684 736.074 371.152 736.398 370.715C736.73 370.273 736.961 369.879 737.09 369.535C737.223 369.184 737.293 368.824 737.293 368.461C737.293 368 737.191 367.582 736.988 367.211C736.793 366.832 736.5 366.531 736.117 366.305C735.73 366.082 735.266 365.969 734.715 365.969C734.059 365.969 733.512 366.094 733.07 366.336C732.641 366.57 732.313 366.906 732.098 367.336C731.879 367.766 731.773 368.258 731.773 368.816H729.895C729.895 368.027 730.078 367.305 730.441 366.652C730.809 366 731.352 365.48 732.066 365.098C732.785 364.707 733.668 364.512 734.715 364.512C735.648 364.512 736.445 364.668 737.109 364.98C737.773 365.289 738.281 365.723 738.633 366.289C738.992 366.844 739.168 367.5 739.168 368.246C739.168 368.656 739.098 369.074 738.945 369.496C738.805 369.91 738.605 370.328 738.348 370.746C738.098 371.16 737.801 371.57 737.465 371.973C737.133 372.379 736.777 372.777 736.398 373.164L732.441 377.227H739.848ZM751.406 364.703V365.703L745.289 378.688H743.309L749.418 366.164H741.422V364.703H751.406Z" fill="#172755"/>
<path d="M0 414.754H114.285V500H0V414.754Z" fill="white"/>
<path d="M54.1367 462.473V463.934H44.4648V462.656L49.3047 457.555C49.9023 456.93 50.3594 456.398 50.6836 455.961C51.0156 455.52 51.2461 455.125 51.375 454.781C51.5117 454.43 51.5781 454.07 51.5781 453.703C51.5781 453.246 51.4766 452.828 51.2734 452.457C51.0781 452.078 50.7852 451.777 50.4023 451.551C50.0156 451.328 49.5508 451.215 49 451.215C48.3438 451.215 47.7969 451.336 47.3594 451.582C46.9258 451.816 46.6016 452.152 46.3828 452.582C46.168 453.012 46.0586 453.504 46.0586 454.062H44.1836C44.1836 453.273 44.3633 452.551 44.7305 451.898C45.0937 451.246 45.6367 450.727 46.3516 450.344C47.0703 449.953 47.9531 449.758 49 449.758C49.9336 449.758 50.7344 449.914 51.3945 450.227C52.0586 450.535 52.5664 450.969 52.918 451.535C53.2773 452.09 53.457 452.746 53.457 453.492C53.457 453.902 53.3828 454.32 53.2305 454.742C53.0898 455.156 52.8906 455.574 52.6328 455.988C52.3828 456.406 52.0898 456.816 51.75 457.219C51.418 457.621 51.0625 458.02 50.6836 458.41L46.7305 462.473H54.1367ZM65.457 460.148C65.457 461 65.25 461.723 64.8281 462.32C64.418 462.91 63.8555 463.355 63.1445 463.664C62.4414 463.973 61.6484 464.125 60.7617 464.125C59.875 464.125 59.0781 463.973 58.3672 463.664C57.6562 463.355 57.0937 462.91 56.6836 462.32C56.2695 461.723 56.0625 461 56.0625 460.148C56.0625 459.594 56.1758 459.082 56.3984 458.621C56.6289 458.156 56.9492 457.75 57.3633 457.402C57.7813 457.059 58.2734 456.793 58.8438 456.605C59.418 456.414 60.0508 456.316 60.7422 456.316C61.6484 456.316 62.4531 456.484 63.1641 456.816C63.875 457.145 64.4336 457.594 64.8398 458.172C65.25 458.746 65.457 459.406 65.457 460.148ZM63.5703 460.113C63.5703 459.594 63.4531 459.133 63.2148 458.738C62.9805 458.336 62.6484 458.02 62.2227 457.797C61.7969 457.57 61.3008 457.461 60.7422 457.461C60.1641 457.461 59.668 457.57 59.25 457.797C58.8359 458.02 58.5156 458.336 58.2852 458.738C58.0547 459.133 57.9414 459.594 57.9414 460.113C57.9414 460.648 58.0508 461.109 58.2734 461.496C58.5039 461.871 58.8281 462.164 59.25 462.367C59.6758 462.566 60.1797 462.668 60.7617 462.668C61.3437 462.668 61.8437 462.566 62.2617 462.367C62.6836 462.164 63.0039 461.871 63.2266 461.496C63.457 461.109 63.5703 460.648 63.5703 460.113ZM65.1133 453.59C65.1133 454.27 64.9258 454.879 64.5469 455.426C64.168 455.969 63.6484 456.398 62.9922 456.711C62.3359 457.023 61.5937 457.184 60.7617 457.184C59.9141 457.184 59.1602 457.023 58.5 456.711C57.8438 456.398 57.3281 455.969 56.957 455.426C56.582 454.879 56.3984 454.27 56.3984 453.59C56.3984 452.777 56.582 452.082 56.957 451.516C57.3359 450.945 57.8516 450.512 58.5078 450.207C59.1641 449.906 59.9102 449.758 60.75 449.758C61.5977 449.758 62.3477 449.906 63.0039 450.207C63.6602 450.512 64.1719 450.945 64.5469 451.516C64.9258 452.082 65.1133 452.777 65.1133 453.59ZM63.2383 453.617C63.2383 453.152 63.1328 452.738 62.9219 452.379C62.7109 452.02 62.4219 451.738 62.0508 451.535C61.6758 451.324 61.2461 451.215 60.75 451.215C60.2578 451.215 59.8242 451.316 59.4531 451.516C59.0859 451.707 58.8008 451.98 58.5898 452.34C58.3867 452.699 58.2852 453.125 58.2852 453.617C58.2852 454.098 58.3867 454.52 58.5898 454.879C58.8008 455.234 59.0898 455.512 59.4609 455.711C59.832 455.91 60.2656 456.012 60.7617 456.012C61.2539 456.012 61.6836 455.91 62.0508 455.711C62.4219 455.512 62.7109 455.234 62.9219 454.879C63.1328 454.52 63.2383 454.098 63.2383 453.617Z" fill="#172755"/>
<path d="M114.285 414.754H228.57V500H114.285V414.754Z" fill="white"/>
<path d="M168.422 462.473V463.934H158.75V462.656L163.59 457.555C164.187 456.93 164.648 456.398 164.973 455.961C165.301 455.52 165.531 455.125 165.66 454.781C165.797 454.43 165.863 454.07 165.863 453.703C165.863 453.246 165.762 452.828 165.559 452.457C165.363 452.078 165.074 451.777 164.688 451.551C164.301 451.328 163.836 451.215 163.285 451.215C162.633 451.215 162.082 451.336 161.645 451.582C161.211 451.816 160.887 452.152 160.668 452.582C160.453 453.012 160.344 453.504 160.344 454.062H158.469C158.469 453.273 158.648 452.551 159.016 451.898C159.379 451.246 159.922 450.727 160.641 450.344C161.355 449.953 162.238 449.758 163.285 449.758C164.219 449.758 165.02 449.914 165.68 450.227C166.344 450.535 166.852 450.969 167.203 451.535C167.562 452.09 167.742 452.746 167.742 453.492C167.742 453.902 167.668 454.32 167.52 454.742C167.375 455.156 167.176 455.574 166.918 455.988C166.668 456.406 166.375 456.816 166.035 457.219C165.707 457.621 165.352 458.02 164.973 458.41L161.016 462.473H168.422ZM172.297 462.445H172.488C173.574 462.445 174.453 462.301 175.129 462.012C175.805 461.723 176.324 461.336 176.691 460.852C177.055 460.363 177.305 459.816 177.441 459.207C177.574 458.594 177.645 457.961 177.645 457.316V455.172C177.645 454.539 177.566 453.977 177.41 453.484C177.262 452.988 177.051 452.578 176.781 452.246C176.52 451.91 176.215 451.66 175.879 451.484C175.539 451.312 175.18 451.227 174.805 451.227C174.371 451.227 173.98 451.309 173.637 451.477C173.297 451.637 173.012 451.863 172.773 452.156C172.543 452.453 172.367 452.797 172.246 453.195C172.125 453.594 172.062 454.023 172.062 454.492C172.062 454.906 172.117 455.312 172.227 455.703C172.336 456.094 172.5 456.445 172.723 456.758C172.945 457.07 173.223 457.324 173.555 457.508C173.895 457.688 174.289 457.777 174.742 457.777C175.16 457.777 175.555 457.699 175.918 457.547C176.289 457.387 176.617 457.172 176.902 456.902C177.195 456.629 177.422 456.316 177.594 455.973C177.77 455.625 177.871 455.266 177.898 454.887H178.789C178.789 455.418 178.68 455.941 178.457 456.461C178.238 456.973 177.934 457.441 177.543 457.863C177.148 458.285 176.691 458.625 176.164 458.883C175.633 459.133 175.059 459.254 174.438 459.254C173.707 459.254 173.074 459.121 172.539 458.852C172.008 458.582 171.566 458.227 171.223 457.777C170.883 457.328 170.629 456.828 170.461 456.277C170.297 455.723 170.215 455.156 170.215 454.59C170.215 453.922 170.316 453.297 170.512 452.715C170.707 452.133 171 451.621 171.383 451.18C171.77 450.73 172.246 450.379 172.812 450.133C173.391 449.883 174.051 449.758 174.805 449.758C175.648 449.758 176.367 449.918 176.965 450.238C177.559 450.559 178.043 450.988 178.414 451.523C178.793 452.062 179.07 452.668 179.246 453.34C179.422 454.012 179.512 454.703 179.512 455.414V456.059C179.512 456.781 179.461 457.52 179.359 458.266C179.266 459.012 179.078 459.723 178.801 460.398C178.531 461.078 178.133 461.688 177.613 462.223C177.094 462.754 176.414 463.18 175.574 463.492C174.742 463.801 173.715 463.953 172.488 463.953H172.297V462.445Z" fill="#172755"/>
<path d="M228.57 414.754H342.855V500H228.57V414.754Z" fill="white"/>
<path d="M275.766 456.066H277.105C277.762 456.066 278.305 455.965 278.73 455.762C279.16 455.551 279.484 455.266 279.695 454.906C279.91 454.539 280.016 454.133 280.016 453.676C280.016 453.137 279.922 452.688 279.734 452.32C279.543 451.957 279.262 451.68 278.883 451.496C278.504 451.309 278.023 451.215 277.441 451.215C276.914 451.215 276.445 451.316 276.043 451.516C275.641 451.707 275.328 451.98 275.098 452.34C274.875 452.699 274.762 453.121 274.762 453.609H272.887C272.887 452.898 273.074 452.25 273.453 451.668C273.832 451.086 274.363 450.621 275.047 450.277C275.738 449.93 276.535 449.758 277.441 449.758C278.336 449.758 279.113 449.906 279.785 450.207C280.453 450.504 280.977 450.945 281.348 451.535C281.719 452.117 281.906 452.844 281.906 453.715C281.906 454.066 281.816 454.445 281.641 454.848C281.473 455.246 281.207 455.617 280.84 455.961C280.48 456.309 280.016 456.594 279.438 456.816C278.863 457.035 278.176 457.145 277.371 457.145H275.766V456.066ZM275.766 457.527V456.461H277.371C278.309 456.461 279.086 456.566 279.703 456.777C280.32 456.988 280.805 457.273 281.156 457.621C281.512 457.977 281.762 458.363 281.906 458.785C282.055 459.203 282.129 459.617 282.129 460.035C282.129 460.688 282.012 461.266 281.773 461.773C281.543 462.277 281.215 462.707 280.789 463.062C280.371 463.414 279.875 463.68 279.309 463.855C278.738 464.035 278.121 464.125 277.449 464.125C276.809 464.125 276.203 464.039 275.633 463.867C275.074 463.695 274.578 463.445 274.145 463.117C273.711 462.785 273.371 462.379 273.129 461.898C272.887 461.41 272.762 460.855 272.762 460.234H274.641C274.641 460.723 274.75 461.148 274.977 461.512C275.207 461.879 275.531 462.164 275.949 462.367C276.375 462.566 276.875 462.668 277.449 462.668C278.027 462.668 278.52 462.574 278.93 462.387C279.352 462.195 279.672 461.906 279.895 461.523C280.125 461.141 280.242 460.656 280.242 460.074C280.242 459.488 280.113 459.012 279.855 458.641C279.598 458.266 279.234 457.984 278.762 457.805C278.293 457.621 277.742 457.527 277.105 457.527H275.766ZM293.988 455.828V457.961C293.988 459.105 293.879 460.074 293.664 460.859C293.449 461.648 293.137 462.281 292.73 462.762C292.324 463.242 291.836 463.594 291.262 463.809C290.691 464.02 290.047 464.125 289.332 464.125C288.762 464.125 288.238 464.059 287.758 463.926C287.281 463.789 286.848 463.574 286.461 463.281C286.082 462.98 285.758 462.59 285.488 462.109C285.215 461.629 285.008 461.047 284.867 460.359C284.727 459.676 284.656 458.875 284.656 457.961V455.828C284.656 454.68 284.762 453.723 284.98 452.945C285.203 452.172 285.516 451.551 285.922 451.082C286.328 450.609 286.816 450.27 287.383 450.062C287.957 449.859 288.602 449.758 289.312 449.758C289.887 449.758 290.414 449.824 290.895 449.961C291.383 450.086 291.816 450.297 292.195 450.582C292.57 450.863 292.895 451.242 293.156 451.715C293.43 452.184 293.633 452.758 293.777 453.438C293.918 454.113 293.988 454.91 293.988 455.828ZM292.102 458.246V455.531C292.102 454.902 292.062 454.352 291.98 453.879C291.906 453.398 291.793 452.988 291.645 452.648C291.496 452.309 291.309 452.031 291.078 451.82C290.855 451.609 290.594 451.457 290.297 451.359C290.004 451.258 289.68 451.207 289.312 451.207C288.867 451.207 288.469 451.285 288.125 451.449C287.781 451.602 287.488 451.848 287.25 452.188C287.023 452.527 286.848 452.969 286.723 453.52C286.602 454.07 286.543 454.742 286.543 455.531V458.246C286.543 458.875 286.578 459.43 286.652 459.91C286.734 460.391 286.855 460.805 287.008 461.16C287.164 461.504 287.355 461.789 287.578 462.012C287.801 462.238 288.059 462.402 288.348 462.512C288.645 462.613 288.973 462.668 289.332 462.668C289.793 462.668 290.195 462.582 290.539 462.418C290.887 462.25 291.172 461.988 291.402 461.641C291.637 461.281 291.816 460.824 291.93 460.266C292.047 459.703 292.102 459.031 292.102 458.246Z" fill="#172755"/>
<path d="M342.855 414.754H457.145V500H342.855V414.754Z" fill="white"/>
<path d="M390.051 456.066H391.391C392.047 456.066 392.59 455.965 393.016 455.762C393.449 455.551 393.77 455.266 393.98 454.906C394.195 454.539 394.305 454.133 394.305 453.676C394.305 453.137 394.211 452.688 394.02 452.32C393.832 451.957 393.547 451.68 393.168 451.496C392.789 451.309 392.309 451.215 391.727 451.215C391.199 451.215 390.734 451.316 390.328 451.516C389.926 451.707 389.613 451.98 389.383 452.34C389.16 452.699 389.047 453.121 389.047 453.609H387.172C387.172 452.898 387.359 452.25 387.738 451.668C388.117 451.086 388.648 450.621 389.332 450.277C390.023 449.93 390.82 449.758 391.727 449.758C392.621 449.758 393.402 449.906 394.07 450.207C394.738 450.504 395.262 450.945 395.633 451.535C396.004 452.117 396.191 452.844 396.191 453.715C396.191 454.066 396.102 454.445 395.926 454.848C395.758 455.246 395.492 455.617 395.125 455.961C394.766 456.309 394.301 456.594 393.727 456.816C393.148 457.035 392.461 457.145 391.656 457.145H390.051V456.066ZM390.051 457.527V456.461H391.656C392.594 456.461 393.375 456.566 393.988 456.777C394.605 456.988 395.09 457.273 395.441 457.621C395.801 457.977 396.047 458.363 396.191 458.785C396.34 459.203 396.414 459.617 396.414 460.035C396.414 460.688 396.297 461.266 396.059 461.773C395.828 462.277 395.5 462.707 395.074 463.062C394.656 463.414 394.16 463.68 393.594 463.855C393.023 464.035 392.406 464.125 391.738 464.125C391.094 464.125 390.488 464.039 389.922 463.867C389.359 463.695 388.863 463.445 388.43 463.117C387.996 462.785 387.656 462.379 387.414 461.898C387.172 461.41 387.051 460.855 387.051 460.234H388.926C388.926 460.723 389.039 461.148 389.262 461.512C389.492 461.879 389.816 462.164 390.234 462.367C390.66 462.566 391.16 462.668 391.738 462.668C392.313 462.668 392.805 462.574 393.219 462.387C393.637 462.195 393.957 461.906 394.184 461.523C394.414 461.141 394.527 460.656 394.527 460.074C394.527 459.488 394.398 459.012 394.141 458.641C393.883 458.266 393.52 457.984 393.047 457.805C392.578 457.621 392.027 457.527 391.391 457.527H390.051ZM405.172 449.871V463.934H403.293V452.09L399.508 453.398V451.793L404.875 449.871H405.172Z" fill="#172755"/>
<path d="M457.145 414.754H571.43V500H457.145V414.754Z" fill="white"/>
<path d="M571.43 414.754H685.715V500H571.43V414.754Z" fill="white"/>
<path d="M685.715 414.754H800V500H685.715V414.754Z" fill="white"/>
<path d="M32.3711 7.32422H34.2695L39.1094 18.7266L43.9375 7.32422H45.8477L39.8398 21.3125H38.3594L32.3711 7.32422ZM31.7539 7.32422H33.4297L33.7031 15.8555V21.3125H31.7539V7.32422ZM44.7812 7.32422H46.457V21.3125H44.5078V15.8555L44.7812 7.32422ZM61.2695 13.875V14.7617C61.2695 15.8125 61.1289 16.7539 60.8516 17.5859C60.5742 18.418 60.1758 19.125 59.6562 19.707C59.1367 20.2891 58.5078 20.7344 57.7773 21.043C57.0547 21.3516 56.2422 21.5039 55.3438 21.5039C54.4727 21.5039 53.668 21.3516 52.9375 21.043C52.2148 20.7344 51.5859 20.2891 51.0508 19.707C50.5234 19.125 50.1133 18.418 49.8242 17.5859C49.5352 16.7539 49.3867 15.8125 49.3867 14.7617V13.875C49.3867 12.8281 49.5312 11.8867 49.8125 11.0625C50.1055 10.2305 50.5156 9.52344 51.043 8.94141C51.5703 8.35156 52.1953 7.90234 52.918 7.59375C53.6484 7.28906 54.4492 7.13281 55.3242 7.13281C56.2227 7.13281 57.0352 7.28906 57.7578 7.59375C58.4883 7.90234 59.1133 8.35156 59.6367 8.94141C60.1641 9.52344 60.5664 10.2305 60.8438 11.0625C61.125 11.8867 61.2695 12.8281 61.2695 13.875ZM59.332 14.7617V13.8594C59.332 13.0234 59.2383 12.2891 59.0586 11.6484C58.8828 11.0078 58.6211 10.4688 58.2773 10.0352C57.9297 9.59766 57.5078 9.26953 57.0078 9.04688C56.5156 8.82031 55.9531 8.71094 55.3242 8.71094C54.7148 8.71094 54.1641 8.82031 53.668 9.04688C53.1836 9.26953 52.7617 9.59766 52.4102 10.0352C52.0664 10.4688 51.8008 11.0078 51.6094 11.6484C51.4219 12.2891 51.3242 13.0234 51.3242 13.8594V14.7617C51.3242 15.5977 51.4219 16.3438 51.6094 16.9883C51.8008 17.6289 52.0703 18.1719 52.4219 18.6133C52.7812 19.0469 53.2031 19.3789 53.6914 19.6016C54.1836 19.8242 54.7344 19.9375 55.3438 19.9375C55.9805 19.9375 56.543 19.8242 57.0391 19.6016C57.5313 19.3789 57.9492 19.0469 58.2852 18.6133C58.6328 18.1719 58.8906 17.6289 59.0664 16.9883C59.2422 16.3438 59.332 15.5977 59.332 14.7617ZM75.5664 7.32422V21.3125H73.5977L66.1602 10.5234V21.3125H64.2031V7.32422H66.1602L73.625 18.1406V7.32422H75.5664Z" fill="#8794BA"/>
<path d="M156.297 7.32422V21.3125H154.371V7.32422H156.297ZM161.047 7.32422V8.84375H149.633V7.32422H161.047ZM171.688 7.32422H173.637V16.7891C173.637 17.8359 173.391 18.7109 172.895 19.4102C172.402 20.1094 171.746 20.6328 170.93 20.9844C170.117 21.332 169.234 21.5039 168.281 21.5039C167.277 21.5039 166.371 21.332 165.562 20.9844C164.754 20.6328 164.117 20.1094 163.645 19.4102C163.176 18.7109 162.941 17.8359 162.941 16.7891V7.32422H164.883V16.7891C164.883 17.5156 165.023 18.1211 165.309 18.5938C165.59 19.0664 165.988 19.418 166.496 19.6484C167.008 19.8789 167.602 19.9961 168.281 19.9961C168.965 19.9961 169.559 19.8789 170.066 19.6484C170.578 19.418 170.98 19.0664 171.262 18.5938C171.547 18.1211 171.688 17.5156 171.688 16.7891V7.32422ZM186.098 19.8047V21.3125H178.273V19.8047H186.098ZM178.672 7.32422V21.3125H176.711V7.32422H178.672ZM185.062 13.3398V14.8477H178.273V13.3398H185.062ZM185.996 7.32422V8.84375H178.273V7.32422H185.996Z" fill="#8794BA"/>
<path d="M265.906 17.0859L268.84 7.32422H270.258L269.438 11.1211L266.281 21.3125H264.871L265.906 17.0859ZM262.871 7.32422L265.207 16.8945L265.906 21.3125H264.504L260.926 7.32422H262.871ZM274.055 16.8828L276.336 7.32422H278.293L274.723 21.3125H273.324L274.055 16.8828ZM270.473 7.32422L273.324 17.0859L274.355 21.3125H272.945L269.902 11.1211L269.07 7.32422H270.473ZM289.852 19.8047V21.3125H282.027V19.8047H289.852ZM282.426 7.32422V21.3125H280.465V7.32422H282.426ZM288.816 13.3398V14.8477H282.027V13.3398H288.816ZM289.75 7.32422V8.84375H282.027V7.32422H289.75ZM296.273 21.3125H293.188L293.207 19.8047H296.273C297.328 19.8047 298.207 19.5937 298.91 19.1797C299.613 18.7578 300.141 18.168 300.492 17.4102C300.852 16.6484 301.031 15.7578 301.031 14.7422V13.8867C301.031 13.0859 300.93 12.375 300.727 11.7539C300.523 11.125 300.227 10.5977 299.832 10.168C299.441 9.73437 298.961 9.40234 298.395 9.17969C297.832 8.95703 297.188 8.84375 296.457 8.84375H293.129V7.32422H296.457C297.422 7.32422 298.305 7.48047 299.102 7.78516C299.902 8.08594 300.59 8.52734 301.164 9.10156C301.746 9.67187 302.191 10.3633 302.504 11.1758C302.813 11.9844 302.969 12.8945 302.969 13.9062V14.7422C302.969 15.7539 302.813 16.6641 302.504 17.4805C302.191 18.2852 301.742 18.9727 301.152 19.543C300.57 20.1133 299.867 20.5508 299.043 20.8594C298.227 21.1602 297.301 21.3125 296.273 21.3125ZM294.234 7.32422V21.3125H292.273V7.32422H294.234Z" fill="#8794BA"/>
<path d="M383.359 7.32422V21.3125H381.43V7.32422H383.359ZM388.105 7.32422V8.84375H376.691V7.32422H388.105ZM399.945 13.3398V14.8477H391.953V13.3398H399.945ZM392.254 7.32422V21.3125H390.297V7.32422H392.254ZM401.648 7.32422V21.3125H399.703V7.32422H401.648ZM413.582 7.32422H415.531V16.7891C415.531 17.8359 415.281 18.7109 414.789 19.4102C414.297 20.1094 413.641 20.6328 412.82 20.9844C412.012 21.332 411.129 21.5039 410.172 21.5039C409.172 21.5039 408.266 21.332 407.453 20.9844C406.648 20.6328 406.012 20.1094 405.535 19.4102C405.07 18.7109 404.836 17.8359 404.836 16.7891V7.32422H406.773V16.7891C406.773 17.5156 406.918 18.1211 407.199 18.5938C407.484 19.0664 407.879 19.418 408.387 19.6484C408.902 19.8789 409.496 19.9961 410.172 19.9961C410.855 19.9961 411.449 19.8789 411.957 19.6484C412.473 19.418 412.871 19.0664 413.156 18.5938C413.441 18.1211 413.582 17.5156 413.582 16.7891V7.32422Z" fill="#8794BA"/>
<path d="M499.52 7.32422V21.3125H497.562V7.32422H499.52ZM505.711 13.6172V15.1367H499.094V13.6172H505.711ZM506.715 7.32422V8.84375H499.094V7.32422H506.715ZM509.047 7.32422H513.938C515.047 7.32422 515.984 7.48437 516.75 7.80469C517.52 8.125 518.105 8.60156 518.504 9.22656C518.91 9.84766 519.113 10.6133 519.113 11.5234C519.113 12.1641 518.973 12.75 518.695 13.2812C518.426 13.8047 518.031 14.2539 517.52 14.625C517.012 14.9922 516.402 15.2617 515.691 15.4414L515.145 15.6445H510.551L510.527 14.1367H514C514.703 14.1367 515.285 14.0195 515.754 13.7891C516.219 13.5547 516.57 13.2383 516.809 12.8398C517.047 12.4414 517.164 12.0039 517.164 11.5234C517.164 10.9844 517.055 10.5156 516.828 10.1133C516.605 9.70703 516.254 9.39844 515.773 9.17969C515.301 8.95703 514.688 8.84375 513.938 8.84375H511.004V21.3125H509.047V7.32422ZM517.68 21.3125L514.09 14.9727L516.129 14.9609L519.77 21.1953V21.3125H517.68ZM523.953 7.32422V21.3125H521.992V7.32422H523.953Z" fill="#8794BA"/>
<path d="M616.211 17.7773C616.211 17.4492 616.156 17.1602 616.047 16.9141C615.945 16.6563 615.766 16.4258 615.5 16.2188C615.242 16.0156 614.887 15.8203 614.426 15.6328C613.969 15.4492 613.395 15.2617 612.699 15.0664C611.969 14.8633 611.309 14.6367 610.719 14.3867C610.133 14.1289 609.629 13.8398 609.207 13.5117C608.789 13.1836 608.469 12.8125 608.246 12.3867C608.023 11.9648 607.91 11.4805 607.91 10.9375C607.91 10.3945 608.031 9.89063 608.266 9.42969C608.504 8.96875 608.84 8.56641 609.281 8.23047C609.727 7.88281 610.258 7.61328 610.871 7.42188C611.488 7.23047 612.176 7.13281 612.934 7.13281C614.043 7.13281 614.98 7.33594 615.754 7.73828C616.531 8.13672 617.125 8.65625 617.527 9.30469C617.934 9.94531 618.137 10.6289 618.137 11.3594H616.191C616.191 10.8359 616.07 10.3711 615.836 9.96875C615.598 9.55859 615.238 9.23828 614.758 9.00781C614.277 8.76953 613.672 8.65234 612.934 8.65234C612.234 8.65234 611.66 8.75 611.207 8.94922C610.754 9.14844 610.418 9.41797 610.195 9.75781C609.977 10.0938 609.867 10.4844 609.867 10.918C609.867 11.2109 609.934 11.4805 610.062 11.7266C610.199 11.9609 610.402 12.1836 610.68 12.3867C610.965 12.5938 611.324 12.7813 611.754 12.9531C612.195 13.1289 612.719 13.293 613.328 13.4531C614.168 13.6797 614.891 13.9297 615.5 14.2031C616.109 14.4805 616.609 14.7891 617 15.1367C617.402 15.4727 617.695 15.8633 617.883 16.2969C618.078 16.7266 618.18 17.2148 618.18 17.7578C618.18 18.3281 618.059 18.8437 617.812 19.3047C617.57 19.7656 617.223 20.1602 616.77 20.4844C616.316 20.8125 615.77 21.0664 615.133 21.2461C614.504 21.418 613.801 21.5039 613.023 21.5039C612.34 21.5039 611.668 21.4141 611.004 21.2344C610.352 21.0547 609.75 20.7852 609.207 20.4258C608.676 20.0703 608.246 19.6289 607.922 19.1016C607.602 18.5703 607.445 17.957 607.445 17.2578H609.391C609.391 17.7383 609.488 18.1523 609.688 18.4961C609.883 18.8359 610.148 19.1172 610.488 19.3438C610.832 19.5664 611.223 19.7344 611.652 19.8438C612.094 19.9453 612.551 19.9961 613.023 19.9961C613.707 19.9961 614.285 19.9063 614.758 19.7266C615.234 19.5469 615.59 19.293 615.836 18.957C616.086 18.625 616.211 18.2305 616.211 17.7773ZM626.145 8.56641L621.25 21.3125H619.254L624.887 7.32422H626.172L626.145 8.56641ZM630.242 21.3125L625.344 8.56641L625.312 7.32422H626.598L632.25 21.3125H630.242ZM629.988 16.1328V17.6523H621.688V16.1328H629.988ZM638.367 7.32422V21.3125H636.441V7.32422H638.367ZM643.117 7.32422V8.84375H631.703V7.32422H643.117Z" fill="#8794BA"/>
<path d="M728.66 17.7773C728.66 17.4492 728.605 17.1602 728.496 16.9141C728.395 16.6563 728.215 16.4258 727.949 16.2188C727.691 16.0156 727.332 15.8203 726.875 15.6328C726.422 15.4492 725.848 15.2617 725.148 15.0664C724.418 14.8633 723.758 14.6367 723.172 14.3867C722.582 14.1289 722.078 13.8398 721.66 13.5117C721.238 13.1836 720.918 12.8125 720.695 12.3867C720.473 11.9648 720.359 11.4805 720.359 10.9375C720.359 10.3945 720.477 9.89063 720.715 9.42969C720.953 8.96875 721.289 8.56641 721.73 8.23047C722.176 7.88281 722.707 7.61328 723.324 7.42188C723.937 7.23047 724.625 7.13281 725.383 7.13281C726.492 7.13281 727.434 7.33594 728.203 7.73828C728.98 8.13672 729.574 8.65625 729.977 9.30469C730.383 9.94531 730.586 10.6289 730.586 11.3594H728.641C728.641 10.8359 728.52 10.3711 728.285 9.96875C728.047 9.55859 727.688 9.23828 727.207 9.00781C726.73 8.76953 726.121 8.65234 725.383 8.65234C724.688 8.65234 724.109 8.75 723.656 8.94922C723.203 9.14844 722.867 9.41797 722.641 9.75781C722.426 10.0938 722.32 10.4844 722.32 10.918C722.32 11.2109 722.383 11.4805 722.512 11.7266C722.645 11.9609 722.852 12.1836 723.129 12.3867C723.414 12.5938 723.773 12.7813 724.207 12.9531C724.645 13.1289 725.168 13.293 725.777 13.4531C726.617 13.6797 727.34 13.9297 727.949 14.2031C728.559 14.4805 729.059 14.7891 729.449 15.1367C729.848 15.4727 730.145 15.8633 730.336 16.2969C730.531 16.7266 730.629 17.2148 730.629 17.7578C730.629 18.3281 730.504 18.8437 730.262 19.3047C730.02 19.7656 729.672 20.1602 729.219 20.4844C728.762 20.8125 728.219 21.0664 727.586 21.2461C726.953 21.418 726.25 21.5039 725.473 21.5039C724.789 21.5039 724.117 21.4141 723.453 21.2344C722.797 21.0547 722.199 20.7852 721.66 20.4258C721.125 20.0703 720.695 19.6289 720.371 19.1016C720.051 18.5703 719.895 17.957 719.895 17.2578H721.84C721.84 17.7383 721.937 18.1523 722.137 18.4961C722.332 18.8359 722.598 19.1172 722.938 19.3438C723.281 19.5664 723.672 19.7344 724.105 19.8438C724.543 19.9453 725 19.9961 725.473 19.9961C726.156 19.9961 726.734 19.9063 727.207 19.7266C727.68 19.5469 728.039 19.293 728.285 18.957C728.535 18.625 728.66 18.2305 728.66 17.7773ZM741.574 7.32422H743.523V16.7891C743.523 17.8359 743.277 18.7109 742.781 19.4102C742.289 20.1094 741.633 20.6328 740.812 20.9844C740.004 21.332 739.121 21.5039 738.168 21.5039C737.164 21.5039 736.258 21.332 735.449 20.9844C734.641 20.6328 734.004 20.1094 733.527 19.4102C733.062 18.7109 732.828 17.8359 732.828 16.7891V7.32422H734.766V16.7891C734.766 17.5156 734.91 18.1211 735.191 18.5938C735.477 19.0664 735.875 19.418 736.383 19.6484C736.895 19.8789 737.488 19.9961 738.168 19.9961C738.852 19.9961 739.445 19.8789 739.953 19.6484C740.465 19.418 740.867 19.0664 741.148 18.5938C741.434 18.1211 741.574 17.5156 741.574 16.7891V7.32422ZM757.961 7.32422V21.3125H755.992L748.555 10.5234V21.3125H746.598V7.32422H748.555L756.023 18.1406V7.32422H757.961Z" fill="#8794BA"/>
</g>
<defs>
<clipPath id="clip0_195_2436">
<rect width="800" height="500" rx="30" fill="white"/>
</clipPath>
</defs>
</svg>
