<svg width="256" height="64" viewBox="0 0 256 64" fill="none" xmlns="http://www.w3.org/2000/svg">
<path d="M145.278 22.5109C143.849 23.2025 142.175 25.2406 140.943 27.8247C140.647 28.4434 140.549 28.3342 140.155 27.206C139.465 25.2406 137.642 23.9304 136.214 24.3307C134.243 24.8403 133.702 26.842 134.046 32.3742C134.638 42.8197 135.573 45.5494 138.578 45.7678C141.091 45.9497 141.928 45.1126 142.224 42.3102L142.47 39.8353L144.047 41.9098C145.918 44.3119 147.544 45.2582 149.958 45.2582C152.224 45.2582 153.603 44.1664 153.948 42.019C154.195 40.3812 154.145 40.3084 153.061 40.5632C152.175 40.7816 151.485 40.4904 149.367 38.9254L146.707 36.9964L149.416 35.1766C152.914 32.8109 154.539 30.518 154.539 27.8247C154.539 26.6964 154.244 25.3498 153.85 24.8039C151.978 22.147 148.234 21.1643 145.278 22.5109ZM147.84 26.4053C148.382 27.4244 148.135 29.4625 147.396 30.8455C146.608 32.1558 143.406 34.9219 142.618 34.9219C141.633 34.9219 143.899 28.4798 145.524 26.6964C146.411 25.6774 147.396 25.5682 147.84 26.4053Z" fill="#8794BA"/>
<path d="M84.2919 22.7293C80.5973 24.6219 78.3805 36.6689 80.6465 42.3466C81.4347 44.312 83.6023 45.8406 85.5727 45.8406C87.9373 45.8406 88.824 45.2946 90.696 42.7105C92.5679 40.0901 92.2724 39.5077 89.5137 40.4904C88.4299 40.9272 87.9373 40.9272 87.691 40.636C87.4447 40.3812 87.3462 36.5233 87.4447 32.0466C87.5925 25.1678 87.494 23.7848 86.8043 23.0569C85.9176 22.0378 85.6713 22.0014 84.2919 22.7293Z" fill="#8794BA"/>
<path d="M101.583 22.511C98.7748 23.3845 95.6221 27.2424 94.489 31.2096C93.7501 33.8665 93.7994 38.0884 94.6368 40.1629C96.9521 45.877 104.44 47.2601 108.923 42.8198C110.056 41.6915 110.401 37.8336 109.415 37.5788C109.12 37.506 108.135 38.2703 107.248 39.2894C105.721 41.0728 103.997 41.8371 102.814 41.2912C101.977 40.8908 100.844 38.7435 100.844 37.5424C100.844 36.5961 101.041 36.4505 102.765 36.2322C105.08 35.9774 106.952 34.9583 106.312 34.2668C106.066 33.9756 104.785 33.5025 103.405 33.1749L100.942 32.5562L101.878 29.8629C102.371 28.3707 103.159 26.7693 103.553 26.2962C104.933 24.8039 106.903 25.3863 107.691 27.4972C108.184 28.8439 109.071 28.9894 109.76 27.8612C110.253 27.0969 110.204 26.6237 109.465 25.2407C108.184 22.7294 104.785 21.5647 101.583 22.511Z" fill="#8794BA"/>
<path d="M120.844 23.3117C117.79 25.277 115.228 30.518 114.194 36.8509C113.898 38.6706 113.406 39.9809 112.864 40.4176C112.174 41 112.125 41.1092 112.765 41.1092C113.307 41.1092 113.603 41.6551 113.8 42.9653C114.145 44.9307 114.982 46.0954 115.721 45.5494C115.967 45.3674 116.558 44.2392 117.051 43.0745L117.889 40.9272L120.302 40.636C121.583 40.4904 122.913 40.4176 123.258 40.5268C123.603 40.5996 123.997 41.3639 124.194 42.201C124.44 43.2565 125.031 44.13 126.165 44.9671C130.204 47.9515 132.273 45.4402 131.386 38.7434C130.549 32.629 129.416 27.206 128.628 25.3862C127.199 22.147 123.948 21.2735 120.844 23.3117ZM123.455 32.1558V38.1247L120.992 38.4523C118.627 38.8162 118.578 38.7798 118.578 37.9427C118.578 35.3222 122.076 26.1869 123.061 26.1869C123.357 26.1869 123.504 28.6254 123.455 32.1558Z" fill="#8794BA"/>
<path d="M171.387 23.0934C169.466 24.2944 168.185 26.7329 165.919 33.5025L164.047 39.1075L163.85 32.3743C163.604 24.8768 163.111 23.4573 160.943 23.4573C158.086 23.4573 156.214 29.681 156.608 37.688C156.805 41.4368 157.052 42.4195 158.037 43.8753C159.318 45.8043 160.894 46.4958 163.062 46.059C164.54 45.8043 164.884 45.1128 167.545 36.9237C169.318 31.4644 170.796 28.2252 172.077 27.0605C172.766 26.4418 172.816 26.5874 172.569 29.2806C172.422 30.8821 172.175 34.4852 171.978 37.2877C171.732 41.8007 171.83 42.5287 172.619 43.6205C173.752 45.2219 175.328 45.6587 176.757 44.7852C177.791 44.2029 177.84 43.8753 177.643 41.4368C177.545 39.9446 177.545 35.5407 177.643 31.61L177.791 24.5128L176.461 23.3482C174.835 21.9287 173.357 21.8559 171.387 23.0934Z" fill="#8794BA"/>
<path d="M186.658 22.9113C182.767 24.6946 179.909 30.0812 179.959 35.8317C180.008 39.4713 180.747 41.5094 182.717 43.3292C183.949 44.4575 186.806 45.4766 188.727 45.4766C193.161 45.4766 197.2 41.6186 196.117 38.4158C195.673 37.0692 194.885 37.2511 193.21 39.1801C192.422 40.1264 191.338 41.0363 190.895 41.2547C189.22 42.019 187.496 40.5268 186.806 37.7243C186.461 36.4504 186.51 36.3776 187.791 36.3776C189.762 36.3776 192.57 35.2858 192.373 34.5943C192.176 33.9755 190.501 33.2476 188.333 32.9201C187.052 32.7017 186.954 32.6289 187.299 31.355C187.791 29.2805 189.663 26.1141 190.648 25.6773C191.88 25.095 193.112 25.7865 193.653 27.4243C193.998 28.3342 194.392 28.7346 194.885 28.6618C195.476 28.5526 195.673 28.0794 195.673 26.5872C195.624 24.8038 195.476 24.5127 193.801 23.4208C191.634 21.965 189.171 21.783 186.658 22.9113Z" fill="#8794BA"/>
<path d="M207.693 22.7294C205.92 23.4573 203.998 25.7139 202.57 28.8439C201.338 31.5736 199.86 37.1057 199.86 38.9983C199.86 39.5806 199.565 40.1265 199.121 40.2357C198.185 40.5269 198.136 41.1092 199.072 41.1092C199.515 41.1092 199.811 41.728 199.959 43.111C200.205 45.2219 200.944 46.2774 201.782 45.6223C202.077 45.4403 202.619 44.312 203.013 43.1474C203.456 41.9827 203.851 40.9636 203.9 40.8909C203.998 40.8545 205.279 40.7089 206.806 40.5633L209.565 40.3085L209.959 41.728C210.402 43.5477 211.831 45.2583 213.407 45.7679C215.378 46.423 216.018 46.3138 216.905 45.04C217.595 44.0573 217.693 43.2202 217.398 40.0174C216.954 34.8856 215.329 26.551 214.491 24.986C213.013 22.4383 210.501 21.6012 207.693 22.7294ZM209.417 32.3015C209.22 35.4315 209.023 38.052 208.974 38.0884C208.727 38.3796 204.294 38.7799 204.294 38.5615C204.294 37.8336 206.363 30.882 207.053 29.2806C209.22 24.44 209.811 25.2407 209.417 32.3015Z" fill="#8794BA"/>
<path d="M225.477 22.9841C224.245 23.4936 222.619 24.5855 221.782 25.4226C220.55 26.6964 220.304 27.3151 220.304 29.0621C220.304 30.8091 220.55 31.3915 221.733 32.5197C223.063 33.83 223.9 34.1939 230.304 36.1957C232.817 36.9964 233.358 38.0519 232.176 39.8717C231.191 41.4367 228.728 42.5649 226.363 42.5649C224.245 42.5649 223.999 42.1282 225.23 40.3448C226.166 39.0346 225.871 38.5614 224.097 38.5614C220.944 38.5614 218.925 41.1091 220.255 43.402C221.141 45.0398 223.408 45.9133 226.511 45.9133C232.964 45.8769 238.876 40.6724 237.299 36.3777C236.56 34.3395 234.787 32.9565 230.649 31.2823C226.56 29.6081 225.871 28.771 227.299 27.3151C229.319 25.3134 232.028 26.1505 232.62 28.953C232.964 30.7363 234.048 31.1003 235.477 29.8992C237.496 28.225 236.462 24.4399 233.605 23.0569C231.437 22.0014 228.038 22.0014 225.477 22.9841Z" fill="#8794BA"/>
<path d="M246.314 22.9113C243.26 24.2579 240.797 28.1158 239.713 33.102C238.334 39.8352 242.226 45.4766 248.334 45.4766C252.768 45.4766 256.807 41.6186 255.723 38.4158C255.28 37.0692 254.492 37.2511 252.817 39.1801C252.029 40.1264 250.945 41.0363 250.502 41.2547C248.777 42.019 246.906 40.3812 246.561 37.8335C246.413 36.6324 246.511 36.596 248.383 36.3049C253.31 35.5405 253.113 33.7572 247.989 32.9201C246.708 32.7381 246.659 32.6289 246.955 31.355C247.447 29.2805 249.27 26.1141 250.255 25.6773C251.487 25.095 252.718 25.7865 253.26 27.4243C253.605 28.3342 253.999 28.7346 254.492 28.6618C255.083 28.5526 255.28 28.0794 255.28 26.5872C255.231 24.8038 255.083 24.5127 253.408 23.4208C251.241 21.965 248.777 21.783 246.314 22.9113Z" fill="#8794BA"/>
<g clip-path="url(#clip0_13_600)">
<path d="M16.4346 8.36292C15.6963 8.7262 15.6143 9.06604 15.6143 11.7496V14.1285H14.665C13.1885 14.1285 12.7314 14.527 12.6025 15.9332L12.5322 16.6949L9.7666 16.7301C7.17676 16.7653 6.96582 16.777 6.52051 17.0231C5.73535 17.4449 5.33691 17.8434 4.98535 18.5582C4.66895 19.2145 4.65723 19.2731 4.65723 21.2887C4.65723 23.4918 4.69238 23.6442 5.2666 23.8668C5.5127 23.9606 5.53613 24.0309 5.53613 24.9567C5.53613 25.9059 5.52441 25.941 5.24316 26.0114C5.09082 26.0465 4.90332 26.1871 4.83301 26.316C4.68066 26.5973 4.72754 51.3473 4.87988 51.652C4.96191 51.8395 4.8916 51.8629 3.9541 51.8629C3.3916 51.8629 2.71191 51.9332 2.44238 52.0035C1.82129 52.191 1.05957 52.9528 0.87207 53.5739C0.68457 54.2067 0.68457 57.1364 0.87207 57.7692C1.05957 58.3903 1.82129 59.152 2.44238 59.3395C2.81738 59.4449 6.97754 59.4801 20.6768 59.4801H38.4307L38.7471 59.234C39.1455 58.9176 39.1689 58.3317 38.7822 57.9801L38.5127 57.7223H20.7588H2.99316L2.74707 57.4528C2.5127 57.2067 2.48926 57.0543 2.48926 55.6598C2.48926 54.2184 2.50098 54.1129 2.75879 53.8785L3.02832 53.6207H13.8799H24.7197L24.8018 54.277C24.9189 55.3199 25.3291 55.8942 26.1846 56.2574C26.8291 56.527 34.6338 56.527 35.2783 56.2574C36.1338 55.8942 36.5439 55.3199 36.6611 54.277L36.7432 53.6207H47.5713H58.3994L58.6807 53.9137C58.9619 54.1832 58.9736 54.2653 58.9736 55.6715C58.9736 57.0778 58.9619 57.1598 58.6807 57.4293L58.3994 57.7223H50.0908C41.8643 57.7223 41.7705 57.7223 41.4658 57.9684C41.0674 58.2848 41.0557 58.8004 41.4541 59.1871L41.7354 59.4801H50.1377C56.4424 59.4801 58.6572 59.4449 59.0205 59.3395C59.6416 59.152 60.4033 58.3903 60.5908 57.7692C60.7783 57.1364 60.7783 54.2067 60.5908 53.5739C60.4033 52.9528 59.6416 52.191 59.0205 52.0035C58.751 51.9332 58.083 51.8629 57.5205 51.8629C56.9697 51.8629 56.5127 51.8395 56.5127 51.816C56.5127 51.7809 56.5713 51.6168 56.6416 51.4293C56.7236 51.2067 56.7588 46.0973 56.7471 35.1168C56.7471 19.941 56.7354 19.109 56.5244 18.652C56.2197 17.9489 55.7393 17.4449 55.0596 17.0817C54.4619 16.7653 54.4385 16.7653 51.6963 16.7301L48.9307 16.6949L48.8604 15.9332C48.7314 14.527 48.2744 14.1285 46.7979 14.1285H45.8486V11.7848C45.8486 9.2301 45.7666 8.80823 45.2275 8.44495C44.6299 8.05823 44.208 8.09338 42.4971 8.69104C41.6064 9.00745 40.7861 9.34729 40.6689 9.46448C40.3877 9.74573 40.3994 10.3199 40.6924 10.6129C41.0205 10.941 41.5244 10.9059 42.6377 10.5074C43.1416 10.3199 43.6807 10.1324 43.833 10.0973L44.0908 10.0153L44.0674 20.5856L44.0322 31.1559L39.9893 32.5504C37.7627 33.3239 34.9854 34.2848 33.8135 34.6949L31.6689 35.4332V24.8746V14.3043L34.9033 13.191C36.6963 12.5817 38.2549 11.9957 38.3838 11.8903C38.7354 11.609 38.7236 10.8942 38.3604 10.6012C38.208 10.4723 37.9854 10.3785 37.8564 10.3785C37.7275 10.3785 36.0752 10.9176 34.1768 11.5621L30.7314 12.7574L29.3604 12.277C28.5986 12.0192 25.5986 10.9879 22.6924 9.9801C19.7861 8.97229 17.2783 8.15198 17.126 8.15198C16.9736 8.15198 16.6572 8.24573 16.4346 8.36292ZM23.7354 12.1949L29.7939 14.2926V24.8629V35.4332L28.833 35.0934C28.2939 34.9059 25.5166 33.9449 22.6455 32.9489L17.4307 31.1559L17.3955 20.5739C17.3721 12.1364 17.3955 10.0153 17.5127 10.0504C17.5947 10.0856 20.3955 11.0465 23.7354 12.1949ZM12.5908 29.2223C12.626 37.2731 12.5791 36.8278 13.4229 37.3317C13.7861 37.566 14.1494 37.566 30.7314 37.566C47.3135 37.566 47.6768 37.566 48.04 37.3317C48.8838 36.8278 48.8369 37.2731 48.8721 29.2223L48.9072 21.9801H50.1846H51.4736V35.1637V48.3473H30.7314H9.98926V35.1637V21.9801H11.2783H12.5557L12.5908 29.2223ZM34.833 54.0074C34.833 54.2184 34.7744 54.4528 34.6924 54.5348C34.4932 54.734 26.9697 54.734 26.7705 54.5348C26.6885 54.4528 26.6299 54.2184 26.6299 54.0074V53.6207H30.7314H34.833V54.0074Z" fill="#8794BA"/>
<path d="M18.8369 40.1676C18.251 40.484 18.1338 41.1051 18.5791 41.527L18.8487 41.7848H30.7432H42.6494L42.8955 41.5153C43.3174 41.0699 43.2237 40.484 42.6729 40.2028C42.3916 40.0504 40.6924 40.027 30.708 40.027C22.5166 40.0387 19.001 40.0739 18.8369 40.1676Z" fill="#8794BA"/>
<path d="M18.6025 44.0699C18.2509 44.4215 18.2275 44.8199 18.5556 45.2301L18.79 45.5348H26.6416H34.4931L34.7744 45.2418C34.9384 45.0895 35.0673 44.8785 35.0673 44.7848C35.0673 44.4567 34.8095 44.0348 34.5166 43.9059C34.3173 43.8121 31.9384 43.777 26.5595 43.777H18.8837L18.6025 44.0699Z" fill="#8794BA"/>
</g>
<defs>
<clipPath id="clip0_13_600">
<rect width="60" height="60" fill="white" transform="translate(0.731445 3.81604)"/>
</clipPath>
</defs>
</svg>
