<svg width="800" height="500" viewBox="0 0 800 500" fill="none" xmlns="http://www.w3.org/2000/svg">
<rect width="800" height="500" rx="30" fill="white"/>
<path fill-rule="evenodd" clip-rule="evenodd" d="M237.005 112.543C234.269 113.144 231.601 113.92 229.004 114.875C227.494 115.073 226.16 114.685 225.004 113.709C203.267 80.18 172.597 64.8301 132.998 67.6574C84.8193 76.3874 56.4357 105.34 47.85 154.515C45.756 200.973 64.9951 234.588 105.568 255.363C122.256 261.895 139.4 264.81 157 264.107C152.477 267.164 148.286 270.662 144.428 274.6C92.7112 272.229 58.2336 246.191 40.9925 196.486C28.9646 142.312 45.5371 100.146 90.7099 69.9891C141.806 45.4533 186.952 53.8091 226.147 95.0554C230.504 100.458 234.124 106.287 237.005 112.543Z" fill="#EBECF6"/>
<path fill-rule="evenodd" clip-rule="evenodd" d="M229.004 114.875C205.235 123.826 194.758 141.314 197.574 167.34C198.847 177.453 201.513 187.17 205.574 196.486C207.416 200.888 210.273 204.385 214.146 206.979C214.146 209.311 214.146 211.643 214.146 213.974C210.317 213.782 206.508 213.977 202.717 214.557C201.67 214.882 200.909 215.464 200.431 216.306C186.283 222.258 174.282 231.197 164.429 243.121C163.558 247.886 163.748 252.55 165 257.112C165 257.889 165 258.666 165 259.444C162.178 260.69 159.512 262.244 157 264.107C139.4 264.81 122.256 261.895 105.568 255.363C64.9951 234.588 45.7559 200.973 47.85 154.515C56.4357 105.34 84.8192 76.3874 132.998 67.6574C172.597 64.8301 203.267 80.18 225.004 113.709C226.16 114.685 227.493 115.073 229.004 114.875Z" fill="#10A5C5"/>
<path fill-rule="evenodd" clip-rule="evenodd" d="M283.865 172.003C280.823 169.942 277.394 169.164 273.579 169.671C273.384 168.13 273.765 166.769 274.722 165.591C277.463 164.762 280.13 164.956 282.722 166.174C285.519 157.622 283.614 150.433 277.007 144.605C276.245 143.827 275.484 143.827 274.722 144.605C268.919 151.656 261.681 156.709 253.006 159.761C257.448 160.04 261.64 161.011 265.578 162.676C265.982 165.165 265.03 166.719 262.721 167.34C255.804 164.846 248.756 164.263 241.577 165.591C242.778 163.976 244.301 162.81 246.148 162.093C239.648 161.966 233.173 162.549 226.719 163.842C226.002 164.911 225.62 166.077 225.576 167.34C224.618 167.738 224.236 168.515 224.433 169.671C223.809 171.773 222.855 173.717 221.575 175.501C219.928 171.56 217.833 167.868 215.289 164.425C206.221 162.983 202.03 167.063 202.717 176.667C202.307 185.584 206.116 191.414 214.146 194.155C214.146 198.43 214.146 202.704 214.146 206.979C210.273 204.385 207.416 200.888 205.574 196.486C201.513 187.17 198.847 177.453 197.574 167.34C194.758 141.314 205.235 123.826 229.004 114.875C231.601 113.92 234.269 113.144 237.005 112.543C239.194 112.875 241.098 112.486 242.72 111.378C252.767 109.473 262.673 110.056 272.436 113.126C280.73 116.25 284.159 122.274 282.722 131.197C295.421 134.173 299.421 141.946 294.723 154.515C292.163 161.171 288.543 167 283.865 172.003Z" fill="#030303"/>
<path fill-rule="evenodd" clip-rule="evenodd" d="M283.865 172.003C283.168 173.042 282.787 174.208 282.722 175.501C280.78 175.314 278.875 175.508 277.008 176.084C279.159 176.314 281.063 176.897 282.722 177.832C281.694 183.979 281.313 190.196 281.579 196.486C280.01 196.669 278.485 196.475 277.008 195.903C274.95 193.791 273.045 191.654 271.293 189.491C271.022 187.986 271.403 186.82 272.436 185.993C272.671 188.382 273.623 188.772 275.293 187.159C275.858 185.254 276.047 183.311 275.865 181.33C273.946 181.079 272.803 181.857 272.436 183.662C270.888 180.411 272.031 178.274 275.865 177.249C272.482 177.623 269.053 177.623 265.578 177.249C261.864 173.219 257.292 171.47 251.863 172.003C247.082 171.624 242.701 172.79 238.719 175.501C233.998 173.197 229.617 170.477 225.576 167.34C225.62 166.077 226.002 164.911 226.719 163.842C233.173 162.549 239.649 161.966 246.148 162.093C244.301 162.81 242.778 163.976 241.577 165.591C248.757 164.263 255.804 164.846 262.721 167.34C265.03 166.719 265.982 165.165 265.578 162.676C261.64 161.011 257.449 160.04 253.006 159.761C261.681 156.709 268.919 151.656 274.722 144.605C275.484 143.827 276.245 143.827 277.008 144.605C283.614 150.433 285.519 157.622 282.722 166.174C280.13 164.956 277.464 164.762 274.722 165.591C273.765 166.769 273.384 168.13 273.579 169.671C277.394 169.164 280.823 169.942 283.865 172.003Z" fill="#F5BFA2"/>
<path fill-rule="evenodd" clip-rule="evenodd" d="M224.433 169.671C228.409 172.285 232.6 174.617 237.005 176.667C235.46 190.824 241.555 197.624 255.292 197.069C264.132 194.399 267.56 188.377 265.578 178.998C267.054 178.722 268.197 179.11 269.007 180.164C267.694 180.503 266.932 181.475 266.721 183.079C267.854 187.909 269.758 192.378 272.436 196.486C269.575 198.193 266.527 199.554 263.293 200.567C266.829 201.327 270.258 200.938 273.579 199.401C274.438 198.619 274.82 197.648 274.722 196.486C276.493 197.583 278.398 198.36 280.437 198.818C278.802 214.056 271.183 224.549 257.578 230.297C254.025 230.572 250.596 230.184 247.292 229.131C243.511 226.721 239.701 224.195 235.862 221.553C234.384 220.981 232.86 220.787 231.291 220.97C231.381 228.733 234.428 235.146 240.434 240.207C241.518 240.77 242.66 240.963 243.863 240.79C242.191 246.683 240.287 252.512 238.148 258.278C227.353 250.379 218.59 240.662 211.861 229.131C212.144 223.994 212.907 218.941 214.147 213.974C214.147 211.643 214.147 209.311 214.147 206.979C214.147 202.704 214.147 198.43 214.147 194.155C206.116 191.414 202.307 185.584 202.717 176.667C202.03 167.063 206.222 162.983 215.29 164.425C217.834 167.868 219.929 171.56 221.576 175.501C222.856 173.717 223.809 171.773 224.433 169.671Z" fill="#FCC4A5"/>
<path fill-rule="evenodd" clip-rule="evenodd" d="M225.576 167.34C229.617 170.477 233.998 173.197 238.719 175.501C242.701 172.79 247.082 171.624 251.863 172.003C257.292 171.47 261.864 173.219 265.578 177.249C269.053 177.623 272.482 177.623 275.865 177.249C272.031 178.274 270.888 180.411 272.436 183.662C272.436 184.439 272.436 185.216 272.436 185.994C271.403 186.82 271.022 187.986 271.293 189.491C269.324 186.833 268.562 183.724 269.007 180.164C268.197 179.11 267.054 178.722 265.578 178.998C267.56 188.377 264.131 194.399 255.292 197.069C241.555 197.624 235.46 190.824 237.005 176.667C232.6 174.617 228.409 172.285 224.433 169.671C224.236 168.515 224.618 167.738 225.576 167.34Z" fill="#836D61"/>
<path fill-rule="evenodd" clip-rule="evenodd" d="M247.291 173.169C263.746 172.607 267.936 179.407 259.864 193.572C252.883 196.615 246.597 195.642 241.005 190.657C237.172 182.117 239.267 176.288 247.291 173.169Z" fill="#FBC4A6"/>
<path fill-rule="evenodd" clip-rule="evenodd" d="M207.289 170.837C207.743 169.642 208.504 169.447 209.575 170.254C213.642 172.912 215.357 176.605 214.718 181.33C213.525 180.021 212.763 178.467 212.432 176.667C206.804 182.587 206.233 182.004 210.718 174.918C210.171 173.003 209.028 171.643 207.289 170.837Z" fill="#FF7B33"/>
<path fill-rule="evenodd" clip-rule="evenodd" d="M282.722 177.832C287.68 178.237 289.586 180.957 288.437 185.994C288.871 191.374 286.585 194.872 281.579 196.486C281.313 190.196 281.694 183.979 282.722 177.832Z" fill="#ECEAF2"/>
<path fill-rule="evenodd" clip-rule="evenodd" d="M251.863 178.998C254.131 178.98 255.274 180.145 255.292 182.496C254.127 186.794 252.604 186.989 250.72 183.079C251.279 181.752 251.66 180.391 251.863 178.998Z" fill="#3A4E4F"/>
<path fill-rule="evenodd" clip-rule="evenodd" d="M272.436 185.994C272.436 185.216 272.436 184.439 272.436 183.662C272.803 181.857 273.946 181.079 275.865 181.33C276.048 183.311 275.858 185.254 275.293 187.159C273.623 188.772 272.671 188.382 272.436 185.994Z" fill="#384D4E"/>
<path fill-rule="evenodd" clip-rule="evenodd" d="M282.722 175.501C287.615 176.415 290.282 179.329 290.723 184.245C291.298 192.25 287.869 197.108 280.437 198.818C278.398 198.36 276.493 197.583 274.722 196.486C272.979 194.486 271.836 192.154 271.293 189.491C273.045 191.654 274.95 193.791 277.008 195.903C278.486 196.475 280.01 196.669 281.579 196.486C286.585 194.872 288.871 191.374 288.437 185.993C289.586 180.957 287.68 178.237 282.722 177.832C281.063 176.897 279.159 176.314 277.008 176.084C278.875 175.508 280.781 175.314 282.722 175.501Z" fill="#86756C"/>
<path fill-rule="evenodd" clip-rule="evenodd" d="M269.007 180.164C268.563 183.724 269.324 186.833 271.293 189.491C271.836 192.154 272.979 194.486 274.722 196.486C274.82 197.648 274.438 198.619 273.579 199.401C270.257 200.938 266.829 201.327 263.292 200.567C266.527 199.554 269.575 198.193 272.436 196.486C269.758 192.378 267.854 187.909 266.721 183.079C266.932 181.475 267.694 180.503 269.007 180.164Z" fill="#FE7E39"/>
<path fill-rule="evenodd" clip-rule="evenodd" d="M249.577 201.15C251.632 203.029 253.918 204.778 256.435 206.396C259.55 206.608 262.599 207.191 265.578 208.145C258.29 210.253 252.957 207.921 249.577 201.15Z" fill="#FF813D"/>
<path fill-rule="evenodd" clip-rule="evenodd" d="M214.147 213.974C212.906 218.941 212.144 223.994 211.861 229.131C208.051 224.856 204.241 220.581 200.431 216.306C200.909 215.464 201.67 214.881 202.717 214.557C206.508 213.977 210.318 213.782 214.147 213.974Z" fill="#0B0A0C"/>
<path fill-rule="evenodd" clip-rule="evenodd" d="M200.431 216.306C204.241 220.581 208.051 224.856 211.861 229.131C218.59 240.662 227.353 250.379 238.148 258.278C240.286 252.512 242.19 246.683 243.863 240.79C244.303 236.658 245.446 232.772 247.291 229.131C250.596 230.184 254.024 230.572 257.578 230.297C262.493 236.048 265.922 242.655 267.864 250.117C263.556 249.818 259.365 250.206 255.292 251.282C253.909 251.786 252.766 252.564 251.863 253.614C247.854 254.785 244.235 256.728 241.005 259.444C238.102 269.784 236.006 280.277 234.719 290.922C232.653 290.912 230.747 291.495 229.004 292.671C225.956 296.557 222.909 300.444 219.861 304.33C216.248 305.977 212.819 307.921 209.575 310.159C202.243 320.752 194.051 330.662 185.002 339.889C184.921 330.156 185.492 320.441 186.716 310.742C186.335 309.576 185.954 308.41 185.573 307.244C183.863 318.848 182.53 330.507 181.573 342.221C170.692 346.702 160.215 351.949 150.142 357.96C161.522 353.169 172.952 348.118 184.43 342.803C194.049 332.996 202.812 322.503 210.718 311.325C218.933 308.387 225.029 302.946 229.004 295.003C230.939 294.015 232.845 293.044 234.719 292.088C244.981 294.787 252.982 300.616 258.721 309.576C258.721 309.964 258.721 310.354 258.721 310.742C257.962 312.08 257.771 313.634 258.149 315.405C254.298 318.944 250.869 322.83 247.863 327.064C247.402 332.831 245.879 338.272 243.291 343.386C232.901 359.524 223.377 376.235 214.718 393.519C204.213 412.771 188.403 425.013 167.286 430.244C158.357 431.563 150.356 429.424 143.285 423.832C138.175 416.505 134.937 408.344 133.57 399.348C130.482 388.887 129.149 378.199 129.57 367.287C130.212 339.945 133.45 312.936 139.284 286.259C140.32 282.983 141.654 279.874 143.285 276.932C144.243 276.533 144.624 275.756 144.428 274.6C148.286 270.662 152.477 267.164 157 264.107C159.512 262.244 162.179 260.69 165 259.444C170.65 256.601 176.175 253.493 181.573 250.117C196.141 261.921 212.713 267.944 231.29 268.188C215.853 266.176 201.375 261.125 187.859 253.031C183.883 250.336 180.454 247.032 177.573 243.121C176.679 245.254 177.44 247.002 179.858 248.368C175.216 251.899 170.264 254.814 165 257.112C163.748 252.55 163.558 247.886 164.429 243.121C174.282 231.197 186.283 222.258 200.431 216.306Z" fill="#172454"/>
<path fill-rule="evenodd" clip-rule="evenodd" d="M247.292 229.131C245.446 232.772 244.303 236.658 243.863 240.79C242.66 240.963 241.517 240.77 240.434 240.207C234.428 235.146 231.381 228.733 231.291 220.97C232.86 220.787 234.384 220.981 235.862 221.553C239.701 224.195 243.511 226.721 247.292 229.131Z" fill="#FD6F22"/>
<path fill-rule="evenodd" clip-rule="evenodd" d="M242.72 111.378C241.098 112.486 239.194 112.875 237.005 112.543C234.124 106.287 230.504 100.458 226.147 95.0554C186.951 53.8091 141.806 45.4533 90.7099 69.9891C45.5371 100.146 28.9646 142.312 40.9925 196.486C58.2336 246.191 92.7112 272.228 144.428 274.6C144.624 275.756 144.242 276.533 143.285 276.932C95.8291 274.173 62.1127 250.856 42.1354 206.979C25.9008 158.777 35.6157 116.999 71.2801 81.6478C109.222 50.8221 150.367 45.7693 194.717 66.4915C212.897 76.6311 227.184 90.8151 237.576 109.046C238.845 110.838 240.559 111.614 242.72 111.378Z" fill="#45B2CF"/>
<path fill-rule="evenodd" clip-rule="evenodd" d="M165.001 259.444C165.001 258.666 165.001 257.889 165.001 257.112C170.264 254.814 175.216 251.899 179.859 248.368C177.44 247.002 176.679 245.254 177.573 243.121C180.454 247.032 183.883 250.336 187.859 253.031C201.376 261.125 215.853 266.176 231.291 268.188C212.713 267.944 196.141 261.921 181.573 250.117C176.175 253.493 170.65 256.601 165.001 259.444Z" fill="#03050F"/>
<path fill-rule="evenodd" clip-rule="evenodd" d="M267.864 250.117C271.581 251.235 275.01 252.983 278.151 255.363C279.107 256.542 279.488 257.902 279.294 259.444C276.914 259.299 275.2 258.133 274.15 255.946C272.796 258.134 271.653 260.466 270.722 262.941C273.292 280.49 269.292 296.034 258.721 309.576C252.982 300.616 244.982 294.787 234.719 292.088C234.719 291.7 234.719 291.31 234.719 290.922C236.006 280.277 238.102 269.784 241.005 259.444C244.235 256.728 247.854 254.785 251.863 253.614C250.873 255.531 250.302 257.474 250.149 259.444C253.028 257.449 254.742 254.728 255.292 251.282C259.365 250.206 263.557 249.818 267.864 250.117Z" fill="#FCC4A5"/>
<path fill-rule="evenodd" clip-rule="evenodd" d="M262.149 251.282C263.151 251.13 263.913 251.518 264.435 252.448C263.313 255.716 261.408 257.854 258.721 258.861C260.337 256.537 261.48 254.011 262.149 251.282Z" fill="#FF7C35"/>
<path fill-rule="evenodd" clip-rule="evenodd" d="M255.292 251.282C254.742 254.728 253.028 257.449 250.149 259.444C250.302 257.474 250.873 255.531 251.863 253.614C252.766 252.564 253.909 251.786 255.292 251.282Z" fill="#FA7C39"/>
<path fill-rule="evenodd" clip-rule="evenodd" d="M280.436 261.775C281.179 264.031 281.56 266.363 281.579 268.77C280.446 277.104 280.065 285.654 280.436 294.42C280.436 295.197 280.436 295.974 280.436 296.751C276.331 301.955 270.997 304.675 264.435 304.913C269.549 297.224 272.026 288.673 271.864 279.263C276.787 276.259 278.121 271.984 275.865 266.439C274.525 266.927 273.382 267.704 272.436 268.77C272.831 270.165 273.403 270.165 274.15 268.77C274.341 269.936 274.531 271.102 274.722 272.268C274.902 274.389 274.14 275.943 272.436 276.932C270.956 271.818 271.147 266.766 273.007 261.775C275.386 260.804 277.863 260.804 280.436 261.775Z" fill="#FCC1A1"/>
<path fill-rule="evenodd" clip-rule="evenodd" d="M279.293 259.443C279.674 260.221 280.056 260.998 280.436 261.775C277.862 260.804 275.386 260.804 273.007 261.775C271.147 266.766 270.956 271.818 272.436 276.932C274.14 275.943 274.902 274.389 274.722 272.268C274.531 271.102 274.341 269.936 274.15 268.77C273.403 270.165 272.831 270.165 272.436 268.77C273.382 267.704 274.525 266.927 275.865 266.439C278.121 271.984 276.787 276.259 271.864 279.263C272.026 288.673 269.549 297.224 264.435 304.913C262.847 306.544 261.704 308.487 261.007 310.742C259.982 311.915 259.221 311.915 258.721 310.742C258.721 310.354 258.721 309.964 258.721 309.576C269.292 296.034 273.292 280.49 270.721 262.941C271.653 260.466 272.796 258.134 274.15 255.946C275.199 258.133 276.914 259.299 279.293 259.443Z" fill="#FE752A"/>
<path fill-rule="evenodd" clip-rule="evenodd" d="M282.722 269.936C286.227 274.114 289.085 278.777 291.294 283.927C294.654 294.015 297.892 304.12 301.009 314.24C292.62 309.569 286.144 302.962 281.579 294.42C281.208 286.041 281.589 277.879 282.722 269.936Z" fill="#1B2656"/>
<path fill-rule="evenodd" clip-rule="evenodd" d="M281.579 268.77C282.342 268.77 282.722 269.159 282.722 269.936C281.59 277.879 281.208 286.041 281.579 294.42C281.199 294.42 280.817 294.42 280.437 294.42C280.065 285.653 280.446 277.104 281.579 268.77Z" fill="#9C8285"/>
<path fill-rule="evenodd" clip-rule="evenodd" d="M280.437 294.42C280.817 294.42 281.199 294.42 281.579 294.42C286.144 302.962 292.62 309.569 301.009 314.24C302.711 316.74 303.854 319.46 304.438 322.401C295.667 314.618 287.667 306.069 280.437 296.751C280.437 295.974 280.437 295.197 280.437 294.42Z" fill="#0E0F18"/>
<path fill-rule="evenodd" clip-rule="evenodd" d="M280.437 296.751C287.667 306.069 295.667 314.618 304.438 322.401C308.962 329.153 314.486 334.983 321.011 339.889C324.829 344.576 328.068 349.627 330.725 355.045C327.731 375.365 323.54 395.573 318.153 415.671C309.464 417.297 302.034 414.965 295.866 408.675C288.787 395.778 281.738 382.954 274.722 370.201C272.449 360.328 269.591 350.612 266.15 341.055C265.113 334.091 264.352 327.096 263.864 320.069C262.53 317.932 261.198 315.794 259.864 313.657C260.723 312.874 261.105 311.903 261.007 310.742C261.704 308.487 262.847 306.544 264.435 304.913C270.997 304.675 276.331 301.955 280.437 296.751Z" fill="#172455"/>
<path fill-rule="evenodd" clip-rule="evenodd" d="M619.887 390.021C618.811 388.214 618.05 386.272 617.601 384.192C636.816 390.61 653.388 386.336 667.318 371.367C681.08 348.478 678.223 328.075 658.746 310.159C634.483 296.297 614.101 300.766 597.599 323.567C593.198 331.949 591.484 340.888 592.456 350.382C591.076 349.526 589.552 349.138 587.885 349.216C588.315 322.172 601.268 305.267 626.744 298.5C649.495 296.207 666.068 305.34 676.462 325.898C685.047 353.654 676.857 374.445 651.889 388.272C641.346 391.34 630.678 391.923 619.887 390.021Z" fill="#E6EBF4"/>
<path fill-rule="evenodd" clip-rule="evenodd" d="M617.601 384.192C613.949 377.328 610.14 370.527 606.172 363.789C603.357 364.046 600.69 365.018 598.171 366.704C595.781 361.327 593.877 355.887 592.456 350.382C591.484 340.888 593.198 331.949 597.6 323.567C614.101 300.766 634.483 296.297 658.746 310.159C678.223 328.075 681.08 348.478 667.318 371.367C653.388 386.336 636.816 390.61 617.601 384.192Z" fill="#13A5C6"/>
<path fill-rule="evenodd" clip-rule="evenodd" d="M622.173 392.353C621.03 391.965 620.267 391.187 619.887 390.021C630.678 391.923 641.346 391.34 651.889 388.273C676.857 374.445 685.047 353.654 676.462 325.898C666.068 305.34 649.495 296.207 626.744 298.5C601.268 305.267 588.316 322.172 587.885 349.216C587.504 349.216 587.122 349.216 586.742 349.216C585.83 325.236 596.116 308.331 617.601 298.5C648.649 291.113 669.793 302.578 681.033 332.894C685.309 364.427 672.546 384.441 642.745 392.936C635.845 393.749 628.988 393.554 622.173 392.353Z" fill="#48B3CF"/>
<path fill-rule="evenodd" clip-rule="evenodd" d="M282.722 310.742C283.724 310.589 284.486 310.977 285.008 311.908C281.073 316.639 276.121 318.776 270.15 318.32C273.601 316.946 277.029 315.39 280.437 313.657C281.443 312.831 282.205 311.859 282.722 310.742Z" fill="#040612"/>
<path fill-rule="evenodd" clip-rule="evenodd" d="M275.865 385.358C276.89 392.537 277.652 399.921 278.151 407.509C277.968 415.067 275.682 421.868 271.293 427.912C272.034 429.591 272.414 431.34 272.436 433.159C229.385 433.159 186.336 433.159 143.285 433.159C143.285 430.827 143.285 428.495 143.285 426.163C155.424 433.315 167.996 433.898 181.001 427.912C197.51 420.01 209.892 407.768 218.147 391.187C226.425 374.68 235.568 358.746 245.577 343.386C246.696 332.505 251.268 323.568 259.292 316.571C260.435 318.125 261.578 319.681 262.721 321.235C265.857 340.177 268.524 359.22 270.722 378.363C272.02 382.726 273.545 387.002 275.293 391.187C275.858 389.282 276.048 387.339 275.865 385.358Z" fill="#172354"/>
<path fill-rule="evenodd" clip-rule="evenodd" d="M234.719 290.922C234.719 291.31 234.719 291.7 234.719 292.088C232.845 293.044 230.939 294.015 229.005 295.003C225.029 302.946 218.933 308.387 210.718 311.325C202.812 322.503 194.049 332.996 184.43 342.804C172.952 348.118 161.522 353.169 150.142 357.96C160.215 351.949 170.692 346.702 181.573 342.221C182.53 330.507 183.863 318.848 185.573 307.244C185.954 308.41 186.336 309.576 186.716 310.742C185.492 320.441 184.921 330.156 185.002 339.889C194.051 330.662 202.243 320.752 209.575 310.159C212.819 307.921 216.248 305.977 219.861 304.33C222.909 300.444 225.956 296.557 229.005 292.671C230.747 291.495 232.653 290.912 234.719 290.922Z" fill="#03050F"/>
<path fill-rule="evenodd" clip-rule="evenodd" d="M513.594 329.396C456.067 327.842 398.539 327.842 341.012 329.396C340.249 329.396 339.488 329.396 338.726 329.396C340.153 327.489 342.058 326.128 344.44 325.315C399.682 324.538 454.924 324.538 510.165 325.315C512.367 325.807 513.509 327.168 513.594 329.396Z" fill="#866E60"/>
<path fill-rule="evenodd" clip-rule="evenodd" d="M513.594 329.396C506.806 360.447 500.138 391.537 493.593 422.666C492.337 426.435 489.861 428.767 486.164 429.661C430.923 429.661 375.68 429.661 320.439 429.661C320.439 428.883 320.058 428.495 319.296 428.495C319.107 424.976 319.298 421.479 319.867 418.002C325.691 394.025 331.024 369.93 335.869 345.718C336.895 339.948 338.609 334.507 341.012 329.396C398.539 327.842 456.067 327.842 513.594 329.396Z" fill="#FE7514"/>
<path fill-rule="evenodd" clip-rule="evenodd" d="M559.311 339.889C558.179 370.892 557.798 401.982 558.168 433.159C550.93 433.159 543.691 433.159 536.453 433.159C536.262 402.066 536.453 370.977 537.024 339.889C544.453 338.356 551.882 338.356 559.311 339.889Z" fill="#8794BA"/>
<path fill-rule="evenodd" clip-rule="evenodd" d="M559.311 339.889C564.645 339.889 569.978 339.889 575.312 339.889C575.312 342.998 575.312 346.106 575.312 349.216C575.312 349.604 575.312 349.993 575.312 350.382C574.172 377.773 573.791 405.365 574.169 433.159C569.217 433.159 564.264 433.159 559.311 433.159C558.931 433.159 558.549 433.159 558.168 433.159C557.798 401.982 558.179 370.892 559.311 339.889Z" fill="#4F3D32"/>
<path fill-rule="evenodd" clip-rule="evenodd" d="M575.312 349.216C579.122 349.216 582.932 349.216 586.742 349.216C587.122 349.216 587.504 349.216 587.885 349.216C589.552 349.138 591.076 349.526 592.456 350.382C592.456 355.433 592.456 360.486 592.456 365.538C592.456 368.258 592.456 370.979 592.456 373.699C592.833 393.723 592.453 413.543 591.313 433.159C585.979 433.159 580.646 433.159 575.312 433.159C575.312 405.566 575.312 377.974 575.312 350.382C575.312 349.993 575.312 349.604 575.312 349.216Z" fill="#FE771A"/>
<path fill-rule="evenodd" clip-rule="evenodd" d="M575.312 350.382C575.312 377.974 575.312 405.566 575.312 433.159C570.203 434.308 564.869 434.696 559.311 434.324C559.311 433.936 559.311 433.547 559.311 433.159C564.264 433.159 569.217 433.159 574.169 433.159C573.791 405.365 574.172 377.773 575.312 350.382Z" fill="#7B4927"/>
<path fill-rule="evenodd" clip-rule="evenodd" d="M258.721 310.742C259.221 311.915 259.983 311.915 261.007 310.742C261.105 311.903 260.723 312.874 259.864 313.657C261.197 315.794 262.53 317.932 263.864 320.069C264.352 327.096 265.113 334.091 266.15 341.055C269.591 350.612 272.448 360.328 274.722 370.201C275.522 375.212 275.902 380.264 275.865 385.358C276.048 387.339 275.858 389.282 275.293 391.187C273.545 387.002 272.02 382.726 270.721 378.363C268.524 359.22 265.857 340.177 262.721 321.235C261.578 319.681 260.435 318.125 259.292 316.571C251.268 323.568 246.696 332.505 245.577 343.386C235.568 358.746 226.425 374.68 218.147 391.187C209.892 407.768 197.51 420.01 181.001 427.912C167.996 433.898 155.424 433.315 143.285 426.163C143.285 425.386 143.285 424.609 143.285 423.832C150.356 429.424 158.357 431.563 167.286 430.244C188.403 425.013 204.213 412.771 214.718 393.519C223.377 376.235 232.901 359.524 243.291 343.386C245.879 338.272 247.402 332.831 247.863 327.064C250.869 322.83 254.298 318.944 258.149 315.405C257.771 313.634 257.962 312.08 258.721 310.742Z" fill="#04050E"/>
<path fill-rule="evenodd" clip-rule="evenodd" d="M592.456 350.382C593.877 355.887 595.781 361.327 598.171 366.704C595.865 368.375 593.959 367.985 592.456 365.538C592.456 360.486 592.456 355.433 592.456 350.382Z" fill="#E1E9F3"/>
<path fill-rule="evenodd" clip-rule="evenodd" d="M338.726 329.396C339.488 329.396 340.249 329.396 341.012 329.396C338.609 334.507 336.895 339.948 335.868 345.718C331.024 369.93 325.691 394.025 319.867 418.002C319.298 421.479 319.107 424.976 319.296 428.495C318.915 428.495 318.534 428.495 318.153 428.495C318.153 424.22 318.153 419.946 318.153 415.67C323.54 395.573 327.731 375.365 330.725 355.045C333.106 346.397 335.772 337.846 338.726 329.396Z" fill="#756055"/>
<path fill-rule="evenodd" clip-rule="evenodd" d="M578.741 359.709C581.789 359.709 584.836 359.709 587.885 359.709C587.885 379.14 587.885 398.571 587.885 418.002C584.836 418.002 581.789 418.002 578.741 418.002C578.741 398.571 578.741 379.14 578.741 359.709Z" fill="#F6EFEA"/>
<path fill-rule="evenodd" clip-rule="evenodd" d="M617.601 384.192C618.05 386.272 618.811 388.214 619.887 390.021C620.267 391.187 621.03 391.965 622.172 392.353C627.276 403.348 632.229 414.424 637.031 425.58C636.65 426.552 636.268 427.524 635.888 428.495C632.963 429.787 630.296 431.341 627.887 433.159C625.639 433.437 623.543 433.049 621.601 431.993C611.981 412.429 602.266 392.998 592.456 373.699C592.456 370.979 592.456 368.258 592.456 365.538C593.959 367.985 595.865 368.375 598.171 366.704C600.69 365.018 603.356 364.046 606.171 363.789C610.14 370.527 613.949 377.328 617.601 384.192Z" fill="#8794BA"/>
<path fill-rule="evenodd" clip-rule="evenodd" d="M416.445 364.372C432.83 363.6 437.973 370.984 431.875 386.524C424.618 395.253 416.618 396.418 407.873 390.021C404.064 384.192 404.064 378.363 407.873 372.533C410.612 369.54 413.469 366.82 416.445 364.372Z" fill="#B3520D"/>
<path fill-rule="evenodd" clip-rule="evenodd" d="M274.722 370.201C281.738 382.954 288.787 395.778 295.866 408.675C302.034 414.965 309.464 417.297 318.153 415.671C318.153 419.946 318.153 424.22 318.153 428.495C304.057 428.495 289.961 428.495 275.865 428.495C275.865 429.661 275.865 430.827 275.865 431.993C275.054 433.047 273.912 433.435 272.436 433.159C272.414 431.34 272.034 429.591 271.293 427.912C275.682 421.868 277.968 415.067 278.151 407.509C277.652 399.921 276.89 392.537 275.865 385.358C275.903 380.264 275.522 375.212 274.722 370.201Z" fill="#E8E7EF"/>
<path fill-rule="evenodd" clip-rule="evenodd" d="M592.456 373.699C602.266 392.998 611.981 412.429 621.601 431.993C623.543 433.049 625.639 433.437 627.887 433.159C647.517 432.774 666.947 433.162 686.177 434.325C654.36 434.71 622.738 434.322 591.313 433.159C592.453 413.543 592.833 393.723 592.456 373.699Z" fill="#EAE4EA"/>
<path fill-rule="evenodd" clip-rule="evenodd" d="M245.006 366.704C245.459 365.509 246.221 365.314 247.291 366.121C251.511 375.089 257.988 381.696 266.721 385.941C263.267 386.132 260.219 384.966 257.578 382.443C252.244 377.991 248.053 372.744 245.006 366.704Z" fill="#03050F"/>
<path fill-rule="evenodd" clip-rule="evenodd" d="M318.153 428.495C318.534 428.495 318.915 428.495 319.296 428.495C320.058 428.495 320.439 428.883 320.439 429.661C306.246 431.935 291.769 432.712 277.008 431.993C276.627 431.993 276.245 431.993 275.865 431.993C275.865 430.827 275.865 429.661 275.865 428.495C289.961 428.495 304.057 428.495 318.153 428.495Z" fill="#983F01"/>
<path fill-rule="evenodd" clip-rule="evenodd" d="M320.439 429.661C375.68 429.661 430.923 429.661 486.164 429.661C486.164 430.439 486.164 431.215 486.164 431.993C484.783 432.848 483.26 433.237 481.592 433.159C413.204 433.546 345.01 433.157 277.008 431.993C291.769 432.712 306.246 431.934 320.439 429.661Z" fill="#2C1503"/>
<path fill-rule="evenodd" clip-rule="evenodd" d="M275.865 431.993C276.245 431.993 276.627 431.993 277.008 431.993C345.01 433.157 413.204 433.546 481.592 433.159C481.592 433.547 481.592 433.936 481.592 434.324C368.823 434.324 256.054 434.324 143.285 434.324C143.285 433.936 143.285 433.547 143.285 433.159C186.336 433.159 229.385 433.159 272.436 433.159C273.911 433.435 275.054 433.047 275.865 431.993Z" fill="#613218"/>
<path fill-rule="evenodd" clip-rule="evenodd" d="M486.164 431.993C502.725 433.154 519.488 433.542 536.453 433.159C543.691 433.159 550.93 433.159 558.168 433.159C558.549 433.159 558.931 433.159 559.311 433.159C559.311 433.547 559.311 433.936 559.311 434.324C533.404 434.324 507.499 434.324 481.592 434.324C481.592 433.936 481.592 433.547 481.592 433.159C483.26 433.237 484.783 432.848 486.164 431.993Z" fill="#C5967B"/>
<path fill-rule="evenodd" clip-rule="evenodd" d="M575.312 433.159C580.646 433.159 585.979 433.159 591.313 433.159C622.738 434.322 654.36 434.71 686.177 434.325C688.581 433.976 690.867 434.364 693.034 435.49C689.845 440.303 685.654 443.801 680.462 445.983C482.355 445.983 284.246 445.983 86.1383 445.983C82.6661 443.199 79.9997 439.702 78.1378 435.49C99.8398 434.325 121.555 433.936 143.285 434.325C256.054 434.325 368.823 434.325 481.592 434.325C507.499 434.325 533.405 434.325 559.311 434.325C564.869 434.696 570.204 434.308 575.312 433.159Z" fill="#B0510E"/>
<path fill-rule="evenodd" clip-rule="evenodd" d="M86.1383 445.983C284.246 445.983 482.354 445.983 680.462 445.983C666.646 453.723 651.788 458.582 635.888 460.557C464.068 461.334 292.246 461.334 120.426 460.557C107.775 458.275 96.3458 453.417 86.1383 445.983Z" fill="#6E3A15"/>
<path fill-rule="evenodd" clip-rule="evenodd" d="M676.754 122.507C674.219 119.935 672.268 117.134 670.897 114.102C676.495 106.418 673.566 102.496 662.113 102.334C661.988 111.13 661.013 111.13 659.185 102.334C649.972 101.988 643.627 98.6258 640.151 92.2478C639.759 89.3126 640.246 86.5108 641.615 83.8423C649.419 82.4616 657.227 81.1537 665.041 79.9198C669.723 80.0565 674.115 80.9901 678.218 82.7216C682.366 85.8966 686.515 89.0728 690.663 92.2478C692.014 93.967 692.746 95.8352 692.859 97.8514C691.382 102.75 689.673 107.606 687.735 112.421C686.093 117.233 682.433 120.595 676.754 122.507Z" fill="#714C3A"/>
<path fill-rule="evenodd" clip-rule="evenodd" d="M423.464 39.5736C533.392 39.0199 643.199 39.5803 752.887 41.2547C754.645 42.2667 755.866 43.5734 756.547 45.1772C757.279 111.672 757.524 178.169 757.279 244.667C756.667 245.476 755.692 246.036 754.351 246.348C749.495 246.906 744.615 247.093 739.71 246.908C734.341 246.908 728.974 246.908 723.605 246.908C720.71 217.919 715.586 189.155 708.232 160.612C702.91 151.357 695.102 143.512 684.806 137.077C684.089 135.628 683.844 134.133 684.074 132.594C682.61 132.594 681.146 132.594 679.682 132.594C678.022 129.377 677.047 126.015 676.754 122.507C682.433 120.595 686.093 117.233 687.735 112.421C689.673 107.606 691.382 102.75 692.859 97.8514C692.746 95.8352 692.014 93.967 690.663 92.2478C686.515 89.0727 682.366 85.8966 678.218 82.7216C674.115 80.9901 669.723 80.0565 665.041 79.9198C657.227 81.1537 649.419 82.4616 641.615 83.8423C640.246 86.5108 639.759 89.3126 640.151 92.2478C637.041 96.5289 636.309 101.012 637.955 105.696C635.204 107.968 633.495 110.583 632.831 113.542C634.782 113.542 636.735 113.542 638.687 113.542C636.943 122.497 641.825 127.355 653.328 128.111C654.977 129.577 654.977 131.072 653.328 132.594C653.294 135.314 652.562 137.929 651.132 140.439C645.166 145.555 639.552 150.786 634.295 156.129C627.699 160.612 627.353 154.63 625.984 151.161C623.945 144.272 621.762 134.671 618.922 128.111C618.434 134.462 617.945 140.812 617.458 147.163C616.264 144.784 614.8 142.543 613.065 140.439C613.024 148.067 615.015 155.172 617.984 162.487C624.685 164.938 629.771 168.667 634.295 172.94C634.295 182.279 634.295 191.619 634.295 200.958C621.605 198.344 608.918 195.728 596.228 193.113C594.604 192.228 592.653 191.668 590.372 191.432C572.315 190.685 554.257 190.685 536.2 191.432C550.652 197.828 566.27 200.443 583.051 199.277C585.53 200.227 587.971 201.16 590.372 202.079C587.356 207.446 589.795 209.875 597.692 209.364C609.97 214.063 622.172 218.733 634.295 223.373C634.295 224.12 634.295 224.867 634.295 225.614C634.295 232.712 634.295 239.811 634.295 246.908C571.338 246.908 508.382 246.908 445.426 246.908C440.521 247.093 435.641 246.906 430.785 246.348C427.041 245.58 424.356 243.899 422.732 241.305C421.514 173.873 421.759 106.629 423.464 39.5736Z" fill="#13A4C5"/>
<path fill-rule="evenodd" clip-rule="evenodd" d="M640.151 92.2478C643.627 98.6258 649.972 101.988 659.183 102.334C661.012 111.13 661.987 111.13 662.111 102.334C673.564 102.496 676.492 106.418 670.895 114.102C672.266 117.134 674.217 119.935 676.751 122.507C677.044 126.015 678.019 129.377 679.68 132.594C670.895 132.594 662.111 132.594 653.327 132.594C654.976 131.072 654.976 129.577 653.327 128.111C641.824 127.355 636.943 122.497 638.687 113.542C636.735 113.542 634.556 114.102 632.831 113.542C632.831 111.048 635.204 107.968 637.955 105.697C636.309 101.012 637.041 96.529 640.151 92.2478Z" fill="#D2997C"/>
<path fill-rule="evenodd" clip-rule="evenodd" d="M634.295 156.129C634.295 161.733 634.295 167.337 634.295 172.94C629.771 168.667 621.413 165.791 617.458 162.487C613.065 155.408 612.147 140.439 613.065 140.439C613.984 140.439 616.265 144.784 617.458 147.163C617.945 140.812 617.458 128.111 618.922 128.111C620.841 128.111 623.945 145.216 625.984 152.105C627.353 155.574 629.984 159.184 634.295 156.129Z" fill="#D59D81"/>
<path d="M608.167 147.091L609.309 150.971" stroke="#B7704B" stroke-linecap="round"/>
<path fill-rule="evenodd" clip-rule="evenodd" d="M653.328 132.594C662.113 132.594 670.897 132.594 679.682 132.594C681.146 132.594 682.61 132.594 684.074 132.594C683.845 134.133 684.089 135.628 684.806 137.077C695.102 143.512 702.91 151.357 708.232 160.612C715.586 189.155 720.711 217.919 723.605 246.908C693.836 246.908 664.065 246.908 634.295 246.908C634.295 239.811 634.295 232.712 634.295 225.614C641.492 228.275 648.813 228.461 656.256 226.175C660.174 224.113 662.858 221.311 664.309 217.769C665.286 211.792 666.261 205.814 667.237 199.838C669.218 201.166 670.927 202.661 672.362 204.321C672.849 203.947 673.338 203.573 673.826 203.2C670.767 200.869 668.327 198.254 666.505 195.355C667.583 189.411 668.315 183.434 668.701 177.423C669.921 176.49 671.142 175.555 672.362 174.621C671.385 173.874 670.41 173.874 669.433 174.621C667.129 176.668 665.909 179.096 665.773 181.906C664.728 191.988 663.751 202.075 662.845 212.166C662.895 220.905 657.283 225.388 646.008 225.614C641.856 225.514 637.951 224.766 634.295 223.373C622.172 218.733 609.97 214.063 597.692 209.364C589.795 209.875 587.356 207.446 590.372 202.079C592.053 198.953 594.004 195.964 596.228 193.113C608.918 195.728 621.606 198.344 634.295 200.958C634.295 191.619 634.295 182.279 634.295 172.94C634.295 167.337 634.295 161.733 634.295 156.129C639.553 150.786 645.166 145.555 651.132 140.439C652.563 137.929 653.295 135.314 653.328 132.594Z" fill="#172454"/>
<path fill-rule="evenodd" clip-rule="evenodd" d="M596.228 193.113C594.004 195.964 592.052 198.953 590.372 202.079C587.971 201.16 585.53 200.227 583.051 199.277C566.27 200.443 550.652 197.828 536.2 191.432C554.257 190.685 572.315 190.685 590.372 191.432C592.653 191.668 594.604 192.228 596.228 193.113Z" fill="#D59D7F"/>
<path d="M541.519 191.186C542.773 192.093 543.043 192.375 544.615 193.083C546.854 194.09 549.299 194.8 551.791 195.205C552.727 195.358 553.65 195.349 554.59 195.411C554.976 195.437 555.34 195.483 555.732 195.483" stroke="#B7704B" stroke-linecap="round"/>
<path fill-rule="evenodd" clip-rule="evenodd" d="M634.295 225.614C634.295 224.867 634.295 224.12 634.295 223.373C637.951 224.766 641.856 225.514 646.008 225.614C657.283 225.388 662.895 220.905 662.845 212.166C663.751 202.075 664.728 191.988 665.773 181.906C665.909 179.096 667.129 176.668 669.433 174.621C670.41 173.874 671.385 173.874 672.362 174.621C671.142 175.555 669.921 176.49 668.701 177.423C668.315 183.434 667.583 189.411 666.505 195.355C668.326 198.254 670.767 200.869 673.826 203.2C673.338 203.573 672.849 203.947 672.362 204.321C670.927 202.661 669.218 201.166 667.237 199.838C666.261 205.814 665.286 211.792 664.309 217.769C662.858 221.311 660.174 224.113 656.256 226.175C648.813 228.461 641.492 228.275 634.295 225.614Z" fill="#0C132C"/>
<path fill-rule="evenodd" clip-rule="evenodd" d="M710.428 195.355C711.403 201.882 711.892 208.606 711.892 215.528C712.11 222.81 711.378 229.908 709.696 236.822C708.63 222.975 708.873 209.153 710.428 195.355Z" fill="#0C142F"/>
<path d="M673.432 136.023C673.432 136.023 650.462 136.023 646.797 136.023C643.132 136.023 642.909 138.143 642.354 139.555" stroke="#0C142F" stroke-linecap="round"/>
<path d="M656.138 108.825C657.576 108.263 659.694 107.037 659.093 105.528" stroke="#B7704B" stroke-linecap="round"/>
<path d="M654.59 103.762C656.978 104.561 661.008 104.599 661.884 107.117C662.099 107.736 661.917 109.251 661.204 109.649" stroke="#B7704B" stroke-linecap="round"/>
<path d="M630.245 116.36C631.766 116.132 633.184 115.545 634.56 114.973C637.203 113.875 634.387 115.04 635.967 114.293C636.417 114.081 635.623 115.113 635.358 115.484C634.517 116.655 633.383 117.969 631.871 118.591C631.544 118.725 630.882 118.529 630.526 118.48" stroke="#B7704B" stroke-linecap="round"/>
<path d="M628.275 98.6988C629.806 98.6211 631.295 98.5183 632.746 99.0521C633.407 99.2949 633.91 99.7097 634.607 99.8763" stroke="#B7704B" stroke-linecap="round"/>
<ellipse cx="630.667" cy="101.878" rx="1.12579" ry="1.88388" fill="#020202"/>
<rect x="481.111" y="122.254" width="55.6359" height="15.6902" rx="3" fill="#8794BA"/>
<path d="M476.779 129.28C476.779 129.28 483.989 125.924 483.989 129.28C483.989 132.635 494.084 125.924 494.084 129.28C494.084 132.635 501.295 126.483 501.295 129.28C501.295 132.076 520.764 129.28 520.764 129.28H525.811" stroke="black" stroke-linecap="round"/>
<ellipse cx="449.378" cy="129.839" rx="10.095" ry="7.8294" fill="#B2520E"/>
<path d="M460.849 125.808C460.567 125.552 460.112 125.552 459.83 125.808L453.974 131.143L452.613 129.902C452.332 129.646 451.876 129.646 451.594 129.902L450.576 130.83C450.295 131.086 450.295 131.502 450.576 131.758L452.447 133.462L453.465 134.39C453.746 134.646 454.203 134.646 454.484 134.39L455.502 133.462L461.867 127.664C462.148 127.408 462.148 126.992 461.867 126.736L460.849 125.808Z" fill="#8491B7"/>
<rect x="481.111" y="103.202" width="55.6359" height="15.6902" rx="3" fill="#8794BA"/>
<path d="M476.779 110.265C476.779 110.265 483.989 106.91 483.989 110.265C483.989 113.621 494.084 106.91 494.084 110.265C494.084 113.621 501.295 107.469 501.295 110.265C501.295 113.062 520.764 110.265 520.764 110.265H525.811" stroke="black" stroke-linecap="round"/>
<ellipse cx="449.378" cy="110.825" rx="10.095" ry="7.8294" fill="#B2520E"/>
<path d="M460.849 106.756C460.567 106.5 460.112 106.5 459.83 106.756L453.974 112.09L452.613 110.85C452.332 110.594 451.876 110.594 451.594 110.85L450.576 111.778C450.295 112.034 450.295 112.449 450.576 112.706L452.447 114.41L453.465 115.338C453.746 115.594 454.203 115.594 454.484 115.338L455.502 114.41L461.867 108.611C462.148 108.355 462.148 107.94 461.867 107.684L460.849 106.756Z" fill="#8491B7"/>
<rect x="481.111" y="84.1493" width="55.6359" height="15.6902" rx="3" fill="#8794BA"/>
<path d="M476.779 91.2512C476.779 91.2512 483.989 87.8957 483.989 91.2512C483.989 94.6066 494.084 87.8957 494.084 91.2512C494.084 94.6066 501.295 88.455 501.295 91.2512C501.295 94.0474 520.764 91.2512 520.764 91.2512H525.811" stroke="black" stroke-linecap="round"/>
<ellipse cx="449.378" cy="91.8104" rx="10.095" ry="7.8294" fill="#B2520E"/>
<path d="M460.849 87.7036C460.567 87.4474 460.112 87.4474 459.83 87.7036L453.974 93.038L452.613 91.7977C452.332 91.5415 451.876 91.5415 451.594 91.7977L450.576 92.7254C450.295 92.9816 450.295 93.3969 450.576 93.6532L452.447 95.3574L453.465 96.2851C453.746 96.5413 454.203 96.5413 454.484 96.2851L455.502 95.3574L461.867 89.559C462.148 89.3028 462.148 88.8875 461.867 88.6313L460.849 87.7036Z" fill="#8491B7"/>
<path fill-rule="evenodd" clip-rule="evenodd" d="M755.588 246.488C755.832 179.413 755.588 112.338 754.859 45.265C754.181 43.6473 752.965 42.3292 751.214 41.3084C641.967 39.6195 532.6 39.0542 423.114 39.6127C424.266 38.1499 425.724 36.8306 427.489 35.6561C537.401 34.7178 647.253 34.9066 757.046 36.2213C758.261 37.3518 759.477 38.4822 760.692 39.6127C761.665 107.441 761.665 175.269 760.692 243.097C760.077 245.274 758.375 246.404 755.588 246.488Z" fill="#11677A"/>
<path fill-rule="evenodd" clip-rule="evenodd" d="M446.406 246.488C507.514 246.488 568.623 246.488 629.732 246.488C658.628 246.488 687.525 246.488 716.421 246.488C721.632 246.488 726.842 246.488 732.053 246.488C732.099 252.724 728.309 257.321 720.684 260.279C710.796 261.469 700.848 262.49 690.84 263.344C680.405 266.075 669.982 268.8 659.576 271.517C637.785 271.857 615.994 272.198 594.203 272.539C569.051 275.558 543.944 275.558 518.883 272.539C508.448 269.808 498.025 267.083 487.618 264.366C476.642 263.624 465.747 262.603 454.932 261.301C447.646 257.795 444.804 252.857 446.406 246.488Z" fill="#B2520F"/>
</svg>
