<svg width="31" height="31" viewBox="0 0 31 31" fill="none" xmlns="http://www.w3.org/2000/svg">
<path d="M29.2624 1.06295C28.9633 1.22812 25.7089 2.996 22.0323 5.00245C18.3556 7.00278 12.2103 10.355 8.36945 12.441C4.53448 14.5331 1.33281 16.3071 1.25658 16.3805C1.08067 16.5457 0.95166 16.8515 0.95166 17.0962C0.95166 17.3409 1.15103 17.7385 1.32695 17.8609C1.53218 18.0016 9.34285 20.7788 9.43081 20.7421C9.47185 20.7237 10.5977 19.7389 11.9288 18.5521C13.2599 17.3592 16.9131 14.1049 20.0385 11.3215C23.1698 8.53209 25.791 6.19531 25.8731 6.1219L26.0138 5.99344L25.8731 6.17696C25.791 6.28095 22.9177 9.89623 19.4815 14.215C16.0452 18.5276 13.2306 22.0817 13.2189 22.1001C13.213 22.1368 25.8027 26.6574 26.4419 26.8532C26.7409 26.9388 27.257 26.6697 27.4211 26.3455C27.5384 26.1069 30.9981 1.78479 30.9512 1.52786C30.9043 1.26482 30.658 0.952845 30.4058 0.84885C30.0716 0.702038 29.8429 0.744858 29.2624 1.06295Z" fill="#FF7514"/>
<path d="M11.917 26.9144C11.917 30.3462 11.9111 30.2728 12.2454 30.548C12.6324 30.8661 13.1543 30.8356 13.4827 30.4808C13.7172 30.2177 16.9775 25.5931 16.9423 25.5625C16.9189 25.538 11.9874 23.764 11.9405 23.764C11.9287 23.764 11.917 25.1832 11.917 26.9144Z" fill="#FF7514"/>
</svg>
