<svg width="62" height="62" viewBox="0 0 62 62" fill="none" xmlns="http://www.w3.org/2000/svg">
<path d="M13.8279 1.81647L13.488 2.15631V5.75397V9.35162L13.8279 9.69147C14.3552 10.2071 14.7185 10.1485 15.7966 9.35162C19.0779 6.92584 23.0974 5.39069 27.6677 4.80475C29.2615 4.60553 32.5896 4.58209 34.1365 4.75787C38.3552 5.23834 42.4568 6.76178 46.113 9.18756C47.5076 10.1133 47.8474 10.2071 48.363 9.75006C48.7615 9.41022 48.8083 8.76569 48.4685 8.37897C47.6951 7.51178 43.6052 5.22662 41.2615 4.35944C38.1443 3.211 35.4255 2.68366 31.9451 2.56647C26.449 2.37897 20.7185 3.79694 16.4763 6.3985C16.0544 6.65631 15.6794 6.86725 15.656 6.86725C15.6208 6.86725 15.5974 5.89459 15.5974 4.711C15.5974 2.34381 15.5154 1.91022 14.9998 1.65241C14.5076 1.39459 14.2146 1.44147 13.8279 1.81647Z" fill="#FF7514"/>
<path d="M27.785 10.0313C23.5076 10.711 19.6756 12.5274 16.4998 15.3985C8.23809 22.9102 6.9959 35.4141 13.6404 44.3907C20.7654 54.0118 34.3475 56.0274 43.9803 48.9024C49.5115 44.8008 52.7459 38.379 52.7459 31.4766C52.7459 21.668 46.242 13.1602 36.7498 10.5352C34.0662 9.79693 30.5389 9.59771 27.785 10.0313ZM33.7615 12.0352C36.2576 12.3516 39.0584 13.3477 41.2498 14.7071C46.2654 17.8126 49.5818 22.7696 50.4725 28.4883C50.7068 30.0235 50.7068 32.9297 50.4725 34.4649C49.2654 42.1524 43.7107 48.3516 36.1053 50.461C33.8787 51.0704 30.4568 51.2579 28.0779 50.8829C19.6287 49.5587 12.9842 42.9141 11.66 34.4649C11.4256 32.9297 11.4256 30.0235 11.66 28.4883C12.7732 21.3516 17.7654 15.3516 24.5623 12.961C27.5272 11.918 30.4334 11.6251 33.7615 12.0352Z" fill="#FF7514"/>
<path d="M30.3982 14.1798C30.0701 14.4611 30.0701 14.4728 30.0701 15.9493C30.0701 17.4259 30.0701 17.4376 30.3982 17.7189C30.5857 17.8712 30.8787 18.0001 31.0662 18.0001C31.2537 18.0001 31.5466 17.8712 31.7341 17.7189C32.0623 17.4376 32.0623 17.4259 32.0623 15.9493C32.0623 14.4728 32.0623 14.4611 31.7341 14.1798C31.5466 14.0275 31.2537 13.8986 31.0662 13.8986C30.8787 13.8986 30.5857 14.0275 30.3982 14.1798Z" fill="#FF7514"/>
<path d="M18.9256 18.8673C18.4334 19.0782 18.2342 19.629 18.4569 20.1447C18.6561 20.6017 20.1795 22.1017 20.4842 22.1134C21.328 22.172 21.7616 21.7384 21.703 20.8947C21.6912 20.59 20.1912 19.0665 19.7342 18.8673C19.2889 18.6798 19.3709 18.6798 18.9256 18.8673Z" fill="#FF7514"/>
<path d="M42.3747 18.8672C41.9294 19.0665 40.4411 20.6016 40.4294 20.8946C40.3942 21.3516 40.4645 21.586 40.7106 21.8321C40.9567 22.0782 41.1911 22.1485 41.6481 22.1133C41.9528 22.1016 43.4763 20.6016 43.6755 20.1446C44.027 19.3243 43.195 18.504 42.3747 18.8672Z" fill="#FF7514"/>
<path d="M30.3982 20.3907L30.0701 20.672L30.0349 25.547L29.9998 30.422H27.363C24.4451 30.422 24.1638 30.4806 23.9412 31.1251C23.8474 31.3712 23.8474 31.5822 23.9412 31.8282C24.1638 32.4962 24.3865 32.5314 28.0779 32.5314H31.4412L31.781 32.1798L32.1326 31.84L32.0974 26.2618L32.0623 20.672L31.7341 20.3907C31.3123 20.0275 30.8201 20.0275 30.3982 20.3907Z" fill="#FF7514"/>
<path d="M14.1208 30.5275C13.4763 30.8087 13.3122 31.6056 13.7692 32.1447C14.0505 32.4728 14.0622 32.4728 15.5388 32.4728C17.0153 32.4728 17.027 32.4728 17.3083 32.1447C17.6716 31.7228 17.6716 31.2306 17.3083 30.8087C17.027 30.4923 16.9919 30.4806 15.6911 30.4572C14.9645 30.4337 14.2497 30.4806 14.1208 30.5275Z" fill="#FF7514"/>
<path d="M45.1755 30.5275C44.531 30.8087 44.3669 31.6056 44.8239 32.1447C45.1052 32.4728 45.1169 32.4728 46.5935 32.4728C48.07 32.4728 48.0817 32.4728 48.363 32.1447C48.7263 31.7228 48.7263 31.2306 48.363 30.8087C48.0817 30.4923 48.0466 30.4806 46.7458 30.4572C46.0192 30.4337 45.3044 30.4806 45.1755 30.5275Z" fill="#FF7514"/>
<path d="M20.3201 40.9102C19.8983 41.0977 18.574 42.4571 18.4217 42.8673C18.117 43.6759 18.9256 44.4259 19.7342 44.086C20.1912 43.8985 21.6912 42.3634 21.7029 42.0587C21.7381 41.6134 21.6678 41.3673 21.4334 41.1329C21.1404 40.8048 20.742 40.7345 20.3201 40.9102Z" fill="#FF7514"/>
<path d="M41.1911 40.8282C40.6989 40.8985 40.3825 41.4142 40.4294 42.0587C40.4411 42.3634 41.9411 43.8868 42.3981 44.086C42.82 44.2735 43.195 44.1798 43.4997 43.8282C44.0036 43.2423 43.8278 42.7384 42.7731 41.7071C41.9997 40.9688 41.6247 40.7462 41.1911 40.8282Z" fill="#FF7514"/>
<path d="M30.3982 45.2345C30.0701 45.5157 30.0701 45.5275 30.0701 47.004C30.0701 48.4806 30.0701 48.4923 30.3982 48.7736C30.8201 49.1368 31.3123 49.1368 31.7341 48.7736C32.0623 48.4923 32.0623 48.4806 32.0623 47.004C32.0623 45.5275 32.0623 45.5157 31.7341 45.2345C31.5466 45.0822 31.2537 44.9532 31.0662 44.9532C30.8787 44.9532 30.5857 45.0822 30.3982 45.2345Z" fill="#FF7514"/>
<path d="M8.3318 13.8634C7.96852 14.004 7.68727 14.3439 6.78493 15.715C4.51149 19.172 2.97633 23.2853 2.35524 27.6095C2.1443 29.0978 2.07399 32.5782 2.22633 34.1134C2.67164 38.5782 4.0193 42.8439 5.98805 46.0665C6.24586 46.4884 6.4568 46.8634 6.4568 46.8868C6.4568 46.922 5.48414 46.9454 4.30055 46.9454C1.93336 46.9454 1.49977 47.0275 1.24196 47.5431C0.984144 48.0353 1.03102 48.3282 1.40602 48.715L1.74586 49.0548H5.34352H8.94118L9.28102 48.715C9.79664 48.1876 9.73805 47.8243 8.94118 46.7462C6.51539 43.465 4.98024 39.4454 4.3943 34.8751C4.19508 33.2814 4.17164 29.9532 4.34743 28.4064C4.82789 24.1876 6.35133 20.0861 8.77711 16.4298C9.32789 15.5978 9.62086 15.0587 9.62086 14.8361C9.62086 14.2267 8.85914 13.6642 8.3318 13.8634Z" fill="#FF7514"/>
<path d="M52.8513 14.2384C52.3356 14.7657 52.3942 15.129 53.1911 16.2071C55.6169 19.4884 57.152 23.5079 57.738 28.0782C57.9372 29.672 57.9606 33.0001 57.7849 34.547C57.2927 38.8243 55.8044 42.8321 53.3434 46.5353C52.4294 47.9181 52.3356 48.2579 52.7927 48.7735C53.1325 49.172 53.777 49.2189 54.1638 48.879C54.6325 48.4571 56.2614 45.8556 57.0231 44.3087C60.738 36.7267 61.0075 28.1954 57.7966 20.1915C57.3513 19.0665 56.7536 17.8829 56.1442 16.8868C55.8864 16.465 55.6755 16.09 55.6755 16.0665C55.6755 16.0314 56.6481 16.0079 57.8317 16.0079C60.1989 16.0079 60.6325 15.9259 60.8903 15.4103C61.1481 14.9181 61.1013 14.6251 60.7263 14.2384L60.3864 13.8985H56.7888H53.1911L52.8513 14.2384Z" fill="#FF7514"/>
<path d="M13.7693 53.2032C13.3709 53.5431 13.324 54.1876 13.6756 54.5743C14.0857 55.0431 16.6873 56.672 18.2342 57.4337C25.8162 61.1485 34.3474 61.4181 42.3513 58.2071C43.4763 57.7618 44.6599 57.1642 45.656 56.5548C46.0779 56.297 46.4529 56.086 46.4763 56.086C46.5115 56.086 46.5349 57.0587 46.5349 58.2423C46.5349 60.6095 46.617 61.0431 47.1326 61.3009C47.6248 61.5587 47.9177 61.5118 48.3045 61.1368L48.6443 60.797V57.1993V53.6017L48.3045 53.2618C47.7771 52.7462 47.4138 52.8048 46.3357 53.6017C43.0545 56.0275 39.0349 57.5626 34.4646 58.1485C32.8709 58.3478 29.5427 58.3712 27.9959 58.1954C23.7185 57.7032 19.7107 56.215 16.0076 53.754C14.6248 52.84 14.2849 52.7462 13.7693 53.2032Z" fill="#FF7514"/>
</svg>
