<svg width="62" height="62" viewBox="0 0 62 62" fill="none" xmlns="http://www.w3.org/2000/svg">
<path d="M54.9082 1.77771C48.9316 2.3988 43.5879 3.92224 38.6777 6.41833C35.2324 8.16443 33.3574 9.31287 30.709 11.3168C26.6191 14.3988 22.3887 18.8636 19.6348 22.9886C19.2949 23.5043 18.9199 24.0316 18.8027 24.1605L18.5918 24.3949L14.8066 24.1371C12.7207 23.9965 10.9043 23.8793 10.7637 23.8793C10.0957 23.8558 9.95508 24.1488 6.75586 32.3636C5.06836 36.6761 3.69727 40.3324 3.69727 40.4847C3.69727 40.8949 4.20117 41.3285 4.68164 41.3285C5.0332 41.3285 5.49023 41.0355 7.70508 39.3832L10.3066 37.4261L11.4199 37.6371C12.041 37.7543 12.709 37.9066 12.8965 37.9886C13.0957 38.0707 14.0801 38.9847 15.0996 40.0043L16.9629 41.8793L16.4004 42.8754L15.8379 43.8832L15.3223 43.6605C14.6074 43.3441 13.3652 43.1801 12.5449 43.2621C10.4707 43.4965 8.57227 44.6332 7.50586 46.309C7.00195 47.1058 1.00195 60.3246 1.00195 60.6527C1.00195 60.9926 1.61133 61.6019 1.95117 61.6019C2.2793 61.6019 15.498 55.6019 16.2949 55.098C16.9629 54.6644 17.9355 53.6801 18.3809 52.9535C18.5566 52.684 18.8379 52.0511 19.0137 51.559C19.2598 50.809 19.3184 50.434 19.3184 49.473C19.3184 48.348 19.2363 47.973 18.7676 46.8246C18.6973 46.6722 18.8848 46.5082 19.5762 46.0863C20.0684 45.7933 20.502 45.5472 20.5488 45.5472C20.5957 45.5472 21.5449 46.4613 22.6465 47.5746C24.8496 49.7894 24.6504 49.473 25.0371 51.5355L25.1777 52.2972L23.2207 54.8988C21.5801 57.1019 21.2754 57.5707 21.2754 57.9105C21.2754 58.3676 21.5684 58.7426 22.0371 58.8597C22.2598 58.9183 24.2871 58.1683 30.2168 55.8597C38.4551 52.6488 38.748 52.5082 38.7246 51.8402C38.7246 51.6996 38.6074 49.8832 38.4668 47.7972L38.209 44.0121L38.4434 43.8011C38.5723 43.684 39.0996 43.309 39.6152 42.9691C44.4316 39.7582 49.248 34.9769 52.6934 29.9613C54.4277 27.4535 56.6895 23.2347 57.7676 20.4808C59.7832 15.3949 60.9902 9.27771 61.002 4.20349C61.002 2.36365 60.9082 1.98865 60.3574 1.74255C59.959 1.55505 56.8652 1.57849 54.9082 1.77771ZM58.9512 3.69958C59.0684 3.8988 58.7871 7.88318 58.541 9.61755C58.0723 12.8402 57.252 16.0511 56.0566 19.2738L55.4355 20.9379L48.6152 14.1176C44.8652 10.3676 41.8301 7.25037 41.8887 7.19177C42.0762 7.00427 45.1582 5.90271 46.9395 5.3988C50.0684 4.50818 53.3027 3.92224 56.3145 3.72302C58.4238 3.5824 58.8691 3.5824 58.9512 3.69958ZM47.2207 15.5355L54.5918 22.9066L53.9707 24.0551C48.9902 33.348 41.9004 40.1215 31.7637 45.2543C29.6543 46.3207 26.1621 47.891 25.8926 47.891C25.834 47.891 25.0371 47.141 24.1113 46.2152L22.4473 44.5511L26.6074 41.9261C28.9043 40.4847 30.8262 39.2074 30.8848 39.0902C30.9551 38.973 31.002 37.4847 31.002 35.5511V32.223L30.6973 31.9066L30.3809 31.6019H26.6543C22.9512 31.6019 22.9277 31.6019 22.6348 31.8597C22.4707 32.0121 21.3574 33.9105 20.1504 36.1019L17.959 40.0629L16.3184 38.4105L14.666 36.7699L15.1699 35.5043C15.9785 33.5004 18.2285 29.0238 19.459 26.9847C23.5723 20.1293 28.8457 14.6566 35.1738 10.6488C36.4746 9.81677 39.5098 8.16443 39.7324 8.16443C39.8027 8.16443 43.166 11.4808 47.2207 15.5355ZM14.7715 26.1527C16.1895 26.2582 17.3496 26.3519 17.373 26.3754C17.3965 26.3871 17.1621 26.8207 16.8691 27.3363C16.1426 28.5902 13.916 33.1605 13.3652 34.5316C13.1191 35.141 12.873 35.6918 12.8262 35.7504C12.7676 35.809 12.1582 35.7386 11.373 35.5863C9.76758 35.2699 9.89648 35.2347 8.25586 36.4769C7.61133 36.9691 7.06055 37.3441 7.03711 37.3207C6.99023 37.2855 10.8926 27.2074 11.3145 26.2347C11.4551 25.9183 11.4082 25.9183 14.7715 26.1527ZM29.0098 35.809V38.0238L28.6348 38.2582C28.2598 38.4808 18.6621 44.2816 17.9004 44.7504L17.502 44.9965L17.8652 44.3636C18.0527 44.0121 18.3926 43.4144 18.6152 43.0277C18.8496 42.641 20.1152 40.3558 21.4512 37.9535L23.877 33.5941H26.4434H29.0098V35.809ZM14.3965 45.4535C14.6309 45.5238 14.8301 45.6058 14.8301 45.6293C14.8301 45.6527 14.6191 46.0511 14.3496 46.5199C13.6816 47.6918 13.6465 48.0199 14.1152 48.4886C14.5957 48.9574 14.9238 48.9222 16.0957 48.2308C16.5645 47.9613 16.9629 47.7621 16.998 47.7972C17.0215 47.8207 17.1387 48.184 17.2441 48.5941C17.7129 50.4457 16.6699 52.6488 14.8535 53.6097C14.3027 53.9027 5.73633 57.8285 4.42383 58.391L4.04883 58.5551L4.21289 58.1801C4.77539 56.8676 8.70117 48.3011 8.99414 47.7504C9.63867 46.5433 10.916 45.5941 12.2754 45.3129C12.8262 45.2074 13.7051 45.266 14.3965 45.4535ZM36.3105 45.9808C36.5215 48.266 36.6504 51.0785 36.5566 51.1722C36.416 51.3011 25.3418 55.6254 25.2832 55.5668C25.2598 55.5433 25.6348 54.9926 26.127 54.348C27.3691 52.7074 27.334 52.8363 27.0176 51.2308C26.8652 50.4457 26.7949 49.8363 26.8535 49.7777C26.9121 49.7308 27.4629 49.4847 28.0723 49.2386C29.4434 48.6879 34.5762 46.1801 35.4551 45.6176C35.8066 45.3949 36.1348 45.2074 36.1699 45.2074C36.2168 45.1957 36.2754 45.5472 36.3105 45.9808Z" fill="#FF7514"/>
<path d="M37.0957 15.1488C36.6738 15.2426 35.8652 15.5473 35.2793 15.8402C32.6543 17.1293 30.9316 19.5199 30.5332 22.4613C29.7832 27.9692 34.6347 32.8207 40.1425 32.0707C43.0839 31.6723 45.4746 29.9496 46.7636 27.3246C47.455 25.9184 47.6894 24.7817 47.6074 23.1059C47.5136 20.809 46.7636 19.1215 45.123 17.4809C44.0449 16.4027 43.0605 15.7934 41.7246 15.3481C40.5527 14.9613 38.3144 14.8676 37.0957 15.1488ZM40.6699 17.1293C41.8535 17.434 42.8261 17.9965 43.7168 18.8871C45.0058 20.1762 45.6504 21.7231 45.6504 23.516C45.6504 25.2738 45.0761 26.7387 43.8925 28.016C42.6035 29.4106 40.998 30.1137 39.0879 30.1137C37.2246 30.1254 35.6894 29.4926 34.4004 28.2035C33.1113 26.9145 32.4785 25.3793 32.4902 23.516C32.4902 21.6059 33.1933 20.0004 34.5879 18.7113C35.4199 17.9496 36.4511 17.3754 37.4004 17.141C38.3261 16.9184 39.8144 16.9184 40.6699 17.1293Z" fill="#FF7514"/>
<path d="M38.1621 18.8402C37.3886 18.9925 36.2754 19.5667 35.7597 20.0706C33.8027 22.0159 33.7793 24.9925 35.6894 26.9144C37.5293 28.7425 40.4238 28.8128 42.2871 27.0433C42.8261 26.5394 42.873 26.0003 42.4277 25.5667C42.0058 25.1448 41.4902 25.18 40.8574 25.6839C38.6894 27.4066 35.666 25.4027 36.3925 22.7191C36.5449 22.1331 37.1894 21.3597 37.7871 21.055C38.7832 20.5511 39.7675 20.6566 40.8222 21.3714C41.1855 21.6175 41.584 21.7933 41.7949 21.7933C42.2871 21.7933 42.7207 21.348 42.7207 20.8441C42.7207 20.0472 41.3027 19.0628 39.8261 18.8284C39.0527 18.6995 38.8769 18.6995 38.1621 18.8402Z" fill="#FF7514"/>
</svg>
