<svg width="62" height="59" viewBox="0 0 62 59" fill="none" xmlns="http://www.w3.org/2000/svg">
<path d="M3.86929 0.918091C2.79117 1.31653 1.9357 2.1134 1.43179 3.20325L1.17398 3.76575L1.13882 23.3361C1.11539 37.7736 1.13882 43.0704 1.23257 43.5509C1.31461 43.9025 1.49039 44.4064 1.64273 44.6759C2.00601 45.297 2.8732 46.0939 3.55289 46.3986C4.10367 46.6564 4.12711 46.6564 14.5568 46.6915L25.0216 46.7267V47.1134C25.0216 47.8751 24.6701 49.3165 24.3068 50.1368C24.0373 50.7111 23.7326 51.1212 23.2521 51.5665C22.3029 52.4572 21.8576 52.5861 19.4552 52.6798C17.838 52.7501 17.3693 52.8087 16.9357 53.0079C16.2794 53.2892 15.6818 53.8868 15.4005 54.5079C15.1076 55.1407 15.1076 56.3361 15.4005 56.9689C15.6701 57.5665 16.5959 58.3868 17.1584 58.5509C17.7326 58.715 44.4982 58.715 45.0724 58.5509C45.6349 58.3868 46.5607 57.5665 46.8302 56.9689C47.1232 56.3361 47.1232 55.1407 46.8302 54.5079C46.549 53.8868 45.9513 53.2892 45.2951 53.0079C44.8615 52.8087 44.3927 52.7501 42.7755 52.6798C40.3732 52.5861 39.9279 52.4572 38.9787 51.5665C38.4982 51.1212 38.2052 50.7228 37.9357 50.1486C37.5607 49.3282 37.2091 47.8634 37.2091 47.1368V46.7267L47.674 46.6915C58.1037 46.6564 58.1271 46.6564 58.6779 46.3986C59.3576 46.0939 60.2248 45.297 60.588 44.6759C60.7404 44.4064 60.9162 43.9025 60.9982 43.5509C61.0919 43.0704 61.1154 37.7736 61.0919 23.3361L61.0568 3.76575L60.7404 3.09778C60.3654 2.28918 59.6154 1.52747 58.8302 1.12903L58.2443 0.83606L31.2326 0.812622C11.9904 0.800903 4.11539 0.83606 3.86929 0.918091ZM58.0334 2.96887C58.256 3.07434 58.5841 3.36731 58.7482 3.62512L59.0646 4.10559V20.3947V36.6954L58.1037 36.7306L57.131 36.7657V21.1681C57.131 5.05481 57.1427 5.26575 56.674 4.91418C56.4044 4.70325 5.82632 4.70325 5.55679 4.91418C5.08804 5.26575 5.09976 5.05481 5.09976 21.1681V36.7657L4.13882 36.7306L3.16617 36.6954V20.3947V4.10559L3.47086 3.63684C4.10367 2.68762 1.40836 2.76965 31.0919 2.76965C55.549 2.76965 57.6584 2.78137 58.0334 2.96887ZM55.1388 21.6954V36.6368H31.1154H7.09195V21.6954V6.75403H31.1154H55.1388V21.6954ZM59.1232 40.9142C59.1232 43.2931 59.0646 43.5978 58.4669 44.1603C58.2794 44.3361 57.9748 44.5353 57.799 44.5939C57.5646 44.6876 49.4435 44.7228 31.1037 44.7228C2.40445 44.7228 4.32632 44.7697 3.67007 44.0665C3.16617 43.5157 3.10757 43.1993 3.10757 40.9025V38.7462H31.1154H59.1232V40.9142ZM35.1466 46.9728C35.1701 47.1251 35.2521 47.6759 35.3341 48.2032C35.5451 49.7618 36.2951 51.6486 37.0099 52.422L37.2443 52.6915H31.1154H24.9865L25.2209 52.422C25.9357 51.6486 26.6857 49.7618 26.8966 48.2032C26.9787 47.6759 27.0607 47.1251 27.0841 46.9728L27.131 46.715H31.1154H35.0998L35.1466 46.9728ZM44.7794 55.047C45.1427 55.3868 45.1544 56.0314 44.8029 56.4064L44.5568 56.6759H31.1271H17.7091L17.4396 56.4181C16.9357 55.9493 17.1818 54.9884 17.838 54.7892C17.9201 54.7657 23.9552 54.754 31.2443 54.7657L44.4982 54.7775L44.7794 55.047Z" fill="#FF7514"/>
<path d="M14.4163 9.03918L14.1233 9.32043V19.1642V29.0079L14.4045 29.3361L14.6858 29.6642L26.4397 29.7228L38.1936 29.7814L38.7092 31.4806C39.26 33.3321 39.5061 33.7071 40.1624 33.7071C40.4436 33.7071 40.6897 33.5314 41.3811 32.8634L42.26 32.0196L43.5139 33.2736C44.7795 34.5392 45.1194 34.7618 45.5881 34.6681C45.7405 34.6446 46.5959 33.8712 47.51 32.9571C49.6428 30.8009 49.6311 30.9884 47.8147 29.1486L46.4788 27.7892L47.2874 26.9571C47.9436 26.2892 48.1077 26.0431 48.1077 25.7618C48.1077 25.1056 47.7327 24.8595 45.8811 24.3087L44.1819 23.7931L44.1467 16.5743L44.1233 9.36731L43.8303 9.0509L43.5491 8.74621H29.1233H14.6975L14.4163 9.03918ZM42.1311 12.2032V13.6681H29.1233H16.1155V12.2032V10.7384H29.1233H42.1311V12.2032ZM42.1311 19.4806C42.1311 22.3986 42.0959 23.172 41.9905 23.1251C41.1819 22.8204 37.3733 21.754 37.0803 21.754C36.553 21.754 36.1545 22.1525 36.1545 22.6564C36.1545 22.9611 37.2209 26.7579 37.5256 27.5782C37.5725 27.6954 35.3928 27.7306 26.8499 27.7306H16.1155V21.754V15.7775H29.1233H42.1311V19.4806ZM42.9514 25.5275C44.0764 25.8556 45.0491 26.1486 45.0959 26.172C45.1428 26.2071 44.9788 26.4532 44.7327 26.7228C43.8186 27.7189 43.9006 28.0001 45.5061 29.629L46.7483 30.8946L46.0569 31.5978L45.3655 32.3009L44.1233 31.0821C42.5178 29.5001 42.0725 29.4064 41.0647 30.3907C40.8303 30.6134 40.6077 30.754 40.5725 30.6954C40.5491 30.6486 40.2561 29.6759 39.928 28.5509C39.5999 27.4259 39.178 25.9962 38.9905 25.3751L38.6506 24.2501L39.7756 24.59C40.3967 24.7775 41.8264 25.1993 42.9514 25.5275Z" fill="#FF7514"/>
<path d="M18.4826 19.9962C18.1076 20.3477 18.0842 20.547 18.131 22.961C18.1662 25.0587 18.1779 25.1524 18.4357 25.4102C18.6935 25.6798 18.7053 25.6798 22.8889 25.7149C25.1857 25.7384 27.1896 25.7149 27.3303 25.6798C27.4709 25.6446 27.7053 25.504 27.8342 25.3634C28.0568 25.129 28.0685 24.9532 28.0685 22.7266C28.0685 20.3477 28.0685 20.336 27.7756 20.0548L27.4943 19.7618H23.1115C18.881 19.7618 18.7287 19.7735 18.4826 19.9962ZM26.0764 22.7501V23.7462H23.0881H20.0998V22.7501V21.754H23.0881H26.0764V22.7501Z" fill="#FF7514"/>
<path d="M27.4358 41.0431C27.0256 41.465 27.0374 41.9454 27.4709 42.3907L27.8108 42.7306H31.1155H34.4202L34.76 42.3907C35.1936 41.9454 35.2053 41.465 34.7952 41.0431L34.4788 40.7384H31.1155H27.7522L27.4358 41.0431Z" fill="#FF7514"/>
</svg>
